G04*
G04 #@! TF.GenerationSoftware,Altium Limited,Altium Designer,21.6.1 (37)*
G04*
G04 Layer_Color=8421504*
%FSAX25Y25*%
%MOIN*%
G70*
G04*
G04 #@! TF.SameCoordinates,E0C0A44B-B62E-4E6E-ADDB-BB2CC36F5004*
G04*
G04*
G04 #@! TF.FilePolarity,Positive*
G04*
G01*
G75*
%ADD15R,0.07480X0.04724*%
%ADD16R,0.01772X0.01575*%
%ADD17R,0.01772X0.01968*%
%ADD18R,0.04331X0.04921*%
%ADD19R,0.03937X0.04331*%
%ADD20R,0.04528X0.02362*%
%ADD21R,0.04921X0.04331*%
%ADD22R,0.01000X0.03543*%
%ADD23R,0.13504X0.07008*%
%ADD24R,0.04134X0.02165*%
%ADD25R,0.07008X0.13504*%
%ADD26R,0.04724X0.04331*%
%ADD27R,0.06299X0.11811*%
%ADD28R,0.22835X0.24410*%
%ADD29R,0.04331X0.03937*%
%ADD30R,0.04724X0.02362*%
%ADD31R,0.06004X0.02559*%
G04:AMPARAMS|DCode=32|XSize=17.72mil|YSize=45.28mil|CornerRadius=1.95mil|HoleSize=0mil|Usage=FLASHONLY|Rotation=180.000|XOffset=0mil|YOffset=0mil|HoleType=Round|Shape=RoundedRectangle|*
%AMROUNDEDRECTD32*
21,1,0.01772,0.04138,0,0,180.0*
21,1,0.01382,0.04528,0,0,180.0*
1,1,0.00390,-0.00691,0.02069*
1,1,0.00390,0.00691,0.02069*
1,1,0.00390,0.00691,-0.02069*
1,1,0.00390,-0.00691,-0.02069*
%
%ADD32ROUNDEDRECTD32*%
%ADD33R,0.01322X0.04583*%
G04:AMPARAMS|DCode=34|XSize=45.83mil|YSize=13.22mil|CornerRadius=6.61mil|HoleSize=0mil|Usage=FLASHONLY|Rotation=270.000|XOffset=0mil|YOffset=0mil|HoleType=Round|Shape=RoundedRectangle|*
%AMROUNDEDRECTD34*
21,1,0.04583,0.00000,0,0,270.0*
21,1,0.03260,0.01322,0,0,270.0*
1,1,0.01322,0.00000,-0.01630*
1,1,0.01322,0.00000,0.01630*
1,1,0.01322,0.00000,0.01630*
1,1,0.01322,0.00000,-0.01630*
%
%ADD34ROUNDEDRECTD34*%
G04:AMPARAMS|DCode=35|XSize=26.38mil|YSize=11.81mil|CornerRadius=2.95mil|HoleSize=0mil|Usage=FLASHONLY|Rotation=0.000|XOffset=0mil|YOffset=0mil|HoleType=Round|Shape=RoundedRectangle|*
%AMROUNDEDRECTD35*
21,1,0.02638,0.00591,0,0,0.0*
21,1,0.02047,0.01181,0,0,0.0*
1,1,0.00591,0.01024,-0.00295*
1,1,0.00591,-0.01024,-0.00295*
1,1,0.00591,-0.01024,0.00295*
1,1,0.00591,0.01024,0.00295*
%
%ADD35ROUNDEDRECTD35*%
%ADD36R,0.03174X0.03379*%
%ADD37R,0.03379X0.03174*%
%ADD38R,0.23425X0.23425*%
%ADD39R,0.03347X0.01181*%
%ADD40R,0.01181X0.03347*%
%ADD41R,0.05512X0.06299*%
%ADD42R,0.02756X0.05118*%
%ADD43R,0.05000X0.02992*%
D15*
X0152500Y0256339D02*
D03*
X0152500Y0273661D02*
D03*
D16*
X0053264Y0180925D02*
D03*
Y0184075D02*
D03*
X0057028Y0156675D02*
D03*
Y0159825D02*
D03*
X0082028Y0121075D02*
D03*
Y0117925D02*
D03*
X0066264Y0134575D02*
D03*
Y0131425D02*
D03*
D17*
X0048736Y0182500D02*
D03*
X0052500Y0158250D02*
D03*
X0077500Y0119500D02*
D03*
X0061736Y0133000D02*
D03*
D18*
X0102500Y0183346D02*
D03*
Y0176654D02*
D03*
X0094000Y0183346D02*
D03*
Y0176654D02*
D03*
X0093500Y0159346D02*
D03*
Y0152654D02*
D03*
X0102000Y0159346D02*
D03*
Y0152654D02*
D03*
X0120500Y0114154D02*
D03*
Y0120846D02*
D03*
X0129000Y0114154D02*
D03*
Y0120846D02*
D03*
X0106000Y0136807D02*
D03*
Y0143500D02*
D03*
X0114500Y0136807D02*
D03*
Y0143500D02*
D03*
X0010500Y0128154D02*
D03*
Y0134846D02*
D03*
X0170500Y0135653D02*
D03*
Y0142347D02*
D03*
X0165000Y0184846D02*
D03*
Y0178154D02*
D03*
X0039000Y0054847D02*
D03*
Y0048153D02*
D03*
X0037000Y0071846D02*
D03*
Y0065153D02*
D03*
X0009500Y0043346D02*
D03*
Y0036654D02*
D03*
X0031000Y0033000D02*
D03*
Y0039693D02*
D03*
X0069256Y0100847D02*
D03*
Y0094153D02*
D03*
X0077756Y0100847D02*
D03*
Y0094153D02*
D03*
X0086256Y0100847D02*
D03*
Y0094153D02*
D03*
X0067500Y0041307D02*
D03*
Y0048000D02*
D03*
X0050500Y0041307D02*
D03*
Y0048000D02*
D03*
X0059000Y0041307D02*
D03*
Y0048000D02*
D03*
X0207000Y0047153D02*
D03*
Y0053847D02*
D03*
X0115500Y0304654D02*
D03*
Y0311347D02*
D03*
X0141000Y0256347D02*
D03*
Y0249654D02*
D03*
X0125000Y0233846D02*
D03*
Y0227153D02*
D03*
X0079500Y0227500D02*
D03*
Y0220807D02*
D03*
X0058000Y0229847D02*
D03*
Y0223153D02*
D03*
X0061500Y0276153D02*
D03*
Y0282846D02*
D03*
X0077500Y0276153D02*
D03*
Y0282846D02*
D03*
X0069500Y0276153D02*
D03*
Y0282846D02*
D03*
X0085500Y0283154D02*
D03*
Y0289846D02*
D03*
D19*
X0059244Y0181000D02*
D03*
X0064756D02*
D03*
X0036244Y0182500D02*
D03*
X0041756D02*
D03*
X0038988Y0158250D02*
D03*
X0044500D02*
D03*
X0063244Y0156750D02*
D03*
X0068756D02*
D03*
X0064244Y0119500D02*
D03*
X0069756D02*
D03*
X0095756D02*
D03*
X0090244D02*
D03*
X0048744Y0133000D02*
D03*
X0054256D02*
D03*
X0079756D02*
D03*
X0074244D02*
D03*
X0170756Y0127000D02*
D03*
X0165244D02*
D03*
X0188756Y0232000D02*
D03*
X0183244D02*
D03*
X0175000Y0102000D02*
D03*
X0169488D02*
D03*
X0079756Y0072500D02*
D03*
X0074244D02*
D03*
X0096012Y0068000D02*
D03*
X0090500D02*
D03*
X0109512D02*
D03*
X0104000D02*
D03*
X0117756Y0099500D02*
D03*
X0112244D02*
D03*
X0104256D02*
D03*
X0098744D02*
D03*
X0093500Y0081500D02*
D03*
X0099012D02*
D03*
X0077512Y0028000D02*
D03*
X0072000D02*
D03*
X0091012D02*
D03*
X0085500D02*
D03*
X0075244Y0041000D02*
D03*
X0080756D02*
D03*
X0086500Y0059500D02*
D03*
X0080988D02*
D03*
X0100012D02*
D03*
X0094500D02*
D03*
X0130012Y0086000D02*
D03*
X0124500D02*
D03*
X0210256D02*
D03*
X0204744D02*
D03*
X0130256Y0176000D02*
D03*
X0124744D02*
D03*
X0079756Y0301000D02*
D03*
X0074244D02*
D03*
X0112256Y0326000D02*
D03*
X0106744D02*
D03*
X0098756D02*
D03*
X0093244D02*
D03*
X0135256Y0268500D02*
D03*
X0129744D02*
D03*
X0123744Y0255000D02*
D03*
X0129256D02*
D03*
X0129744Y0285000D02*
D03*
X0135256D02*
D03*
D20*
X0076579Y0180760D02*
D03*
Y0188240D02*
D03*
X0086421D02*
D03*
Y0184500D02*
D03*
Y0180760D02*
D03*
X0112843Y0118500D02*
D03*
Y0122240D02*
D03*
Y0125980D02*
D03*
X0103000D02*
D03*
Y0118500D02*
D03*
X0096921Y0131760D02*
D03*
Y0135500D02*
D03*
Y0139240D02*
D03*
X0087079D02*
D03*
Y0131760D02*
D03*
X0085921Y0156760D02*
D03*
Y0160500D02*
D03*
Y0164240D02*
D03*
X0076079D02*
D03*
Y0156760D02*
D03*
D21*
X0019654Y0200000D02*
D03*
X0026346D02*
D03*
X0180154Y0145500D02*
D03*
X0186846D02*
D03*
X0189347Y0223500D02*
D03*
X0182653D02*
D03*
X0060347Y0085000D02*
D03*
X0053654D02*
D03*
X0022346Y0021500D02*
D03*
X0015653D02*
D03*
X0111909Y0075500D02*
D03*
X0118602D02*
D03*
X0094153Y0035500D02*
D03*
X0100847D02*
D03*
X0168846Y0053000D02*
D03*
X0162153D02*
D03*
X0107307Y0272000D02*
D03*
X0114000D02*
D03*
X0040154Y0313000D02*
D03*
X0046847D02*
D03*
X0065847Y0301000D02*
D03*
X0059153D02*
D03*
X0046847Y0251000D02*
D03*
X0040154D02*
D03*
X0094153Y0227500D02*
D03*
X0100847D02*
D03*
X0040154Y0275000D02*
D03*
X0046847D02*
D03*
X0041846Y0259500D02*
D03*
X0035154D02*
D03*
X0129154Y0276500D02*
D03*
X0135846D02*
D03*
X0102154Y0280000D02*
D03*
X0108846D02*
D03*
X0106653Y0243000D02*
D03*
X0113347D02*
D03*
X0046847Y0242500D02*
D03*
X0040154D02*
D03*
D22*
X0199835Y0293504D02*
D03*
X0197866D02*
D03*
X0195898D02*
D03*
X0193929D02*
D03*
X0191961D02*
D03*
X0189992D02*
D03*
X0188024D02*
D03*
X0186055D02*
D03*
X0184087D02*
D03*
X0182118D02*
D03*
X0180150D02*
D03*
X0178181D02*
D03*
X0179165Y0300984D02*
D03*
X0181134D02*
D03*
X0183102D02*
D03*
X0185071D02*
D03*
X0187039D02*
D03*
X0189008D02*
D03*
X0190976D02*
D03*
X0192945D02*
D03*
X0194913D02*
D03*
X0196882D02*
D03*
X0198850D02*
D03*
X0200819D02*
D03*
D23*
X0184000Y0118000D02*
D03*
X0186000Y0159500D02*
D03*
X0175000Y0074000D02*
D03*
X0023000Y0084000D02*
D03*
X0035500Y0007500D02*
D03*
X0062500Y0314500D02*
D03*
D24*
X0188118Y0138240D02*
D03*
Y0130760D02*
D03*
X0177882D02*
D03*
Y0134500D02*
D03*
Y0138240D02*
D03*
D25*
X0203500Y0140000D02*
D03*
X0163500Y0228000D02*
D03*
Y0205500D02*
D03*
X0208500D02*
D03*
X0023500Y0246750D02*
D03*
D26*
X0202500Y0223366D02*
D03*
Y0231634D02*
D03*
D27*
X0194996Y0209768D02*
D03*
X0177004D02*
D03*
D28*
X0186000Y0181500D02*
D03*
D29*
X0174000Y0223244D02*
D03*
Y0228756D02*
D03*
X0210000Y0181756D02*
D03*
Y0176244D02*
D03*
X0174500Y0088244D02*
D03*
Y0093756D02*
D03*
X0074500Y0080488D02*
D03*
Y0086000D02*
D03*
X0094500Y0293744D02*
D03*
Y0299256D02*
D03*
X0103000Y0293744D02*
D03*
Y0299256D02*
D03*
D30*
X0191921Y0091500D02*
D03*
X0182079Y0087760D02*
D03*
Y0095240D02*
D03*
D31*
X0045146Y0077500D02*
D03*
Y0072500D02*
D03*
Y0067500D02*
D03*
Y0062500D02*
D03*
X0066500D02*
D03*
Y0067500D02*
D03*
Y0072500D02*
D03*
Y0077500D02*
D03*
X0198677Y0058000D02*
D03*
Y0053000D02*
D03*
Y0048000D02*
D03*
Y0043000D02*
D03*
X0177323D02*
D03*
Y0048000D02*
D03*
Y0053000D02*
D03*
Y0058000D02*
D03*
D32*
X0016161Y0028134D02*
D03*
X0018721D02*
D03*
X0021280D02*
D03*
X0023839D02*
D03*
X0016161Y0044866D02*
D03*
X0018721D02*
D03*
X0021280D02*
D03*
X0023839D02*
D03*
D33*
X0113815Y0088532D02*
D03*
X0096059Y0048532D02*
D03*
D34*
X0111256Y0088532D02*
D03*
X0108697D02*
D03*
Y0082468D02*
D03*
X0113815D02*
D03*
X0093500Y0048532D02*
D03*
X0090941D02*
D03*
Y0042468D02*
D03*
X0096059D02*
D03*
D35*
X0091843Y0090031D02*
D03*
Y0092000D02*
D03*
Y0093968D02*
D03*
X0097669D02*
D03*
Y0092000D02*
D03*
Y0090031D02*
D03*
X0074087Y0049632D02*
D03*
Y0051600D02*
D03*
Y0053569D02*
D03*
X0079913D02*
D03*
Y0051600D02*
D03*
Y0049632D02*
D03*
D36*
X0112070Y0261000D02*
D03*
X0117000D02*
D03*
X0048500Y0259500D02*
D03*
X0053430D02*
D03*
D37*
X0125000Y0240535D02*
D03*
Y0245465D02*
D03*
D38*
X0080500Y0253500D02*
D03*
D39*
X0096051Y0266295D02*
D03*
Y0264327D02*
D03*
Y0262358D02*
D03*
Y0260390D02*
D03*
Y0258421D02*
D03*
Y0256453D02*
D03*
Y0254484D02*
D03*
Y0252516D02*
D03*
Y0250547D02*
D03*
Y0248579D02*
D03*
Y0246610D02*
D03*
Y0244642D02*
D03*
Y0242673D02*
D03*
Y0240705D02*
D03*
X0064949D02*
D03*
Y0242673D02*
D03*
Y0244642D02*
D03*
Y0246610D02*
D03*
Y0248579D02*
D03*
Y0250547D02*
D03*
Y0252516D02*
D03*
Y0254484D02*
D03*
Y0256453D02*
D03*
Y0258421D02*
D03*
Y0260390D02*
D03*
Y0262358D02*
D03*
Y0264327D02*
D03*
Y0266295D02*
D03*
D40*
X0093295Y0237949D02*
D03*
X0091327D02*
D03*
X0089358D02*
D03*
X0087390D02*
D03*
X0085421D02*
D03*
X0083453D02*
D03*
X0081484D02*
D03*
X0079516D02*
D03*
X0077547D02*
D03*
X0075579D02*
D03*
X0073610D02*
D03*
X0071642D02*
D03*
X0069673D02*
D03*
X0067705D02*
D03*
Y0269051D02*
D03*
X0069673D02*
D03*
X0071642D02*
D03*
X0073610D02*
D03*
X0075579D02*
D03*
X0077547D02*
D03*
X0079516D02*
D03*
X0081484D02*
D03*
X0083453D02*
D03*
X0085421D02*
D03*
X0087390D02*
D03*
X0089358D02*
D03*
X0091327D02*
D03*
X0093295D02*
D03*
D41*
X0038972Y0301480D02*
D03*
Y0286520D02*
D03*
X0048028D02*
D03*
Y0301480D02*
D03*
D42*
X0106740Y0317224D02*
D03*
X0103000D02*
D03*
X0099260D02*
D03*
Y0307776D02*
D03*
X0103000D02*
D03*
X0106740D02*
D03*
D43*
X0163992Y0278500D02*
D03*
X0171000D02*
D03*
X0204992Y0282000D02*
D03*
X0212000D02*
D03*
X0185762Y0269500D02*
D03*
X0178754D02*
D03*
X0192254D02*
D03*
X0199262D02*
D03*
M02*
