G04*
G04 #@! TF.GenerationSoftware,Altium Limited,Altium Designer,21.6.1 (37)*
G04*
G04 Layer_Physical_Order=4*
G04 Layer_Color=16711680*
%FSAX25Y25*%
%MOIN*%
G70*
G04*
G04 #@! TF.SameCoordinates,E0C0A44B-B62E-4E6E-ADDB-BB2CC36F5004*
G04*
G04*
G04 #@! TF.FilePolarity,Positive*
G04*
G01*
G75*
%ADD21R,0.04921X0.04331*%
%ADD64C,0.03189*%
G04:AMPARAMS|DCode=65|XSize=31.89mil|YSize=29.53mil|CornerRadius=14.76mil|HoleSize=0mil|Usage=FLASHONLY|Rotation=180.000|XOffset=0mil|YOffset=0mil|HoleType=Round|Shape=RoundedRectangle|*
%AMROUNDEDRECTD65*
21,1,0.03189,0.00000,0,0,180.0*
21,1,0.00236,0.02953,0,0,180.0*
1,1,0.02953,-0.00118,0.00000*
1,1,0.02953,0.00118,0.00000*
1,1,0.02953,0.00118,0.00000*
1,1,0.02953,-0.00118,0.00000*
%
%ADD65ROUNDEDRECTD65*%
G04:AMPARAMS|DCode=66|XSize=47.24mil|YSize=90.55mil|CornerRadius=23.62mil|HoleSize=0mil|Usage=FLASHONLY|Rotation=180.000|XOffset=0mil|YOffset=0mil|HoleType=Round|Shape=RoundedRectangle|*
%AMROUNDEDRECTD66*
21,1,0.04724,0.04331,0,0,180.0*
21,1,0.00000,0.09055,0,0,180.0*
1,1,0.04724,0.00000,0.02165*
1,1,0.04724,0.00000,0.02165*
1,1,0.04724,0.00000,-0.02165*
1,1,0.04724,0.00000,-0.02165*
%
%ADD66ROUNDEDRECTD66*%
%ADD73C,0.00800*%
%ADD74C,0.01500*%
%ADD75C,0.00689*%
%ADD76C,0.04693*%
%ADD77R,0.04693X0.04693*%
%ADD78C,0.05906*%
%ADD79R,0.06496X0.06496*%
%ADD80C,0.06496*%
%ADD81C,0.02000*%
%ADD82C,0.03000*%
%ADD83R,0.06260X0.05472*%
G36*
X0241197Y0000803D02*
X0000803D01*
Y0332197D01*
X0241197D01*
Y0000803D01*
D02*
G37*
%LPC*%
G36*
X0121798Y0327500D02*
X0121202D01*
X0120650Y0327272D01*
X0120228Y0326850D01*
X0120000Y0326298D01*
Y0325702D01*
X0120228Y0325150D01*
X0120650Y0324728D01*
X0121202Y0324500D01*
X0121798D01*
X0122350Y0324728D01*
X0122772Y0325150D01*
X0123000Y0325702D01*
Y0326298D01*
X0122772Y0326850D01*
X0122350Y0327272D01*
X0121798Y0327500D01*
D02*
G37*
G36*
X0212335Y0325424D02*
X0211614Y0325329D01*
X0210942Y0325051D01*
X0210365Y0324608D01*
X0209922Y0324031D01*
X0209644Y0323359D01*
X0209549Y0322638D01*
Y0321288D01*
X0205707D01*
Y0323038D01*
X0199986D01*
Y0317907D01*
X0205707D01*
Y0319657D01*
X0209549D01*
Y0318307D01*
X0209644Y0317586D01*
X0209922Y0316914D01*
X0210365Y0316337D01*
X0210942Y0315894D01*
X0211614Y0315616D01*
X0212335Y0315521D01*
X0213056Y0315616D01*
X0213728Y0315894D01*
X0214305Y0316337D01*
X0214747Y0316914D01*
X0215026Y0317586D01*
X0215121Y0318307D01*
Y0322638D01*
X0215026Y0323359D01*
X0214747Y0324031D01*
X0214305Y0324608D01*
X0213728Y0325051D01*
X0213056Y0325329D01*
X0212335Y0325424D01*
D02*
G37*
G36*
X0117798Y0321000D02*
X0117202D01*
X0116650Y0320772D01*
X0116228Y0320350D01*
X0116000Y0319798D01*
Y0319202D01*
X0116228Y0318650D01*
X0116650Y0318228D01*
X0117202Y0318000D01*
X0117798D01*
X0118350Y0318228D01*
X0118772Y0318650D01*
X0119000Y0319202D01*
Y0319798D01*
X0118772Y0320350D01*
X0118350Y0320772D01*
X0117798Y0321000D01*
D02*
G37*
G36*
X0166665Y0325424D02*
X0165944Y0325329D01*
X0165272Y0325051D01*
X0164695Y0324608D01*
X0164253Y0324031D01*
X0163974Y0323359D01*
X0163879Y0322638D01*
Y0318307D01*
X0163974Y0317586D01*
X0164253Y0316914D01*
X0164695Y0316337D01*
X0165272Y0315894D01*
X0165944Y0315616D01*
X0166665Y0315521D01*
X0167386Y0315616D01*
X0168058Y0315894D01*
X0168635Y0316337D01*
X0169078Y0316914D01*
X0169356Y0317586D01*
X0169451Y0318307D01*
Y0319684D01*
X0173293D01*
Y0317935D01*
X0179014D01*
Y0323065D01*
X0173293D01*
Y0321316D01*
X0169451D01*
Y0322638D01*
X0169356Y0323359D01*
X0169078Y0324031D01*
X0168635Y0324608D01*
X0168058Y0325051D01*
X0167386Y0325329D01*
X0166665Y0325424D01*
D02*
G37*
G36*
X0185707Y0323065D02*
X0179986D01*
Y0317935D01*
X0185707D01*
Y0318238D01*
X0186507Y0318665D01*
X0186684Y0318547D01*
Y0314208D01*
X0182450Y0309974D01*
X0182416Y0309988D01*
X0181820D01*
X0181268Y0309760D01*
X0180847Y0309338D01*
X0180618Y0308787D01*
Y0308190D01*
X0180847Y0307639D01*
X0181268Y0307217D01*
X0181302Y0307202D01*
Y0293382D01*
X0181302Y0293382D01*
X0181365Y0293070D01*
X0181541Y0292805D01*
X0185954Y0288392D01*
Y0288336D01*
X0185954Y0288336D01*
X0185970Y0288257D01*
Y0286816D01*
X0182420D01*
X0182405Y0286850D01*
X0181984Y0287272D01*
X0181432Y0287500D01*
X0180835D01*
X0180284Y0287272D01*
X0179862Y0286850D01*
X0179634Y0286298D01*
Y0285702D01*
X0178955Y0285316D01*
X0175223D01*
Y0287065D01*
X0169502D01*
Y0281935D01*
X0175223D01*
Y0283684D01*
X0179634D01*
X0179634Y0283684D01*
X0179946Y0283746D01*
X0180211Y0283923D01*
X0180801Y0284514D01*
X0180835Y0284500D01*
X0181432D01*
X0181984Y0284728D01*
X0182405Y0285150D01*
X0182420Y0285184D01*
X0185970D01*
Y0282864D01*
X0193030D01*
Y0285184D01*
X0195596D01*
X0195610Y0285150D01*
X0196032Y0284728D01*
X0196583Y0284500D01*
X0197180D01*
X0197214Y0284514D01*
X0197805Y0283923D01*
X0198070Y0283746D01*
X0198382Y0283684D01*
X0198382Y0283684D01*
X0202793D01*
Y0281935D01*
X0208514D01*
Y0287065D01*
X0202793D01*
Y0285316D01*
X0199061D01*
X0198382Y0285702D01*
Y0286298D01*
X0198153Y0286850D01*
X0197732Y0287272D01*
X0197180Y0287500D01*
X0196583D01*
X0196032Y0287272D01*
X0195610Y0286850D01*
X0195596Y0286816D01*
X0193030D01*
Y0288257D01*
X0193046Y0288336D01*
X0193046Y0288336D01*
Y0288392D01*
X0198443Y0293789D01*
X0198443Y0293789D01*
X0198620Y0294054D01*
X0198682Y0294366D01*
Y0307202D01*
X0198716Y0307217D01*
X0199138Y0307639D01*
X0199366Y0308190D01*
Y0308787D01*
X0199138Y0309338D01*
X0198716Y0309760D01*
X0198164Y0309988D01*
X0197568D01*
X0197534Y0309974D01*
X0191816Y0315692D01*
Y0318662D01*
X0192493Y0319339D01*
X0193293Y0319008D01*
Y0317907D01*
X0199014D01*
Y0323038D01*
X0193293D01*
Y0321288D01*
X0192472D01*
X0192160Y0321226D01*
X0191896Y0321049D01*
X0191896Y0321049D01*
X0190423Y0319577D01*
X0190246Y0319312D01*
X0190184Y0319000D01*
X0190184Y0319000D01*
Y0315354D01*
X0190184Y0315354D01*
X0190246Y0315042D01*
X0190423Y0314777D01*
X0196380Y0308821D01*
X0196366Y0308787D01*
Y0308190D01*
X0196595Y0307639D01*
X0197017Y0307217D01*
X0197050Y0307202D01*
Y0294704D01*
X0191653Y0289307D01*
X0191539Y0289136D01*
X0187461D01*
X0187347Y0289307D01*
X0187347Y0289307D01*
X0182934Y0293720D01*
Y0307202D01*
X0182968Y0307217D01*
X0183390Y0307639D01*
X0183618Y0308190D01*
Y0308787D01*
X0183604Y0308821D01*
X0188077Y0313293D01*
X0188077Y0313293D01*
X0188254Y0313558D01*
X0188316Y0313870D01*
X0188316Y0313870D01*
Y0319500D01*
X0188254Y0319812D01*
X0188077Y0320077D01*
X0188077Y0320077D01*
X0187077Y0321077D01*
X0186812Y0321254D01*
X0186500Y0321316D01*
X0186500Y0321316D01*
X0185707D01*
Y0323065D01*
D02*
G37*
G36*
X0047145Y0320500D02*
X0046548D01*
X0045997Y0320272D01*
X0045575Y0319850D01*
X0045347Y0319298D01*
Y0318702D01*
X0045575Y0318150D01*
X0045997Y0317728D01*
X0046548Y0317500D01*
X0047145D01*
X0047696Y0317728D01*
X0048118Y0318150D01*
X0048346Y0318702D01*
Y0319298D01*
X0048118Y0319850D01*
X0047696Y0320272D01*
X0047145Y0320500D01*
D02*
G37*
G36*
X0229620Y0327102D02*
X0228380D01*
X0228302Y0327087D01*
X0228223D01*
X0227006Y0326845D01*
X0226933Y0326814D01*
X0226855Y0326799D01*
X0225709Y0326324D01*
X0225643Y0326280D01*
X0225570Y0326250D01*
X0224538Y0325560D01*
X0224482Y0325504D01*
X0224417Y0325461D01*
X0223539Y0324583D01*
X0223495Y0324517D01*
X0223440Y0324462D01*
X0222750Y0323430D01*
X0222720Y0323357D01*
X0222676Y0323291D01*
X0222201Y0322145D01*
X0222186Y0322067D01*
X0222155Y0321994D01*
X0221913Y0320777D01*
Y0320698D01*
X0221898Y0320620D01*
Y0319380D01*
X0221913Y0319302D01*
Y0319223D01*
X0222155Y0318006D01*
X0222186Y0317933D01*
X0222201Y0317855D01*
X0222676Y0316709D01*
X0222720Y0316643D01*
X0222750Y0316570D01*
X0223440Y0315539D01*
X0223495Y0315482D01*
X0223539Y0315417D01*
X0224417Y0314539D01*
X0224482Y0314495D01*
X0224538Y0314440D01*
X0225570Y0313750D01*
X0225643Y0313720D01*
X0225709Y0313676D01*
X0226855Y0313201D01*
X0226933Y0313186D01*
X0227006Y0313156D01*
X0228223Y0312913D01*
X0228302D01*
X0228380Y0312898D01*
X0229620D01*
X0229698Y0312913D01*
X0229777D01*
X0230994Y0313156D01*
X0231067Y0313186D01*
X0231145Y0313201D01*
X0232291Y0313676D01*
X0232357Y0313720D01*
X0232430Y0313750D01*
X0233461Y0314440D01*
X0233517Y0314495D01*
X0233583Y0314539D01*
X0234461Y0315417D01*
X0234505Y0315482D01*
X0234560Y0315539D01*
X0235250Y0316570D01*
X0235280Y0316643D01*
X0235324Y0316709D01*
X0235799Y0317855D01*
X0235814Y0317933D01*
X0235844Y0318006D01*
X0236087Y0319223D01*
Y0319302D01*
X0236102Y0319380D01*
Y0320620D01*
X0236087Y0320698D01*
Y0320777D01*
X0235844Y0321994D01*
X0235814Y0322067D01*
X0235799Y0322145D01*
X0235324Y0323291D01*
X0235280Y0323357D01*
X0235250Y0323430D01*
X0234560Y0324462D01*
X0234505Y0324517D01*
X0234461Y0324583D01*
X0233583Y0325461D01*
X0233517Y0325504D01*
X0233461Y0325560D01*
X0232430Y0326250D01*
X0232357Y0326280D01*
X0232291Y0326324D01*
X0231145Y0326799D01*
X0231067Y0326814D01*
X0230994Y0326845D01*
X0229777Y0327087D01*
X0229698D01*
X0229620Y0327102D01*
D02*
G37*
G36*
X0209579Y0307038D02*
X0208858Y0306943D01*
X0208186Y0306665D01*
X0207609Y0306222D01*
X0207166Y0305645D01*
X0206888Y0304973D01*
X0206793Y0304252D01*
Y0301866D01*
X0206590Y0301787D01*
X0205993Y0301731D01*
X0205737Y0302174D01*
X0205257Y0302654D01*
X0204669Y0302994D01*
X0204013Y0303169D01*
X0203334D01*
X0202678Y0302994D01*
X0202090Y0302654D01*
X0201610Y0302174D01*
X0201270Y0301586D01*
X0201095Y0300930D01*
Y0300251D01*
X0201270Y0299595D01*
X0201610Y0299007D01*
X0202090Y0298527D01*
X0202678Y0298188D01*
X0203334Y0298012D01*
X0204013D01*
X0204669Y0298188D01*
X0205257Y0298527D01*
X0205737Y0299007D01*
X0206038Y0299528D01*
X0206125Y0299541D01*
X0206888Y0299200D01*
X0207166Y0298528D01*
X0207609Y0297951D01*
X0208186Y0297509D01*
X0208763Y0297269D01*
Y0294921D01*
X0208763Y0294921D01*
X0208825Y0294609D01*
X0209002Y0294344D01*
X0215246Y0288100D01*
X0215248Y0287825D01*
X0214498Y0287065D01*
X0209486Y0287065D01*
Y0281935D01*
X0215207D01*
Y0283684D01*
X0216000D01*
X0216000Y0283684D01*
X0216312Y0283746D01*
X0216577Y0283923D01*
X0217577Y0284923D01*
X0217577Y0284923D01*
X0217754Y0285188D01*
X0217816Y0285500D01*
Y0287500D01*
X0217816Y0287500D01*
X0217754Y0287812D01*
X0217577Y0288077D01*
X0217577Y0288077D01*
X0210394Y0295259D01*
Y0297269D01*
X0210972Y0297509D01*
X0211549Y0297951D01*
X0211992Y0298528D01*
X0212270Y0299200D01*
X0212365Y0299921D01*
Y0304252D01*
X0212270Y0304973D01*
X0211992Y0305645D01*
X0211549Y0306222D01*
X0210972Y0306665D01*
X0210300Y0306943D01*
X0209579Y0307038D01*
D02*
G37*
G36*
X0169421D02*
X0168700Y0306943D01*
X0168028Y0306665D01*
X0167451Y0306222D01*
X0167008Y0305645D01*
X0166730Y0304973D01*
X0166635Y0304252D01*
Y0300101D01*
X0166620D01*
X0166308Y0300039D01*
X0166043Y0299862D01*
X0166043Y0299862D01*
X0158923Y0292742D01*
X0158746Y0292477D01*
X0158684Y0292165D01*
X0158684Y0292165D01*
Y0286500D01*
X0158684Y0286500D01*
X0158746Y0286188D01*
X0158923Y0285923D01*
X0160923Y0283923D01*
X0160923Y0283923D01*
X0161188Y0283746D01*
X0161500Y0283684D01*
X0161500Y0283684D01*
X0162809D01*
Y0281935D01*
X0168530D01*
Y0287065D01*
X0162809D01*
Y0285316D01*
X0161838D01*
X0160316Y0286838D01*
Y0291828D01*
X0166441Y0297953D01*
X0167451Y0297951D01*
X0168028Y0297509D01*
X0168700Y0297230D01*
X0169421Y0297135D01*
X0170142Y0297230D01*
X0170814Y0297509D01*
X0171391Y0297951D01*
X0171834Y0298528D01*
X0172112Y0299200D01*
X0172142Y0299422D01*
X0172529Y0299530D01*
X0172962Y0299524D01*
X0173435Y0298816D01*
X0174249Y0298273D01*
X0175209Y0298082D01*
X0175445D01*
X0176405Y0298273D01*
X0177219Y0298816D01*
X0177763Y0299630D01*
X0177954Y0300590D01*
X0177763Y0301551D01*
X0177219Y0302365D01*
X0176405Y0302908D01*
X0175445Y0303099D01*
X0175209D01*
X0174249Y0302908D01*
X0173435Y0302365D01*
X0173007Y0301725D01*
X0172207Y0301903D01*
Y0304252D01*
X0172112Y0304973D01*
X0171834Y0305645D01*
X0171391Y0306222D01*
X0170814Y0306665D01*
X0170142Y0306943D01*
X0169421Y0307038D01*
D02*
G37*
G36*
X0115798Y0298000D02*
X0115202D01*
X0114650Y0297772D01*
X0114228Y0297350D01*
X0114214Y0297316D01*
X0106750D01*
X0106750Y0297316D01*
X0106438Y0297254D01*
X0106173Y0297077D01*
X0106173Y0297077D01*
X0099082Y0289986D01*
X0099048Y0290000D01*
X0098452D01*
X0097900Y0289772D01*
X0097478Y0289350D01*
X0097250Y0288798D01*
Y0288202D01*
X0097264Y0288168D01*
X0093458Y0284362D01*
X0092772Y0284003D01*
X0092350Y0284425D01*
X0091798Y0284653D01*
X0091202D01*
X0090650Y0284425D01*
X0090228Y0284003D01*
X0090000Y0283452D01*
Y0282855D01*
X0090228Y0282304D01*
X0090650Y0281882D01*
X0091202Y0281653D01*
X0091798D01*
X0092350Y0281882D01*
X0092772Y0282304D01*
X0092786Y0282338D01*
X0093404D01*
X0093404Y0282338D01*
X0093716Y0282400D01*
X0093980Y0282577D01*
X0098418Y0287014D01*
X0098452Y0287000D01*
X0099048D01*
X0099600Y0287228D01*
X0100022Y0287650D01*
X0100250Y0288202D01*
Y0288798D01*
X0100236Y0288832D01*
X0107088Y0295684D01*
X0114214D01*
X0114228Y0295650D01*
X0114650Y0295228D01*
X0115202Y0295000D01*
X0115798D01*
X0116350Y0295228D01*
X0116772Y0295650D01*
X0117000Y0296202D01*
Y0296798D01*
X0116772Y0297350D01*
X0116350Y0297772D01*
X0115798Y0298000D01*
D02*
G37*
G36*
X0078798Y0297000D02*
X0078202D01*
X0077650Y0296772D01*
X0077228Y0296350D01*
X0077000Y0295798D01*
Y0295202D01*
X0077228Y0294650D01*
X0077650Y0294228D01*
X0078202Y0294000D01*
X0078798D01*
X0079350Y0294228D01*
X0079772Y0294650D01*
X0080000Y0295202D01*
Y0295798D01*
X0079772Y0296350D01*
X0079350Y0296772D01*
X0078798Y0297000D01*
D02*
G37*
G36*
X0059452Y0296500D02*
X0058855D01*
X0058304Y0296272D01*
X0057882Y0295850D01*
X0057653Y0295298D01*
Y0294702D01*
X0057882Y0294150D01*
X0058304Y0293728D01*
X0058855Y0293500D01*
X0059452D01*
X0060003Y0293728D01*
X0060425Y0294150D01*
X0060654Y0294702D01*
Y0295298D01*
X0060425Y0295850D01*
X0060003Y0296272D01*
X0059452Y0296500D01*
D02*
G37*
G36*
X0079798Y0290500D02*
X0079202D01*
X0078650Y0290272D01*
X0078228Y0289850D01*
X0078000Y0289298D01*
Y0288702D01*
X0078228Y0288150D01*
X0078650Y0287728D01*
X0079202Y0287500D01*
X0079798D01*
X0080350Y0287728D01*
X0080772Y0288150D01*
X0081000Y0288702D01*
Y0289298D01*
X0080772Y0289850D01*
X0080350Y0290272D01*
X0079798Y0290500D01*
D02*
G37*
G36*
X0069798Y0290346D02*
X0069202D01*
X0068650Y0290118D01*
X0068228Y0289696D01*
X0068000Y0289145D01*
Y0288548D01*
X0068228Y0287997D01*
X0068650Y0287575D01*
X0069202Y0287346D01*
X0069798D01*
X0070350Y0287575D01*
X0070772Y0287997D01*
X0071000Y0288548D01*
Y0289145D01*
X0070772Y0289696D01*
X0070350Y0290118D01*
X0069798Y0290346D01*
D02*
G37*
G36*
X0061798D02*
X0061202D01*
X0060650Y0290118D01*
X0060228Y0289696D01*
X0060000Y0289145D01*
Y0288548D01*
X0060228Y0287997D01*
X0060650Y0287575D01*
X0061202Y0287346D01*
X0061798D01*
X0062350Y0287575D01*
X0062772Y0287997D01*
X0063000Y0288548D01*
Y0289145D01*
X0062772Y0289696D01*
X0062350Y0290118D01*
X0061798Y0290346D01*
D02*
G37*
G36*
X0073798Y0290346D02*
X0073202D01*
X0072650Y0290118D01*
X0072228Y0289696D01*
X0072000Y0289145D01*
Y0288548D01*
X0072228Y0287997D01*
X0072650Y0287575D01*
X0073202Y0287346D01*
X0073798D01*
X0074350Y0287575D01*
X0074772Y0287997D01*
X0075000Y0288548D01*
Y0289145D01*
X0074772Y0289696D01*
X0074350Y0290118D01*
X0073798Y0290346D01*
D02*
G37*
G36*
X0065798D02*
X0065202D01*
X0064650Y0290118D01*
X0064228Y0289696D01*
X0064000Y0289145D01*
Y0288548D01*
X0064228Y0287997D01*
X0064650Y0287575D01*
X0065202Y0287346D01*
X0065798D01*
X0066350Y0287575D01*
X0066772Y0287997D01*
X0067000Y0288548D01*
Y0289145D01*
X0066772Y0289696D01*
X0066350Y0290118D01*
X0065798Y0290346D01*
D02*
G37*
G36*
X0074542Y0308500D02*
X0073946D01*
X0073394Y0308272D01*
X0072973Y0307850D01*
X0072744Y0307298D01*
Y0306702D01*
X0072973Y0306150D01*
X0073394Y0305728D01*
X0073946Y0305500D01*
X0074542D01*
X0074576Y0305514D01*
X0084284Y0295806D01*
Y0283300D01*
X0084284Y0283300D01*
X0084346Y0282988D01*
X0084523Y0282723D01*
X0088523Y0278723D01*
X0088523Y0278723D01*
X0088788Y0278546D01*
X0089100Y0278484D01*
X0094800D01*
X0094800Y0278484D01*
X0095112Y0278546D01*
X0095377Y0278723D01*
X0105338Y0288684D01*
X0112763D01*
X0112922Y0287884D01*
X0112650Y0287772D01*
X0112228Y0287350D01*
X0112000Y0286798D01*
Y0286737D01*
X0111739Y0286562D01*
X0110772Y0286850D01*
X0110350Y0287272D01*
X0109798Y0287500D01*
X0109202D01*
X0108650Y0287272D01*
X0108228Y0286850D01*
X0108214Y0286816D01*
X0106600D01*
X0106600Y0286816D01*
X0106288Y0286754D01*
X0106023Y0286577D01*
X0106023Y0286577D01*
X0096262Y0276816D01*
X0083786D01*
X0083772Y0276850D01*
X0083350Y0277272D01*
X0082798Y0277500D01*
X0082202D01*
X0081650Y0277272D01*
X0081228Y0276850D01*
X0081000Y0276298D01*
Y0275702D01*
X0081014Y0275668D01*
X0052912Y0247566D01*
X0035439D01*
X0035425Y0247600D01*
X0035003Y0248022D01*
X0034452Y0248250D01*
X0033855D01*
X0033304Y0248022D01*
X0032882Y0247600D01*
X0032654Y0247048D01*
Y0246452D01*
X0032882Y0245900D01*
X0033304Y0245478D01*
X0033855Y0245250D01*
X0034452D01*
X0035003Y0245478D01*
X0035425Y0245900D01*
X0035439Y0245934D01*
X0053250D01*
X0053250Y0245934D01*
X0053562Y0245996D01*
X0053827Y0246173D01*
X0069384Y0261731D01*
X0070266Y0261567D01*
X0070580Y0260856D01*
X0070356Y0260477D01*
X0070228Y0260350D01*
X0070000Y0259798D01*
Y0259202D01*
X0070228Y0258650D01*
X0070361Y0258518D01*
X0070562Y0258000D01*
X0070361Y0257482D01*
X0070228Y0257350D01*
X0070000Y0256798D01*
Y0256202D01*
X0070228Y0255650D01*
X0070361Y0255518D01*
X0070562Y0255000D01*
X0070361Y0254482D01*
X0070228Y0254350D01*
X0070000Y0253798D01*
Y0253202D01*
X0070228Y0252650D01*
X0070361Y0252518D01*
X0070562Y0252000D01*
X0070361Y0251482D01*
X0070228Y0251350D01*
X0070000Y0250798D01*
Y0250202D01*
X0070228Y0249650D01*
X0070361Y0249518D01*
X0070562Y0249000D01*
X0070361Y0248482D01*
X0070228Y0248350D01*
X0070000Y0247798D01*
Y0247202D01*
X0070228Y0246650D01*
X0070361Y0246518D01*
X0070562Y0246000D01*
X0070361Y0245482D01*
X0070228Y0245350D01*
X0070000Y0244798D01*
Y0244202D01*
X0070228Y0243650D01*
X0070650Y0243228D01*
X0071202Y0243000D01*
X0071798D01*
X0072350Y0243228D01*
X0072482Y0243361D01*
X0073000Y0243562D01*
X0073518Y0243361D01*
X0073650Y0243228D01*
X0074202Y0243000D01*
X0074798D01*
X0075350Y0243228D01*
X0075482Y0243361D01*
X0076000Y0243562D01*
X0076518Y0243361D01*
X0076650Y0243228D01*
X0077202Y0243000D01*
X0077798D01*
X0078350Y0243228D01*
X0078482Y0243361D01*
X0079000Y0243562D01*
X0079518Y0243361D01*
X0079650Y0243228D01*
X0080202Y0243000D01*
X0080798D01*
X0081350Y0243228D01*
X0081482Y0243361D01*
X0082000Y0243562D01*
X0082518Y0243361D01*
X0082650Y0243228D01*
X0083202Y0243000D01*
X0083798D01*
X0084350Y0243228D01*
X0084482Y0243361D01*
X0085000Y0243562D01*
X0085518Y0243361D01*
X0085650Y0243228D01*
X0086202Y0243000D01*
X0086798D01*
X0087350Y0243228D01*
X0087482Y0243361D01*
X0088000Y0243562D01*
X0088518Y0243361D01*
X0088650Y0243228D01*
X0089202Y0243000D01*
X0089798D01*
X0090350Y0243228D01*
X0090772Y0243650D01*
X0091000Y0244202D01*
Y0244798D01*
X0090772Y0245350D01*
X0090639Y0245482D01*
X0090438Y0246000D01*
X0090639Y0246518D01*
X0090772Y0246650D01*
X0091000Y0247202D01*
Y0247798D01*
X0090772Y0248350D01*
X0090639Y0248482D01*
X0090438Y0249000D01*
X0090639Y0249518D01*
X0090772Y0249650D01*
X0091000Y0250202D01*
Y0250798D01*
X0090772Y0251350D01*
X0090639Y0251482D01*
X0090438Y0252000D01*
X0090639Y0252518D01*
X0090772Y0252650D01*
X0091000Y0253202D01*
Y0253798D01*
X0090772Y0254350D01*
X0090639Y0254482D01*
X0090438Y0255000D01*
X0090639Y0255518D01*
X0090772Y0255650D01*
X0091000Y0256202D01*
Y0256798D01*
X0090772Y0257350D01*
X0090639Y0257482D01*
X0090438Y0258000D01*
X0090639Y0258518D01*
X0090772Y0258650D01*
X0091000Y0259202D01*
Y0259798D01*
X0090772Y0260350D01*
X0090639Y0260482D01*
X0090438Y0261000D01*
X0090639Y0261518D01*
X0090772Y0261650D01*
X0091000Y0262202D01*
Y0262798D01*
X0090772Y0263350D01*
X0090350Y0263772D01*
X0089798Y0264000D01*
X0089202D01*
X0088650Y0263772D01*
X0088518Y0263639D01*
X0088000Y0263438D01*
X0087482Y0263639D01*
X0087350Y0263772D01*
X0086798Y0264000D01*
X0086202D01*
X0085650Y0263772D01*
X0085518Y0263639D01*
X0085000Y0263438D01*
X0084482Y0263639D01*
X0084350Y0263772D01*
X0083798Y0264000D01*
X0083202D01*
X0082650Y0263772D01*
X0082518Y0263639D01*
X0082000Y0263438D01*
X0081482Y0263639D01*
X0081350Y0263772D01*
X0080798Y0264000D01*
X0080202D01*
X0079650Y0263772D01*
X0079518Y0263639D01*
X0079000Y0263438D01*
X0078482Y0263639D01*
X0078350Y0263772D01*
X0077798Y0264000D01*
X0077202D01*
X0076650Y0263772D01*
X0076518Y0263639D01*
X0076000Y0263438D01*
X0075482Y0263639D01*
X0075350Y0263772D01*
X0074798Y0264000D01*
X0074202D01*
X0073650Y0263772D01*
X0073523Y0263644D01*
X0073144Y0263421D01*
X0072433Y0263734D01*
X0072269Y0264616D01*
X0082168Y0274514D01*
X0082202Y0274500D01*
X0082798D01*
X0083350Y0274728D01*
X0083772Y0275150D01*
X0083786Y0275184D01*
X0096399D01*
X0096692Y0274696D01*
X0096748Y0274401D01*
X0094923Y0272577D01*
X0094746Y0272312D01*
X0094684Y0272000D01*
X0094684Y0272000D01*
Y0266000D01*
X0094684Y0266000D01*
X0094746Y0265688D01*
X0094923Y0265423D01*
X0101384Y0258962D01*
Y0241454D01*
X0101384Y0241454D01*
X0101446Y0241141D01*
X0101623Y0240877D01*
X0105072Y0237428D01*
Y0236572D01*
X0096816Y0228316D01*
X0075786D01*
X0075772Y0228350D01*
X0075350Y0228772D01*
X0074798Y0229000D01*
X0074202D01*
X0073650Y0228772D01*
X0073228Y0228350D01*
X0073000Y0227798D01*
Y0227202D01*
X0073228Y0226650D01*
X0073650Y0226228D01*
X0074202Y0226000D01*
X0074798D01*
X0075350Y0226228D01*
X0075772Y0226650D01*
X0075786Y0226684D01*
X0097153D01*
X0097154Y0226684D01*
X0097466Y0226746D01*
X0097730Y0226923D01*
X0106321Y0235514D01*
X0106355Y0235500D01*
X0106952D01*
X0107503Y0235728D01*
X0107925Y0236150D01*
X0108153Y0236702D01*
Y0237298D01*
X0107925Y0237850D01*
X0107503Y0238272D01*
X0106952Y0238500D01*
X0106355D01*
X0106321Y0238486D01*
X0103016Y0241791D01*
Y0259300D01*
X0103016Y0259300D01*
X0102954Y0259612D01*
X0102777Y0259877D01*
X0096316Y0266338D01*
Y0271662D01*
X0108585Y0283931D01*
X0108636Y0283921D01*
X0108899Y0283053D01*
X0097423Y0271577D01*
X0097246Y0271312D01*
X0097184Y0271000D01*
X0097184Y0271000D01*
Y0268500D01*
X0097184Y0268500D01*
X0097246Y0268188D01*
X0097423Y0267923D01*
X0103514Y0261832D01*
X0103500Y0261798D01*
Y0261202D01*
X0103728Y0260650D01*
X0104150Y0260228D01*
X0104702Y0260000D01*
X0105298D01*
X0105850Y0260228D01*
X0106272Y0260650D01*
X0106500Y0261202D01*
Y0261798D01*
X0106272Y0262350D01*
X0105850Y0262772D01*
X0105298Y0263000D01*
X0104702D01*
X0104668Y0262986D01*
X0098816Y0268838D01*
Y0270046D01*
X0098903Y0270086D01*
X0099728Y0270150D01*
X0100150Y0269728D01*
X0100702Y0269500D01*
X0101298D01*
X0101332Y0269514D01*
X0102423Y0268423D01*
X0102423Y0268423D01*
X0102688Y0268246D01*
X0103000Y0268184D01*
X0103000Y0268184D01*
X0106570D01*
X0106729Y0267384D01*
X0106457Y0267272D01*
X0106035Y0266850D01*
X0105807Y0266298D01*
Y0265702D01*
X0106035Y0265150D01*
X0106457Y0264728D01*
X0107009Y0264500D01*
X0107606D01*
X0108157Y0264728D01*
X0108579Y0265150D01*
X0108593Y0265184D01*
X0117662D01*
X0121514Y0261332D01*
X0121500Y0261298D01*
Y0260702D01*
X0121728Y0260150D01*
X0122150Y0259728D01*
X0122702Y0259500D01*
X0123298D01*
X0123850Y0259728D01*
X0124272Y0260150D01*
X0124500Y0260702D01*
Y0261298D01*
X0124272Y0261850D01*
X0123850Y0262272D01*
X0123298Y0262500D01*
X0122702D01*
X0122668Y0262486D01*
X0118577Y0266577D01*
X0118312Y0266754D01*
X0118000Y0266816D01*
X0118000Y0266816D01*
X0108593D01*
X0108579Y0266850D01*
X0108157Y0267272D01*
X0107885Y0267384D01*
X0108044Y0268184D01*
X0123662D01*
X0131723Y0260123D01*
X0131723Y0260123D01*
X0131988Y0259946D01*
X0132300Y0259884D01*
X0139117D01*
X0144778Y0254223D01*
X0145043Y0254046D01*
X0145355Y0253984D01*
X0145355Y0253984D01*
X0160914D01*
X0160928Y0253950D01*
X0161350Y0253528D01*
X0161902Y0253300D01*
X0162498D01*
X0163050Y0253528D01*
X0163472Y0253950D01*
X0163700Y0254502D01*
Y0255098D01*
X0163472Y0255650D01*
X0163357Y0255765D01*
X0163624Y0256629D01*
X0163955Y0256691D01*
X0165384Y0255262D01*
Y0253038D01*
X0154923Y0242577D01*
X0154746Y0242312D01*
X0154684Y0242000D01*
X0154684Y0242000D01*
Y0121838D01*
X0151939Y0119093D01*
X0151408Y0119399D01*
X0150480Y0119648D01*
X0149520D01*
X0148592Y0119399D01*
X0147760Y0118919D01*
X0147081Y0118240D01*
X0146601Y0117408D01*
X0146352Y0116480D01*
Y0115520D01*
X0146601Y0114592D01*
X0147081Y0113760D01*
X0147760Y0113081D01*
X0148592Y0112601D01*
X0149520Y0112352D01*
X0150480D01*
X0151408Y0112601D01*
X0152240Y0113081D01*
X0152919Y0113760D01*
X0153399Y0114592D01*
X0153648Y0115520D01*
Y0116480D01*
X0153399Y0117408D01*
X0153093Y0117939D01*
X0156077Y0120923D01*
X0156077Y0120923D01*
X0156254Y0121188D01*
X0156316Y0121500D01*
Y0241662D01*
X0166777Y0252123D01*
X0166777Y0252123D01*
X0166954Y0252388D01*
X0167016Y0252700D01*
X0167016Y0252700D01*
Y0255600D01*
X0167016Y0255600D01*
X0166954Y0255912D01*
X0166777Y0256177D01*
X0166777Y0256177D01*
X0164677Y0258277D01*
X0164412Y0258454D01*
X0164100Y0258516D01*
X0164100Y0258516D01*
X0148138D01*
X0116577Y0290077D01*
X0116312Y0290254D01*
X0116000Y0290316D01*
X0116000Y0290316D01*
X0105000D01*
X0105000Y0290316D01*
X0104688Y0290254D01*
X0104423Y0290077D01*
X0104423Y0290077D01*
X0094462Y0280116D01*
X0089438D01*
X0085916Y0283638D01*
Y0296144D01*
X0085916Y0296144D01*
X0085854Y0296456D01*
X0085677Y0296721D01*
X0085677Y0296721D01*
X0075730Y0306668D01*
X0075744Y0306702D01*
Y0307298D01*
X0075516Y0307850D01*
X0075094Y0308272D01*
X0074542Y0308500D01*
D02*
G37*
G36*
X0218552Y0283500D02*
X0217955D01*
X0217404Y0283272D01*
X0216982Y0282850D01*
X0216754Y0282298D01*
Y0281702D01*
X0216982Y0281150D01*
X0217404Y0280728D01*
X0217955Y0280500D01*
X0218552D01*
X0219104Y0280728D01*
X0219526Y0281150D01*
X0219754Y0281702D01*
Y0282298D01*
X0219526Y0282850D01*
X0219104Y0283272D01*
X0218552Y0283500D01*
D02*
G37*
G36*
X0152798Y0281161D02*
X0152202D01*
X0151650Y0280933D01*
X0151228Y0280511D01*
X0151000Y0279960D01*
Y0279363D01*
X0151228Y0278812D01*
X0151650Y0278390D01*
X0152202Y0278161D01*
X0152798D01*
X0153350Y0278390D01*
X0153772Y0278812D01*
X0154000Y0279363D01*
Y0279960D01*
X0153772Y0280511D01*
X0153350Y0280933D01*
X0152798Y0281161D01*
D02*
G37*
G36*
X0142145Y0274000D02*
X0141548D01*
X0140997Y0273772D01*
X0140575Y0273350D01*
X0140346Y0272798D01*
Y0272202D01*
X0140575Y0271650D01*
X0140997Y0271228D01*
X0141548Y0271000D01*
X0142145D01*
X0142696Y0271228D01*
X0143118Y0271650D01*
X0143346Y0272202D01*
Y0272798D01*
X0143118Y0273350D01*
X0142696Y0273772D01*
X0142145Y0274000D01*
D02*
G37*
G36*
X0205814Y0271000D02*
X0205217D01*
X0204666Y0270772D01*
X0204244Y0270350D01*
X0204016Y0269798D01*
Y0269202D01*
X0204244Y0268650D01*
X0204666Y0268228D01*
X0205217Y0268000D01*
X0205814D01*
X0206365Y0268228D01*
X0206787Y0268650D01*
X0207016Y0269202D01*
Y0269798D01*
X0206787Y0270350D01*
X0206365Y0270772D01*
X0205814Y0271000D01*
D02*
G37*
G36*
X0172798D02*
X0172202D01*
X0171650Y0270772D01*
X0171228Y0270350D01*
X0171000Y0269798D01*
Y0269202D01*
X0171228Y0268650D01*
X0171650Y0268228D01*
X0172202Y0268000D01*
X0172798D01*
X0173350Y0268228D01*
X0173772Y0268650D01*
X0174000Y0269202D01*
Y0269798D01*
X0173772Y0270350D01*
X0173350Y0270772D01*
X0172798Y0271000D01*
D02*
G37*
G36*
X0050298Y0270500D02*
X0049702D01*
X0049150Y0270272D01*
X0048728Y0269850D01*
X0048500Y0269298D01*
Y0268702D01*
X0048728Y0268150D01*
X0049150Y0267728D01*
X0049702Y0267500D01*
X0050298D01*
X0050850Y0267728D01*
X0051272Y0268150D01*
X0051500Y0268702D01*
Y0269298D01*
X0051272Y0269850D01*
X0050850Y0270272D01*
X0050298Y0270500D01*
D02*
G37*
G36*
X0040452D02*
X0039855D01*
X0039304Y0270272D01*
X0038882Y0269850D01*
X0038653Y0269298D01*
Y0268702D01*
X0038882Y0268150D01*
X0039304Y0267728D01*
X0039855Y0267500D01*
X0040452D01*
X0041003Y0267728D01*
X0041425Y0268150D01*
X0041653Y0268702D01*
Y0269298D01*
X0041425Y0269850D01*
X0041003Y0270272D01*
X0040452Y0270500D01*
D02*
G37*
G36*
X0042145Y0267000D02*
X0041548D01*
X0040997Y0266772D01*
X0040575Y0266350D01*
X0040347Y0265798D01*
Y0265202D01*
X0040575Y0264650D01*
X0040997Y0264228D01*
X0041548Y0264000D01*
X0042145D01*
X0042696Y0264228D01*
X0043118Y0264650D01*
X0043347Y0265202D01*
Y0265798D01*
X0043118Y0266350D01*
X0042696Y0266772D01*
X0042145Y0267000D01*
D02*
G37*
G36*
X0029452Y0261000D02*
X0028855D01*
X0028304Y0260772D01*
X0027882Y0260350D01*
X0027654Y0259798D01*
Y0259202D01*
X0027882Y0258650D01*
X0028304Y0258228D01*
X0028855Y0258000D01*
X0029452D01*
X0030003Y0258228D01*
X0030425Y0258650D01*
X0030654Y0259202D01*
Y0259798D01*
X0030425Y0260350D01*
X0030003Y0260772D01*
X0029452Y0261000D01*
D02*
G37*
G36*
X0181403Y0261772D02*
X0179397D01*
X0179106Y0261714D01*
X0178860Y0261550D01*
X0176741Y0259430D01*
X0176576Y0259184D01*
X0176518Y0258893D01*
Y0256307D01*
X0176576Y0256016D01*
X0176741Y0255770D01*
X0178570Y0253941D01*
X0178816Y0253776D01*
X0179107Y0253718D01*
X0179504D01*
X0179663Y0252918D01*
X0179550Y0252872D01*
X0179128Y0252450D01*
X0178900Y0251898D01*
Y0251302D01*
X0179128Y0250750D01*
X0179550Y0250328D01*
X0180102Y0250100D01*
X0180698D01*
X0181250Y0250328D01*
X0181382Y0250461D01*
X0181900Y0250662D01*
X0182418Y0250461D01*
X0182550Y0250328D01*
X0183102Y0250100D01*
X0183698D01*
X0184250Y0250328D01*
X0184672Y0250750D01*
X0184900Y0251302D01*
Y0251898D01*
X0184672Y0252450D01*
X0184250Y0252872D01*
X0183698Y0253100D01*
X0183204D01*
Y0253971D01*
X0183146Y0254262D01*
X0182981Y0254508D01*
X0182981Y0254508D01*
X0181728Y0255761D01*
X0181700Y0255795D01*
X0181725Y0255904D01*
X0182077Y0256187D01*
X0182528Y0256322D01*
X0182561Y0256324D01*
X0183102Y0256100D01*
X0183698D01*
X0184250Y0256328D01*
X0184672Y0256750D01*
X0184900Y0257302D01*
Y0257898D01*
X0184672Y0258450D01*
X0184250Y0258872D01*
X0183698Y0259100D01*
X0183204D01*
Y0259971D01*
X0183204Y0259971D01*
X0183146Y0260262D01*
X0182981Y0260508D01*
X0182981Y0260508D01*
X0181940Y0261550D01*
X0181693Y0261714D01*
X0181403Y0261772D01*
D02*
G37*
G36*
X0135554Y0256500D02*
X0134958D01*
X0134406Y0256272D01*
X0133984Y0255850D01*
X0133756Y0255298D01*
Y0254702D01*
X0133984Y0254150D01*
X0134406Y0253728D01*
X0134958Y0253500D01*
X0135554D01*
X0136106Y0253728D01*
X0136528Y0254150D01*
X0136756Y0254702D01*
Y0255298D01*
X0136528Y0255850D01*
X0136106Y0256272D01*
X0135554Y0256500D01*
D02*
G37*
G36*
X0034452Y0252500D02*
X0033855D01*
X0033304Y0252272D01*
X0032882Y0251850D01*
X0032654Y0251298D01*
Y0250702D01*
X0032882Y0250150D01*
X0033304Y0249728D01*
X0033855Y0249500D01*
X0034452D01*
X0035003Y0249728D01*
X0035425Y0250150D01*
X0035654Y0250702D01*
Y0251298D01*
X0035425Y0251850D01*
X0035003Y0252272D01*
X0034452Y0252500D01*
D02*
G37*
G36*
X0147298Y0251153D02*
X0146702D01*
X0146150Y0250925D01*
X0145728Y0250503D01*
X0145500Y0249952D01*
Y0249355D01*
X0145728Y0248804D01*
X0146150Y0248382D01*
X0146702Y0248153D01*
X0147298D01*
X0147850Y0248382D01*
X0148272Y0248804D01*
X0148500Y0249355D01*
Y0249952D01*
X0148272Y0250503D01*
X0147850Y0250925D01*
X0147298Y0251153D01*
D02*
G37*
G36*
X0034452Y0244000D02*
X0033855D01*
X0033304Y0243772D01*
X0032882Y0243350D01*
X0032654Y0242798D01*
Y0242202D01*
X0032882Y0241650D01*
X0033304Y0241228D01*
X0033855Y0241000D01*
X0034452D01*
X0035003Y0241228D01*
X0035425Y0241650D01*
X0035654Y0242202D01*
Y0242798D01*
X0035425Y0243350D01*
X0035003Y0243772D01*
X0034452Y0244000D01*
D02*
G37*
G36*
X0113645Y0238500D02*
X0113048D01*
X0112497Y0238272D01*
X0112075Y0237850D01*
X0111846Y0237298D01*
Y0236702D01*
X0112075Y0236150D01*
X0112497Y0235728D01*
X0113048Y0235500D01*
X0113645D01*
X0114196Y0235728D01*
X0114618Y0236150D01*
X0114846Y0236702D01*
Y0237298D01*
X0114618Y0237850D01*
X0114196Y0238272D01*
X0113645Y0238500D01*
D02*
G37*
G36*
X0143500Y0233316D02*
X0143500Y0233316D01*
X0130500D01*
X0130500Y0233316D01*
X0130188Y0233254D01*
X0129923Y0233077D01*
X0127162Y0230316D01*
X0117786D01*
X0117772Y0230350D01*
X0117350Y0230772D01*
X0116798Y0231000D01*
X0116202D01*
X0115650Y0230772D01*
X0115228Y0230350D01*
X0115000Y0229798D01*
Y0229202D01*
X0115228Y0228650D01*
X0115650Y0228228D01*
X0116202Y0228000D01*
X0116798D01*
X0117350Y0228228D01*
X0117772Y0228650D01*
X0117786Y0228684D01*
X0127500D01*
X0127500Y0228684D01*
X0127812Y0228746D01*
X0128077Y0228923D01*
X0130838Y0231684D01*
X0143162D01*
X0146907Y0227939D01*
X0146601Y0227408D01*
X0146352Y0226480D01*
Y0225520D01*
X0146601Y0224592D01*
X0147081Y0223760D01*
X0147760Y0223081D01*
X0148592Y0222601D01*
X0149520Y0222352D01*
X0150480D01*
X0151408Y0222601D01*
X0152240Y0223081D01*
X0152919Y0223760D01*
X0153399Y0224592D01*
X0153648Y0225520D01*
Y0226480D01*
X0153399Y0227408D01*
X0152919Y0228240D01*
X0152240Y0228919D01*
X0151408Y0229399D01*
X0150480Y0229648D01*
X0149520D01*
X0148592Y0229399D01*
X0148061Y0229093D01*
X0144077Y0233077D01*
X0143812Y0233254D01*
X0143500Y0233316D01*
D02*
G37*
G36*
X0119298Y0235347D02*
X0118702D01*
X0118150Y0235118D01*
X0117728Y0234696D01*
X0117500Y0234145D01*
Y0233548D01*
X0117728Y0232997D01*
X0118150Y0232575D01*
X0118702Y0232347D01*
X0119298D01*
X0119850Y0232575D01*
X0120272Y0232997D01*
X0120500Y0233548D01*
Y0234145D01*
X0120272Y0234696D01*
X0119850Y0235118D01*
X0119298Y0235347D01*
D02*
G37*
G36*
X0107145Y0229000D02*
X0106548D01*
X0105997Y0228772D01*
X0105575Y0228350D01*
X0105347Y0227798D01*
Y0227202D01*
X0105575Y0226650D01*
X0105997Y0226228D01*
X0106548Y0226000D01*
X0107145D01*
X0107696Y0226228D01*
X0108118Y0226650D01*
X0108346Y0227202D01*
Y0227798D01*
X0108118Y0228350D01*
X0107696Y0228772D01*
X0107145Y0229000D01*
D02*
G37*
G36*
X0230480Y0229648D02*
X0229520D01*
X0228592Y0229399D01*
X0227760Y0228919D01*
X0227081Y0228240D01*
X0226601Y0227408D01*
X0226352Y0226480D01*
Y0225520D01*
X0226601Y0224592D01*
X0227081Y0223760D01*
X0227760Y0223081D01*
X0228592Y0222601D01*
X0229520Y0222352D01*
X0230480D01*
X0231408Y0222601D01*
X0232240Y0223081D01*
X0232919Y0223760D01*
X0233399Y0224592D01*
X0233648Y0225520D01*
Y0226480D01*
X0233399Y0227408D01*
X0232919Y0228240D01*
X0232240Y0228919D01*
X0231408Y0229399D01*
X0230480Y0229648D01*
D02*
G37*
G36*
X0223648D02*
X0216352D01*
Y0222352D01*
X0223648D01*
Y0229648D01*
D02*
G37*
G36*
X0143648D02*
X0136352D01*
Y0222616D01*
X0136352Y0222352D01*
X0135774Y0221816D01*
X0133838D01*
X0130577Y0225077D01*
X0130312Y0225254D01*
X0130000Y0225316D01*
X0130000Y0225316D01*
X0117786D01*
X0117772Y0225350D01*
X0117350Y0225772D01*
X0116798Y0226000D01*
X0116202D01*
X0115650Y0225772D01*
X0115228Y0225350D01*
X0115000Y0224798D01*
Y0224202D01*
X0115228Y0223650D01*
X0115650Y0223228D01*
X0116202Y0223000D01*
X0116798D01*
X0117350Y0223228D01*
X0117772Y0223650D01*
X0117786Y0223684D01*
X0129662D01*
X0132923Y0220423D01*
X0132923Y0220423D01*
X0133188Y0220246D01*
X0133500Y0220184D01*
X0133500Y0220184D01*
X0138430D01*
X0138592Y0219399D01*
X0137760Y0218919D01*
X0137081Y0218240D01*
X0136601Y0217408D01*
X0136352Y0216480D01*
Y0215520D01*
X0136601Y0214592D01*
X0137081Y0213760D01*
X0137760Y0213081D01*
X0138592Y0212601D01*
X0138430Y0211816D01*
X0125338D01*
X0117986Y0219168D01*
X0118000Y0219202D01*
Y0219798D01*
X0117772Y0220350D01*
X0117350Y0220772D01*
X0116798Y0221000D01*
X0116202D01*
X0115650Y0220772D01*
X0115228Y0220350D01*
X0115000Y0219798D01*
Y0219202D01*
X0115228Y0218650D01*
X0115650Y0218228D01*
X0116202Y0218000D01*
X0116798D01*
X0116832Y0218014D01*
X0120731Y0214116D01*
X0120399Y0213316D01*
X0099786D01*
X0099772Y0213350D01*
X0099350Y0213772D01*
X0098798Y0214000D01*
X0098202D01*
X0097650Y0213772D01*
X0097228Y0213350D01*
X0097000Y0212798D01*
Y0212202D01*
X0097169Y0211794D01*
X0096876Y0211195D01*
X0096747Y0211029D01*
X0096193Y0210961D01*
X0094986Y0212168D01*
X0095000Y0212202D01*
Y0212798D01*
X0094772Y0213350D01*
X0094350Y0213772D01*
X0093798Y0214000D01*
X0093202D01*
X0092650Y0213772D01*
X0092228Y0213350D01*
X0092000Y0212798D01*
Y0212202D01*
X0092228Y0211650D01*
X0092650Y0211228D01*
X0093202Y0211000D01*
X0093798D01*
X0093832Y0211014D01*
X0094731Y0210116D01*
X0094399Y0209316D01*
X0092838D01*
X0089986Y0212168D01*
X0090000Y0212202D01*
Y0212798D01*
X0089772Y0213350D01*
X0089350Y0213772D01*
X0088798Y0214000D01*
X0088202D01*
X0087650Y0213772D01*
X0087228Y0213350D01*
X0087000Y0212798D01*
Y0212202D01*
X0087228Y0211650D01*
X0087650Y0211228D01*
X0088202Y0211000D01*
X0088798D01*
X0088832Y0211014D01*
X0091231Y0208616D01*
X0090899Y0207816D01*
X0089338D01*
X0084986Y0212168D01*
X0085000Y0212202D01*
Y0212798D01*
X0084772Y0213350D01*
X0084350Y0213772D01*
X0083798Y0214000D01*
X0083202D01*
X0082650Y0213772D01*
X0082228Y0213350D01*
X0082000Y0212798D01*
Y0212202D01*
X0082228Y0211650D01*
X0082650Y0211228D01*
X0083202Y0211000D01*
X0083798D01*
X0083832Y0211014D01*
X0087731Y0207116D01*
X0087399Y0206316D01*
X0085838D01*
X0079986Y0212168D01*
X0080000Y0212202D01*
Y0212798D01*
X0079772Y0213350D01*
X0079350Y0213772D01*
X0078798Y0214000D01*
X0078202D01*
X0077650Y0213772D01*
X0077228Y0213350D01*
X0077000Y0212798D01*
Y0212202D01*
X0077228Y0211650D01*
X0077650Y0211228D01*
X0078202Y0211000D01*
X0078798D01*
X0078832Y0211014D01*
X0084231Y0205616D01*
X0083899Y0204816D01*
X0082338D01*
X0074986Y0212168D01*
X0075000Y0212202D01*
Y0212798D01*
X0074772Y0213350D01*
X0074350Y0213772D01*
X0073798Y0214000D01*
X0073202D01*
X0072650Y0213772D01*
X0072228Y0213350D01*
X0072000Y0212798D01*
Y0212202D01*
X0072228Y0211650D01*
X0072650Y0211228D01*
X0073202Y0211000D01*
X0073798D01*
X0073832Y0211014D01*
X0080731Y0204116D01*
X0080399Y0203316D01*
X0076838D01*
X0069316Y0210838D01*
Y0216714D01*
X0069350Y0216728D01*
X0069772Y0217150D01*
X0070000Y0217702D01*
Y0218298D01*
X0069772Y0218850D01*
X0069350Y0219272D01*
X0068798Y0219500D01*
X0068202D01*
X0067650Y0219272D01*
X0067228Y0218850D01*
X0067000Y0218298D01*
Y0217702D01*
X0067228Y0217150D01*
X0067650Y0216728D01*
X0067684Y0216714D01*
Y0210500D01*
X0067684Y0210500D01*
X0067746Y0210188D01*
X0067923Y0209923D01*
X0075923Y0201923D01*
X0075923Y0201923D01*
X0076188Y0201746D01*
X0076500Y0201684D01*
X0076500Y0201684D01*
X0117184D01*
Y0167500D01*
X0117184Y0167500D01*
X0117246Y0167188D01*
X0117423Y0166923D01*
X0131684Y0152662D01*
Y0137775D01*
X0131684Y0137775D01*
X0131746Y0137463D01*
X0131923Y0137198D01*
X0138698Y0130423D01*
X0138698Y0130423D01*
X0138877Y0130304D01*
X0138909Y0129953D01*
X0138817Y0129460D01*
X0138592Y0129399D01*
X0138061Y0129093D01*
X0137077Y0130077D01*
X0136812Y0130254D01*
X0136500Y0130316D01*
X0136500Y0130316D01*
X0126999D01*
X0087407Y0169908D01*
X0087421Y0169942D01*
Y0170538D01*
X0087193Y0171090D01*
X0086771Y0171512D01*
X0086220Y0171740D01*
X0085623D01*
X0085072Y0171512D01*
X0084650Y0171090D01*
X0084421Y0170538D01*
Y0169942D01*
X0084650Y0169390D01*
X0085072Y0168968D01*
X0085623Y0168740D01*
X0086220D01*
X0086254Y0168754D01*
X0126085Y0128923D01*
X0126349Y0128746D01*
X0126661Y0128684D01*
X0126661Y0128684D01*
X0127586D01*
X0127917Y0127884D01*
X0127728Y0127696D01*
X0127500Y0127145D01*
Y0126548D01*
X0127728Y0125997D01*
X0128150Y0125575D01*
X0128702Y0125346D01*
X0129298D01*
X0129850Y0125575D01*
X0130272Y0125997D01*
X0130500Y0126548D01*
Y0127145D01*
X0130272Y0127696D01*
X0130083Y0127884D01*
X0130414Y0128684D01*
X0136162D01*
X0136907Y0127939D01*
X0136601Y0127408D01*
X0136352Y0126480D01*
Y0125520D01*
X0136601Y0124592D01*
X0137081Y0123760D01*
X0137760Y0123081D01*
X0138592Y0122601D01*
X0139520Y0122352D01*
X0140480D01*
X0141408Y0122601D01*
X0142240Y0123081D01*
X0142919Y0123760D01*
X0143399Y0124592D01*
X0143648Y0125520D01*
Y0126480D01*
X0143399Y0127408D01*
X0142919Y0128240D01*
X0142240Y0128919D01*
X0141408Y0129399D01*
X0141570Y0130184D01*
X0144662D01*
X0146907Y0127939D01*
X0146601Y0127408D01*
X0146352Y0126480D01*
Y0125520D01*
X0146601Y0124592D01*
X0147081Y0123760D01*
X0147760Y0123081D01*
X0148592Y0122601D01*
X0149520Y0122352D01*
X0150480D01*
X0151408Y0122601D01*
X0152240Y0123081D01*
X0152919Y0123760D01*
X0153399Y0124592D01*
X0153648Y0125520D01*
Y0126480D01*
X0153399Y0127408D01*
X0152919Y0128240D01*
X0152240Y0128919D01*
X0151408Y0129399D01*
X0150480Y0129648D01*
X0149520D01*
X0148592Y0129399D01*
X0148061Y0129093D01*
X0145577Y0131577D01*
X0145312Y0131754D01*
X0145000Y0131816D01*
X0145000Y0131816D01*
X0141570D01*
X0141408Y0132601D01*
X0142240Y0133081D01*
X0142919Y0133760D01*
X0143399Y0134592D01*
X0143648Y0135520D01*
Y0136480D01*
X0143399Y0137408D01*
X0142919Y0138240D01*
X0142240Y0138919D01*
X0141408Y0139399D01*
X0141570Y0140184D01*
X0144662D01*
X0146907Y0137939D01*
X0146601Y0137408D01*
X0146352Y0136480D01*
Y0135520D01*
X0146601Y0134592D01*
X0147081Y0133760D01*
X0147760Y0133081D01*
X0148592Y0132601D01*
X0149520Y0132352D01*
X0150480D01*
X0151408Y0132601D01*
X0152240Y0133081D01*
X0152919Y0133760D01*
X0153399Y0134592D01*
X0153648Y0135520D01*
Y0136480D01*
X0153399Y0137408D01*
X0152919Y0138240D01*
X0152240Y0138919D01*
X0151408Y0139399D01*
X0150480Y0139648D01*
X0149520D01*
X0148592Y0139399D01*
X0148061Y0139093D01*
X0145577Y0141577D01*
X0145312Y0141754D01*
X0145000Y0141816D01*
X0145000Y0141816D01*
X0141570D01*
X0141408Y0142601D01*
X0142240Y0143081D01*
X0142919Y0143760D01*
X0143399Y0144592D01*
X0143648Y0145520D01*
Y0146480D01*
X0143399Y0147408D01*
X0142919Y0148240D01*
X0142240Y0148919D01*
X0141408Y0149399D01*
X0141570Y0150184D01*
X0144662D01*
X0146907Y0147939D01*
X0146601Y0147408D01*
X0146352Y0146480D01*
Y0145520D01*
X0146601Y0144592D01*
X0147081Y0143760D01*
X0147760Y0143081D01*
X0148592Y0142601D01*
X0149520Y0142352D01*
X0150480D01*
X0151408Y0142601D01*
X0152240Y0143081D01*
X0152919Y0143760D01*
X0153399Y0144592D01*
X0153648Y0145520D01*
Y0146480D01*
X0153399Y0147408D01*
X0152919Y0148240D01*
X0152240Y0148919D01*
X0151408Y0149399D01*
X0150480Y0149648D01*
X0149520D01*
X0148592Y0149399D01*
X0148061Y0149093D01*
X0145577Y0151577D01*
X0145312Y0151754D01*
X0145000Y0151816D01*
X0145000Y0151816D01*
X0141570D01*
X0141408Y0152601D01*
X0142240Y0153081D01*
X0142919Y0153760D01*
X0143399Y0154592D01*
X0143648Y0155520D01*
Y0156480D01*
X0143399Y0157408D01*
X0142919Y0158240D01*
X0142240Y0158919D01*
X0141408Y0159399D01*
X0141570Y0160184D01*
X0144662D01*
X0146907Y0157939D01*
X0146601Y0157408D01*
X0146352Y0156480D01*
Y0155520D01*
X0146601Y0154592D01*
X0147081Y0153760D01*
X0147760Y0153081D01*
X0148592Y0152601D01*
X0149520Y0152352D01*
X0150480D01*
X0151408Y0152601D01*
X0152240Y0153081D01*
X0152919Y0153760D01*
X0153399Y0154592D01*
X0153648Y0155520D01*
Y0156480D01*
X0153399Y0157408D01*
X0152919Y0158240D01*
X0152240Y0158919D01*
X0151408Y0159399D01*
X0150480Y0159648D01*
X0149520D01*
X0148592Y0159399D01*
X0148061Y0159093D01*
X0145577Y0161577D01*
X0145312Y0161754D01*
X0145000Y0161816D01*
X0145000Y0161816D01*
X0141570D01*
X0141408Y0162601D01*
X0142240Y0163081D01*
X0142919Y0163760D01*
X0143399Y0164592D01*
X0143648Y0165520D01*
Y0166480D01*
X0143399Y0167408D01*
X0142919Y0168240D01*
X0142240Y0168919D01*
X0141408Y0169399D01*
X0140480Y0169648D01*
X0139520D01*
X0138592Y0169399D01*
X0137760Y0168919D01*
X0137081Y0168240D01*
X0136601Y0167408D01*
X0136352Y0166480D01*
Y0165520D01*
X0136384Y0165401D01*
X0135667Y0164987D01*
X0132954Y0167700D01*
X0133285Y0168500D01*
X0133298D01*
X0133850Y0168728D01*
X0134272Y0169150D01*
X0134500Y0169702D01*
Y0170298D01*
X0134272Y0170850D01*
X0133850Y0171272D01*
X0133816Y0171286D01*
Y0180714D01*
X0133850Y0180728D01*
X0134272Y0181150D01*
X0134500Y0181702D01*
Y0182298D01*
X0134272Y0182850D01*
X0133850Y0183272D01*
X0133298Y0183500D01*
X0132702D01*
X0132150Y0183272D01*
X0131916Y0183037D01*
X0131116Y0183302D01*
Y0196599D01*
X0131916Y0196931D01*
X0133184Y0195662D01*
Y0185500D01*
X0133184Y0185500D01*
X0133246Y0185188D01*
X0133423Y0184923D01*
X0137923Y0180423D01*
X0138188Y0180246D01*
X0138500Y0180184D01*
X0138500Y0180183D01*
X0138592Y0179399D01*
X0137760Y0178919D01*
X0137081Y0178240D01*
X0136601Y0177408D01*
X0136352Y0176480D01*
Y0175520D01*
X0136601Y0174592D01*
X0137081Y0173760D01*
X0137760Y0173081D01*
X0138592Y0172601D01*
X0139520Y0172352D01*
X0140480D01*
X0141408Y0172601D01*
X0142240Y0173081D01*
X0142919Y0173760D01*
X0143399Y0174592D01*
X0144184Y0174430D01*
Y0171000D01*
X0144184Y0171000D01*
X0144246Y0170688D01*
X0144423Y0170423D01*
X0146907Y0167939D01*
X0146601Y0167408D01*
X0146352Y0166480D01*
Y0165520D01*
X0146601Y0164592D01*
X0147081Y0163760D01*
X0147760Y0163081D01*
X0148592Y0162601D01*
X0149520Y0162352D01*
X0150480D01*
X0151408Y0162601D01*
X0152240Y0163081D01*
X0152919Y0163760D01*
X0153399Y0164592D01*
X0153648Y0165520D01*
Y0166480D01*
X0153399Y0167408D01*
X0152919Y0168240D01*
X0152240Y0168919D01*
X0151408Y0169399D01*
X0150480Y0169648D01*
X0149520D01*
X0148592Y0169399D01*
X0148061Y0169093D01*
X0145816Y0171338D01*
Y0174430D01*
X0146601Y0174592D01*
X0147081Y0173760D01*
X0147760Y0173081D01*
X0148592Y0172601D01*
X0149520Y0172352D01*
X0150480D01*
X0151408Y0172601D01*
X0152240Y0173081D01*
X0152919Y0173760D01*
X0153399Y0174592D01*
X0153648Y0175520D01*
Y0176480D01*
X0153399Y0177408D01*
X0152919Y0178240D01*
X0152240Y0178919D01*
X0151408Y0179399D01*
X0150480Y0179648D01*
X0149520D01*
X0148592Y0179399D01*
X0147760Y0178919D01*
X0147081Y0178240D01*
X0146601Y0177408D01*
X0145816Y0177570D01*
Y0179000D01*
X0145754Y0179312D01*
X0145577Y0179577D01*
X0145577Y0179577D01*
X0143577Y0181577D01*
X0143312Y0181754D01*
X0143000Y0181816D01*
X0143000Y0181816D01*
X0141570D01*
X0141408Y0182601D01*
X0142240Y0183081D01*
X0142919Y0183760D01*
X0143399Y0184592D01*
X0143648Y0185520D01*
Y0186480D01*
X0143399Y0187408D01*
X0142919Y0188240D01*
X0142240Y0188919D01*
X0141408Y0189399D01*
X0141570Y0190184D01*
X0144662D01*
X0146907Y0187939D01*
X0146601Y0187408D01*
X0146352Y0186480D01*
Y0185520D01*
X0146601Y0184592D01*
X0147081Y0183760D01*
X0147760Y0183081D01*
X0148592Y0182601D01*
X0149520Y0182352D01*
X0150480D01*
X0151408Y0182601D01*
X0152240Y0183081D01*
X0152919Y0183760D01*
X0153399Y0184592D01*
X0153648Y0185520D01*
Y0186480D01*
X0153399Y0187408D01*
X0152919Y0188240D01*
X0152240Y0188919D01*
X0151408Y0189399D01*
X0150480Y0189648D01*
X0149520D01*
X0148592Y0189399D01*
X0148061Y0189093D01*
X0145577Y0191577D01*
X0145312Y0191754D01*
X0145000Y0191816D01*
X0145000Y0191816D01*
X0141570D01*
X0141408Y0192601D01*
X0142240Y0193081D01*
X0142919Y0193760D01*
X0143399Y0194592D01*
X0143648Y0195520D01*
Y0196480D01*
X0143399Y0197408D01*
X0142919Y0198240D01*
X0142240Y0198919D01*
X0141408Y0199399D01*
X0141570Y0200184D01*
X0144662D01*
X0146907Y0197939D01*
X0146601Y0197408D01*
X0146352Y0196480D01*
Y0195520D01*
X0146601Y0194592D01*
X0147081Y0193760D01*
X0147760Y0193081D01*
X0148592Y0192601D01*
X0149520Y0192352D01*
X0150480D01*
X0151408Y0192601D01*
X0152240Y0193081D01*
X0152919Y0193760D01*
X0153399Y0194592D01*
X0153648Y0195520D01*
Y0196480D01*
X0153399Y0197408D01*
X0152919Y0198240D01*
X0152240Y0198919D01*
X0151408Y0199399D01*
X0150480Y0199648D01*
X0149520D01*
X0148592Y0199399D01*
X0148061Y0199093D01*
X0145577Y0201577D01*
X0145312Y0201754D01*
X0145000Y0201816D01*
X0145000Y0201816D01*
X0141570D01*
X0141408Y0202601D01*
X0142240Y0203081D01*
X0142919Y0203760D01*
X0143399Y0204592D01*
X0143648Y0205520D01*
Y0206480D01*
X0143399Y0207408D01*
X0142919Y0208240D01*
X0142240Y0208919D01*
X0141408Y0209399D01*
X0141570Y0210184D01*
X0144662D01*
X0146907Y0207939D01*
X0146601Y0207408D01*
X0146352Y0206480D01*
Y0205520D01*
X0146601Y0204592D01*
X0147081Y0203760D01*
X0147760Y0203081D01*
X0148592Y0202601D01*
X0149520Y0202352D01*
X0150480D01*
X0151408Y0202601D01*
X0152240Y0203081D01*
X0152919Y0203760D01*
X0153399Y0204592D01*
X0153648Y0205520D01*
Y0206480D01*
X0153399Y0207408D01*
X0152919Y0208240D01*
X0152240Y0208919D01*
X0151408Y0209399D01*
X0150480Y0209648D01*
X0149520D01*
X0148592Y0209399D01*
X0148061Y0209093D01*
X0145577Y0211577D01*
X0145312Y0211754D01*
X0145000Y0211816D01*
X0145000Y0211816D01*
X0141570D01*
X0141408Y0212601D01*
X0142240Y0213081D01*
X0142919Y0213760D01*
X0143399Y0214592D01*
X0143648Y0215520D01*
Y0216480D01*
X0143399Y0217408D01*
X0142919Y0218240D01*
X0142240Y0218919D01*
X0141408Y0219399D01*
X0141570Y0220184D01*
X0144662D01*
X0146907Y0217939D01*
X0146601Y0217408D01*
X0146352Y0216480D01*
Y0215520D01*
X0146601Y0214592D01*
X0147081Y0213760D01*
X0147760Y0213081D01*
X0148592Y0212601D01*
X0149520Y0212352D01*
X0150480D01*
X0151408Y0212601D01*
X0152240Y0213081D01*
X0152919Y0213760D01*
X0153399Y0214592D01*
X0153648Y0215520D01*
Y0216480D01*
X0153399Y0217408D01*
X0152919Y0218240D01*
X0152240Y0218919D01*
X0151408Y0219399D01*
X0150480Y0219648D01*
X0149520D01*
X0148592Y0219399D01*
X0148061Y0219093D01*
X0145577Y0221577D01*
X0145312Y0221754D01*
X0145000Y0221816D01*
X0145000Y0221816D01*
X0144226D01*
X0143648Y0222352D01*
X0143648Y0222616D01*
Y0229648D01*
D02*
G37*
G36*
X0052298Y0231347D02*
X0051702D01*
X0051150Y0231118D01*
X0050728Y0230696D01*
X0050500Y0230145D01*
Y0229548D01*
X0050728Y0228997D01*
X0051150Y0228575D01*
X0051702Y0228346D01*
X0052298D01*
X0052332Y0228361D01*
X0059770Y0220923D01*
X0060034Y0220746D01*
X0060347Y0220684D01*
X0060347Y0220684D01*
X0092868D01*
X0092882Y0220650D01*
X0093304Y0220228D01*
X0093855Y0220000D01*
X0094452D01*
X0095003Y0220228D01*
X0095425Y0220650D01*
X0095653Y0221202D01*
Y0221798D01*
X0095425Y0222350D01*
X0095003Y0222772D01*
X0094452Y0223000D01*
X0093855D01*
X0093304Y0222772D01*
X0092882Y0222350D01*
X0092868Y0222316D01*
X0060684D01*
X0053486Y0229514D01*
X0053500Y0229548D01*
Y0230145D01*
X0053272Y0230696D01*
X0052850Y0231118D01*
X0052298Y0231347D01*
D02*
G37*
G36*
X0125298Y0222654D02*
X0124702D01*
X0124150Y0222425D01*
X0123728Y0222003D01*
X0123500Y0221452D01*
Y0220855D01*
X0123728Y0220304D01*
X0124150Y0219882D01*
X0124702Y0219654D01*
X0125298D01*
X0125850Y0219882D01*
X0126272Y0220304D01*
X0126500Y0220855D01*
Y0221452D01*
X0126272Y0222003D01*
X0125850Y0222425D01*
X0125298Y0222654D01*
D02*
G37*
G36*
X0058298Y0218653D02*
X0057702D01*
X0057150Y0218425D01*
X0056728Y0218003D01*
X0056500Y0217452D01*
Y0216855D01*
X0056728Y0216304D01*
X0057150Y0215882D01*
X0057702Y0215653D01*
X0058298D01*
X0058850Y0215882D01*
X0059272Y0216304D01*
X0059500Y0216855D01*
Y0217452D01*
X0059272Y0218003D01*
X0058850Y0218425D01*
X0058298Y0218653D01*
D02*
G37*
G36*
X0084998Y0217800D02*
X0084402D01*
X0083850Y0217572D01*
X0083428Y0217150D01*
X0083200Y0216598D01*
Y0216002D01*
X0083428Y0215450D01*
X0083850Y0215028D01*
X0084402Y0214800D01*
X0084998D01*
X0085550Y0215028D01*
X0085972Y0215450D01*
X0086200Y0216002D01*
Y0216598D01*
X0085972Y0217150D01*
X0085550Y0217572D01*
X0084998Y0217800D01*
D02*
G37*
G36*
X0230480Y0219648D02*
X0229520D01*
X0228592Y0219399D01*
X0227760Y0218919D01*
X0227081Y0218240D01*
X0226601Y0217408D01*
X0226352Y0216480D01*
Y0215520D01*
X0226601Y0214592D01*
X0227081Y0213760D01*
X0227760Y0213081D01*
X0228592Y0212601D01*
X0229520Y0212352D01*
X0230480D01*
X0231408Y0212601D01*
X0232240Y0213081D01*
X0232919Y0213760D01*
X0233399Y0214592D01*
X0233648Y0215520D01*
Y0216480D01*
X0233399Y0217408D01*
X0232919Y0218240D01*
X0232240Y0218919D01*
X0231408Y0219399D01*
X0230480Y0219648D01*
D02*
G37*
G36*
X0220480D02*
X0219520D01*
X0218592Y0219399D01*
X0217760Y0218919D01*
X0217081Y0218240D01*
X0216601Y0217408D01*
X0216352Y0216480D01*
Y0215520D01*
X0216601Y0214592D01*
X0217081Y0213760D01*
X0217760Y0213081D01*
X0218592Y0212601D01*
X0219520Y0212352D01*
X0220480D01*
X0221408Y0212601D01*
X0222240Y0213081D01*
X0222919Y0213760D01*
X0223399Y0214592D01*
X0223648Y0215520D01*
Y0216480D01*
X0223399Y0217408D01*
X0222919Y0218240D01*
X0222240Y0218919D01*
X0221408Y0219399D01*
X0220480Y0219648D01*
D02*
G37*
G36*
X0188298Y0216000D02*
X0187702D01*
X0187150Y0215772D01*
X0186728Y0215350D01*
X0186500Y0214798D01*
Y0214202D01*
X0186728Y0213650D01*
X0186861Y0213518D01*
X0187062Y0213000D01*
X0186861Y0212482D01*
X0186728Y0212350D01*
X0186500Y0211798D01*
Y0211202D01*
X0186728Y0210650D01*
X0186861Y0210518D01*
X0187062Y0210000D01*
X0186861Y0209482D01*
X0186728Y0209350D01*
X0186500Y0208798D01*
Y0208202D01*
X0186728Y0207650D01*
X0186861Y0207518D01*
X0187062Y0207000D01*
X0186861Y0206482D01*
X0186728Y0206350D01*
X0186500Y0205798D01*
Y0205202D01*
X0186728Y0204650D01*
X0187150Y0204228D01*
X0187702Y0204000D01*
X0188298D01*
X0188850Y0204228D01*
X0189272Y0204650D01*
X0189500Y0205202D01*
Y0205798D01*
X0189272Y0206350D01*
X0189139Y0206482D01*
X0188938Y0207000D01*
X0189139Y0207518D01*
X0189272Y0207650D01*
X0189500Y0208202D01*
Y0208798D01*
X0189272Y0209350D01*
X0189139Y0209482D01*
X0188938Y0210000D01*
X0189139Y0210518D01*
X0189272Y0210650D01*
X0189500Y0211202D01*
Y0211798D01*
X0189272Y0212350D01*
X0189139Y0212482D01*
X0188938Y0213000D01*
X0189139Y0213518D01*
X0189272Y0213650D01*
X0189500Y0214202D01*
Y0214798D01*
X0189272Y0215350D01*
X0188850Y0215772D01*
X0188298Y0216000D01*
D02*
G37*
G36*
X0230480Y0209648D02*
X0229520D01*
X0228592Y0209399D01*
X0227760Y0208919D01*
X0227081Y0208240D01*
X0226601Y0207408D01*
X0226352Y0206480D01*
Y0205520D01*
X0226601Y0204592D01*
X0227081Y0203760D01*
X0227760Y0203081D01*
X0228592Y0202601D01*
X0229520Y0202352D01*
X0230480D01*
X0231408Y0202601D01*
X0232240Y0203081D01*
X0232919Y0203760D01*
X0233399Y0204592D01*
X0233648Y0205520D01*
Y0206480D01*
X0233399Y0207408D01*
X0232919Y0208240D01*
X0232240Y0208919D01*
X0231408Y0209399D01*
X0230480Y0209648D01*
D02*
G37*
G36*
X0220480D02*
X0219520D01*
X0218592Y0209399D01*
X0217760Y0208919D01*
X0217081Y0208240D01*
X0216601Y0207408D01*
X0216352Y0206480D01*
Y0205520D01*
X0216601Y0204592D01*
X0217081Y0203760D01*
X0217760Y0203081D01*
X0218592Y0202601D01*
X0219520Y0202352D01*
X0220480D01*
X0221408Y0202601D01*
X0222240Y0203081D01*
X0222919Y0203760D01*
X0223399Y0204592D01*
X0223648Y0205520D01*
Y0206480D01*
X0223399Y0207408D01*
X0222919Y0208240D01*
X0222240Y0208919D01*
X0221408Y0209399D01*
X0220480Y0209648D01*
D02*
G37*
G36*
X0032645Y0201500D02*
X0032048D01*
X0031497Y0201272D01*
X0031075Y0200850D01*
X0030846Y0200298D01*
Y0199702D01*
X0031075Y0199150D01*
X0031497Y0198728D01*
X0032048Y0198500D01*
X0032645D01*
X0033196Y0198728D01*
X0033618Y0199150D01*
X0033846Y0199702D01*
Y0200298D01*
X0033618Y0200850D01*
X0033196Y0201272D01*
X0032645Y0201500D01*
D02*
G37*
G36*
X0230480Y0199648D02*
X0229520D01*
X0228592Y0199399D01*
X0227760Y0198919D01*
X0227081Y0198240D01*
X0226601Y0197408D01*
X0226352Y0196480D01*
Y0195520D01*
X0226601Y0194592D01*
X0227081Y0193760D01*
X0227760Y0193081D01*
X0228592Y0192601D01*
X0229520Y0192352D01*
X0230480D01*
X0231408Y0192601D01*
X0232240Y0193081D01*
X0232919Y0193760D01*
X0233399Y0194592D01*
X0233648Y0195520D01*
Y0196480D01*
X0233399Y0197408D01*
X0232919Y0198240D01*
X0232240Y0198919D01*
X0231408Y0199399D01*
X0230480Y0199648D01*
D02*
G37*
G36*
X0220480D02*
X0219520D01*
X0218592Y0199399D01*
X0217760Y0198919D01*
X0217081Y0198240D01*
X0216601Y0197408D01*
X0216352Y0196480D01*
Y0195520D01*
X0216601Y0194592D01*
X0217081Y0193760D01*
X0217760Y0193081D01*
X0218592Y0192601D01*
X0219520Y0192352D01*
X0220480D01*
X0221408Y0192601D01*
X0222240Y0193081D01*
X0222919Y0193760D01*
X0223399Y0194592D01*
X0223648Y0195520D01*
Y0196480D01*
X0223399Y0197408D01*
X0222919Y0198240D01*
X0222240Y0198919D01*
X0221408Y0199399D01*
X0220480Y0199648D01*
D02*
G37*
G36*
X0165298Y0192346D02*
X0164702D01*
X0164150Y0192118D01*
X0163728Y0191696D01*
X0163500Y0191145D01*
Y0190548D01*
X0163728Y0189997D01*
X0164150Y0189575D01*
X0164702Y0189346D01*
X0165298D01*
X0165850Y0189575D01*
X0166272Y0189997D01*
X0166500Y0190548D01*
Y0191145D01*
X0166272Y0191696D01*
X0165850Y0192118D01*
X0165298Y0192346D01*
D02*
G37*
G36*
X0053562Y0191575D02*
X0052965D01*
X0052414Y0191346D01*
X0051992Y0190924D01*
X0051764Y0190373D01*
Y0189776D01*
X0051992Y0189225D01*
X0052414Y0188803D01*
X0052965Y0188575D01*
X0053562D01*
X0054114Y0188803D01*
X0054535Y0189225D01*
X0054764Y0189776D01*
Y0190373D01*
X0054535Y0190924D01*
X0054114Y0191346D01*
X0053562Y0191575D01*
D02*
G37*
G36*
X0070877Y0189740D02*
X0070280D01*
X0069729Y0189512D01*
X0069307Y0189090D01*
X0069079Y0188539D01*
Y0187942D01*
X0069307Y0187390D01*
X0069729Y0186969D01*
X0070280Y0186740D01*
X0070877D01*
X0071429Y0186969D01*
X0071850Y0187390D01*
X0072079Y0187942D01*
Y0188539D01*
X0071850Y0189090D01*
X0071429Y0189512D01*
X0070877Y0189740D01*
D02*
G37*
G36*
X0230480Y0189648D02*
X0229520D01*
X0228592Y0189399D01*
X0227760Y0188919D01*
X0227081Y0188240D01*
X0226601Y0187408D01*
X0226352Y0186480D01*
Y0185520D01*
X0226601Y0184592D01*
X0227081Y0183760D01*
X0227760Y0183081D01*
X0228592Y0182601D01*
X0229520Y0182352D01*
X0230480D01*
X0231408Y0182601D01*
X0232240Y0183081D01*
X0232919Y0183760D01*
X0233399Y0184592D01*
X0233648Y0185520D01*
Y0186480D01*
X0233399Y0187408D01*
X0232919Y0188240D01*
X0232240Y0188919D01*
X0231408Y0189399D01*
X0230480Y0189648D01*
D02*
G37*
G36*
X0220480D02*
X0219520D01*
X0218592Y0189399D01*
X0217760Y0188919D01*
X0217081Y0188240D01*
X0216601Y0187408D01*
X0216352Y0186480D01*
Y0185520D01*
X0216601Y0184592D01*
X0217081Y0183760D01*
X0217760Y0183081D01*
X0218592Y0182601D01*
X0219520Y0182352D01*
X0220480D01*
X0221408Y0182601D01*
X0222240Y0183081D01*
X0222919Y0183760D01*
X0223399Y0184592D01*
X0223648Y0185520D01*
Y0186480D01*
X0223399Y0187408D01*
X0222919Y0188240D01*
X0222240Y0188919D01*
X0221408Y0189399D01*
X0220480Y0189648D01*
D02*
G37*
G36*
X0108798Y0184846D02*
X0108202D01*
X0107650Y0184618D01*
X0107228Y0184196D01*
X0107000Y0183645D01*
Y0183048D01*
X0107228Y0182497D01*
X0107650Y0182075D01*
X0108202Y0181846D01*
X0108798D01*
X0109350Y0182075D01*
X0109772Y0182497D01*
X0110000Y0183048D01*
Y0183645D01*
X0109772Y0184196D01*
X0109350Y0184618D01*
X0108798Y0184846D01*
D02*
G37*
G36*
X0230480Y0179648D02*
X0229520D01*
X0228592Y0179399D01*
X0227760Y0178919D01*
X0227081Y0178240D01*
X0226601Y0177408D01*
X0226352Y0176480D01*
Y0175520D01*
X0226601Y0174592D01*
X0227081Y0173760D01*
X0227760Y0173081D01*
X0228592Y0172601D01*
X0229520Y0172352D01*
X0230480D01*
X0231408Y0172601D01*
X0232240Y0173081D01*
X0232919Y0173760D01*
X0233399Y0174592D01*
X0233648Y0175520D01*
Y0176480D01*
X0233399Y0177408D01*
X0232919Y0178240D01*
X0232240Y0178919D01*
X0231408Y0179399D01*
X0230480Y0179648D01*
D02*
G37*
G36*
X0220480D02*
X0219520D01*
X0218592Y0179399D01*
X0217760Y0178919D01*
X0217081Y0178240D01*
X0216601Y0177408D01*
X0216352Y0176480D01*
Y0175520D01*
X0216601Y0174592D01*
X0217081Y0173760D01*
X0217760Y0173081D01*
X0218592Y0172601D01*
X0219520Y0172352D01*
X0220480D01*
X0221408Y0172601D01*
X0222240Y0173081D01*
X0222919Y0173760D01*
X0223399Y0174592D01*
X0223648Y0175520D01*
Y0176480D01*
X0223399Y0177408D01*
X0222919Y0178240D01*
X0222240Y0178919D01*
X0221408Y0179399D01*
X0220480Y0179648D01*
D02*
G37*
G36*
X0057326Y0167325D02*
X0056729D01*
X0056178Y0167096D01*
X0055756Y0166674D01*
X0055528Y0166123D01*
Y0165526D01*
X0055756Y0164975D01*
X0056178Y0164553D01*
X0056729Y0164325D01*
X0057326D01*
X0057877Y0164553D01*
X0058299Y0164975D01*
X0058528Y0165526D01*
Y0166123D01*
X0058299Y0166674D01*
X0057877Y0167096D01*
X0057326Y0167325D01*
D02*
G37*
G36*
X0070377Y0165740D02*
X0069780D01*
X0069229Y0165512D01*
X0068807Y0165090D01*
X0068579Y0164539D01*
Y0163942D01*
X0068807Y0163391D01*
X0069229Y0162969D01*
X0069780Y0162740D01*
X0070377D01*
X0070929Y0162969D01*
X0071350Y0163391D01*
X0071579Y0163942D01*
Y0164539D01*
X0071350Y0165090D01*
X0070929Y0165512D01*
X0070377Y0165740D01*
D02*
G37*
G36*
X0230480Y0169648D02*
X0229520D01*
X0228592Y0169399D01*
X0227760Y0168919D01*
X0227081Y0168240D01*
X0226601Y0167408D01*
X0226352Y0166480D01*
Y0165520D01*
X0226601Y0164592D01*
X0227081Y0163760D01*
X0227760Y0163081D01*
X0228592Y0162601D01*
X0229520Y0162352D01*
X0230480D01*
X0231408Y0162601D01*
X0232240Y0163081D01*
X0232919Y0163760D01*
X0233399Y0164592D01*
X0233648Y0165520D01*
Y0166480D01*
X0233399Y0167408D01*
X0232919Y0168240D01*
X0232240Y0168919D01*
X0231408Y0169399D01*
X0230480Y0169648D01*
D02*
G37*
G36*
X0220480D02*
X0219520D01*
X0218592Y0169399D01*
X0217760Y0168919D01*
X0217081Y0168240D01*
X0216601Y0167408D01*
X0216352Y0166480D01*
Y0165520D01*
X0216601Y0164592D01*
X0217081Y0163760D01*
X0217760Y0163081D01*
X0218592Y0162601D01*
X0219520Y0162352D01*
X0220480D01*
X0221408Y0162601D01*
X0222240Y0163081D01*
X0222919Y0163760D01*
X0223399Y0164592D01*
X0223648Y0165520D01*
Y0166480D01*
X0223399Y0167408D01*
X0222919Y0168240D01*
X0222240Y0168919D01*
X0221408Y0169399D01*
X0220480Y0169648D01*
D02*
G37*
G36*
X0108298Y0160846D02*
X0107702D01*
X0107150Y0160618D01*
X0106728Y0160196D01*
X0106500Y0159645D01*
Y0159048D01*
X0106728Y0158497D01*
X0107150Y0158075D01*
X0107702Y0157846D01*
X0108298D01*
X0108850Y0158075D01*
X0109272Y0158497D01*
X0109500Y0159048D01*
Y0159645D01*
X0109272Y0160196D01*
X0108850Y0160618D01*
X0108298Y0160846D01*
D02*
G37*
G36*
X0230480Y0159648D02*
X0229520D01*
X0228592Y0159399D01*
X0227760Y0158919D01*
X0227081Y0158240D01*
X0226601Y0157408D01*
X0226352Y0156480D01*
Y0155520D01*
X0226601Y0154592D01*
X0227081Y0153760D01*
X0227760Y0153081D01*
X0228592Y0152601D01*
X0229520Y0152352D01*
X0230480D01*
X0231408Y0152601D01*
X0232240Y0153081D01*
X0232919Y0153760D01*
X0233399Y0154592D01*
X0233648Y0155520D01*
Y0156480D01*
X0233399Y0157408D01*
X0232919Y0158240D01*
X0232240Y0158919D01*
X0231408Y0159399D01*
X0230480Y0159648D01*
D02*
G37*
G36*
X0220480D02*
X0219520D01*
X0218592Y0159399D01*
X0217760Y0158919D01*
X0217081Y0158240D01*
X0216601Y0157408D01*
X0216352Y0156480D01*
Y0155520D01*
X0216601Y0154592D01*
X0217081Y0153760D01*
X0217760Y0153081D01*
X0218592Y0152601D01*
X0219520Y0152352D01*
X0220480D01*
X0221408Y0152601D01*
X0222240Y0153081D01*
X0222919Y0153760D01*
X0223399Y0154592D01*
X0223648Y0155520D01*
Y0156480D01*
X0223399Y0157408D01*
X0222919Y0158240D01*
X0222240Y0158919D01*
X0221408Y0159399D01*
X0220480Y0159648D01*
D02*
G37*
G36*
X0180533Y0153254D02*
X0179936D01*
X0179385Y0153025D01*
X0178963Y0152604D01*
X0178735Y0152052D01*
Y0151455D01*
X0178963Y0150904D01*
X0179385Y0150482D01*
X0179936Y0150254D01*
X0180533D01*
X0181084Y0150482D01*
X0181506Y0150904D01*
X0181735Y0151455D01*
Y0152052D01*
X0181506Y0152604D01*
X0181084Y0153025D01*
X0180533Y0153254D01*
D02*
G37*
G36*
X0114798Y0151000D02*
X0114202D01*
X0113650Y0150772D01*
X0113228Y0150350D01*
X0113000Y0149798D01*
Y0149202D01*
X0113228Y0148650D01*
X0113650Y0148228D01*
X0114202Y0148000D01*
X0114798D01*
X0115350Y0148228D01*
X0115772Y0148650D01*
X0116000Y0149202D01*
Y0149798D01*
X0115772Y0150350D01*
X0115350Y0150772D01*
X0114798Y0151000D01*
D02*
G37*
G36*
X0193399Y0147000D02*
X0192802D01*
X0192251Y0146772D01*
X0191829Y0146350D01*
X0191600Y0145798D01*
Y0145202D01*
X0191829Y0144650D01*
X0192251Y0144228D01*
X0192802Y0144000D01*
X0193399D01*
X0193950Y0144228D01*
X0194372Y0144650D01*
X0194600Y0145202D01*
Y0145798D01*
X0194372Y0146350D01*
X0193950Y0146772D01*
X0193399Y0147000D01*
D02*
G37*
G36*
X0230480Y0149648D02*
X0229520D01*
X0228592Y0149399D01*
X0227760Y0148919D01*
X0227081Y0148240D01*
X0226601Y0147408D01*
X0226352Y0146480D01*
Y0145520D01*
X0226601Y0144592D01*
X0227081Y0143760D01*
X0227760Y0143081D01*
X0228592Y0142601D01*
X0229520Y0142352D01*
X0230480D01*
X0231408Y0142601D01*
X0232240Y0143081D01*
X0232919Y0143760D01*
X0233399Y0144592D01*
X0233648Y0145520D01*
Y0146480D01*
X0233399Y0147408D01*
X0232919Y0148240D01*
X0232240Y0148919D01*
X0231408Y0149399D01*
X0230480Y0149648D01*
D02*
G37*
G36*
X0220480D02*
X0219520D01*
X0218592Y0149399D01*
X0217760Y0148919D01*
X0217081Y0148240D01*
X0216601Y0147408D01*
X0216352Y0146480D01*
Y0145520D01*
X0216601Y0144592D01*
X0217081Y0143760D01*
X0217760Y0143081D01*
X0218592Y0142601D01*
X0219520Y0142352D01*
X0220480D01*
X0221408Y0142601D01*
X0222240Y0143081D01*
X0222919Y0143760D01*
X0223399Y0144592D01*
X0223648Y0145520D01*
Y0146480D01*
X0223399Y0147408D01*
X0222919Y0148240D01*
X0222240Y0148919D01*
X0221408Y0149399D01*
X0220480Y0149648D01*
D02*
G37*
G36*
X0066562Y0142075D02*
X0065965D01*
X0065414Y0141846D01*
X0064992Y0141424D01*
X0064764Y0140873D01*
Y0140276D01*
X0064992Y0139725D01*
X0065414Y0139303D01*
X0065965Y0139075D01*
X0066562D01*
X0067114Y0139303D01*
X0067535Y0139725D01*
X0067764Y0140276D01*
Y0140873D01*
X0067535Y0141424D01*
X0067114Y0141846D01*
X0066562Y0142075D01*
D02*
G37*
G36*
X0081377Y0140740D02*
X0080780D01*
X0080229Y0140512D01*
X0079807Y0140090D01*
X0079579Y0139539D01*
Y0138942D01*
X0079807Y0138391D01*
X0080229Y0137969D01*
X0080780Y0137740D01*
X0081377D01*
X0081928Y0137969D01*
X0082350Y0138391D01*
X0082579Y0138942D01*
Y0139539D01*
X0082350Y0140090D01*
X0081928Y0140512D01*
X0081377Y0140740D01*
D02*
G37*
G36*
X0164544Y0137153D02*
X0163948D01*
X0163396Y0136925D01*
X0162975Y0136503D01*
X0162746Y0135952D01*
Y0135355D01*
X0162975Y0134804D01*
X0163396Y0134382D01*
X0163948Y0134153D01*
X0164544D01*
X0165096Y0134382D01*
X0165518Y0134804D01*
X0165746Y0135355D01*
Y0135952D01*
X0165518Y0136503D01*
X0165096Y0136925D01*
X0164544Y0137153D01*
D02*
G37*
G36*
X0230480Y0139648D02*
X0229520D01*
X0228592Y0139399D01*
X0227760Y0138919D01*
X0227081Y0138240D01*
X0226601Y0137408D01*
X0226352Y0136480D01*
Y0135520D01*
X0226601Y0134592D01*
X0227081Y0133760D01*
X0227760Y0133081D01*
X0228592Y0132601D01*
X0229520Y0132352D01*
X0230480D01*
X0231408Y0132601D01*
X0232240Y0133081D01*
X0232919Y0133760D01*
X0233399Y0134592D01*
X0233648Y0135520D01*
Y0136480D01*
X0233399Y0137408D01*
X0232919Y0138240D01*
X0232240Y0138919D01*
X0231408Y0139399D01*
X0230480Y0139648D01*
D02*
G37*
G36*
X0220480D02*
X0219520D01*
X0218592Y0139399D01*
X0217760Y0138919D01*
X0217081Y0138240D01*
X0216601Y0137408D01*
X0216352Y0136480D01*
Y0135520D01*
X0216601Y0134592D01*
X0217081Y0133760D01*
X0217760Y0133081D01*
X0218592Y0132601D01*
X0219520Y0132352D01*
X0220480D01*
X0221408Y0132601D01*
X0222240Y0133081D01*
X0222919Y0133760D01*
X0223399Y0134592D01*
X0223648Y0135520D01*
Y0136480D01*
X0223399Y0137408D01*
X0222919Y0138240D01*
X0222240Y0138919D01*
X0221408Y0139399D01*
X0220480Y0139648D01*
D02*
G37*
G36*
X0082326Y0128575D02*
X0081729D01*
X0081178Y0128346D01*
X0080756Y0127924D01*
X0080528Y0127373D01*
Y0126776D01*
X0080756Y0126225D01*
X0081178Y0125803D01*
X0081729Y0125575D01*
X0082326D01*
X0082877Y0125803D01*
X0083299Y0126225D01*
X0083528Y0126776D01*
Y0127373D01*
X0083299Y0127924D01*
X0082877Y0128346D01*
X0082326Y0128575D01*
D02*
G37*
G36*
X0097298Y0127480D02*
X0096702D01*
X0096150Y0127252D01*
X0095728Y0126830D01*
X0095500Y0126279D01*
Y0125682D01*
X0095728Y0125131D01*
X0096150Y0124709D01*
X0096702Y0124480D01*
X0097298D01*
X0097850Y0124709D01*
X0098272Y0125131D01*
X0098500Y0125682D01*
Y0126279D01*
X0098272Y0126830D01*
X0097850Y0127252D01*
X0097298Y0127480D01*
D02*
G37*
G36*
X0230480Y0129648D02*
X0229520D01*
X0228592Y0129399D01*
X0227760Y0128919D01*
X0227081Y0128240D01*
X0226601Y0127408D01*
X0226352Y0126480D01*
Y0125520D01*
X0226601Y0124592D01*
X0227081Y0123760D01*
X0227760Y0123081D01*
X0228592Y0122601D01*
X0229520Y0122352D01*
X0230480D01*
X0231408Y0122601D01*
X0232240Y0123081D01*
X0232919Y0123760D01*
X0233399Y0124592D01*
X0233648Y0125520D01*
Y0126480D01*
X0233399Y0127408D01*
X0232919Y0128240D01*
X0232240Y0128919D01*
X0231408Y0129399D01*
X0230480Y0129648D01*
D02*
G37*
G36*
X0220480D02*
X0219520D01*
X0218592Y0129399D01*
X0217760Y0128919D01*
X0217081Y0128240D01*
X0216601Y0127408D01*
X0216352Y0126480D01*
Y0125520D01*
X0216601Y0124592D01*
X0217081Y0123760D01*
X0217760Y0123081D01*
X0218592Y0122601D01*
X0219520Y0122352D01*
X0220480D01*
X0221408Y0122601D01*
X0222240Y0123081D01*
X0222919Y0123760D01*
X0223399Y0124592D01*
X0223648Y0125520D01*
Y0126480D01*
X0223399Y0127408D01*
X0222919Y0128240D01*
X0222240Y0128919D01*
X0221408Y0129399D01*
X0220480Y0129648D01*
D02*
G37*
G36*
X0010798Y0123654D02*
X0010202D01*
X0009650Y0123425D01*
X0009228Y0123003D01*
X0009000Y0122452D01*
Y0121855D01*
X0009228Y0121304D01*
X0009650Y0120882D01*
X0010202Y0120654D01*
X0010798D01*
X0011350Y0120882D01*
X0011772Y0121304D01*
X0012000Y0121855D01*
Y0122452D01*
X0011772Y0123003D01*
X0011350Y0123425D01*
X0010798Y0123654D01*
D02*
G37*
G36*
X0230480Y0119648D02*
X0229520D01*
X0228592Y0119399D01*
X0227760Y0118919D01*
X0227081Y0118240D01*
X0226601Y0117408D01*
X0226352Y0116480D01*
Y0115520D01*
X0226601Y0114592D01*
X0227081Y0113760D01*
X0227760Y0113081D01*
X0228592Y0112601D01*
X0229520Y0112352D01*
X0230480D01*
X0231408Y0112601D01*
X0232240Y0113081D01*
X0232919Y0113760D01*
X0233399Y0114592D01*
X0233648Y0115520D01*
Y0116480D01*
X0233399Y0117408D01*
X0232919Y0118240D01*
X0232240Y0118919D01*
X0231408Y0119399D01*
X0230480Y0119648D01*
D02*
G37*
G36*
X0220480D02*
X0219520D01*
X0218592Y0119399D01*
X0217760Y0118919D01*
X0217081Y0118240D01*
X0216601Y0117408D01*
X0216352Y0116480D01*
Y0115520D01*
X0216601Y0114592D01*
X0217081Y0113760D01*
X0217760Y0113081D01*
X0218592Y0112601D01*
X0219520Y0112352D01*
X0220480D01*
X0221408Y0112601D01*
X0222240Y0113081D01*
X0222919Y0113760D01*
X0223399Y0114592D01*
X0223648Y0115520D01*
Y0116480D01*
X0223399Y0117408D01*
X0222919Y0118240D01*
X0222240Y0118919D01*
X0221408Y0119399D01*
X0220480Y0119648D01*
D02*
G37*
G36*
X0097220Y0146740D02*
X0096623D01*
X0096072Y0146512D01*
X0095650Y0146090D01*
X0095421Y0145538D01*
Y0144942D01*
X0095650Y0144390D01*
X0096072Y0143968D01*
X0096623Y0143740D01*
X0097220D01*
X0097771Y0143968D01*
X0098193Y0144390D01*
X0098207Y0144424D01*
X0104922D01*
X0133923Y0115423D01*
X0133923Y0115423D01*
X0134188Y0115246D01*
X0134500Y0115184D01*
X0136442D01*
X0136601Y0114592D01*
X0137081Y0113760D01*
X0137760Y0113081D01*
X0138592Y0112601D01*
X0139520Y0112352D01*
X0140480D01*
X0141408Y0112601D01*
X0142240Y0113081D01*
X0142919Y0113760D01*
X0143399Y0114592D01*
X0143648Y0115520D01*
Y0116480D01*
X0143399Y0117408D01*
X0142919Y0118240D01*
X0142240Y0118919D01*
X0141408Y0119399D01*
X0140480Y0119648D01*
X0139520D01*
X0138592Y0119399D01*
X0137760Y0118919D01*
X0137081Y0118240D01*
X0136601Y0117408D01*
X0136442Y0116816D01*
X0134838D01*
X0105837Y0145817D01*
X0105572Y0145994D01*
X0105260Y0146056D01*
X0105260Y0146056D01*
X0098207D01*
X0098193Y0146090D01*
X0097771Y0146512D01*
X0097220Y0146740D01*
D02*
G37*
G36*
X0162798Y0106500D02*
X0162202D01*
X0161650Y0106272D01*
X0161228Y0105850D01*
X0161000Y0105298D01*
Y0104702D01*
X0161228Y0104150D01*
X0161650Y0103728D01*
X0162202Y0103500D01*
X0162798D01*
X0163350Y0103728D01*
X0163772Y0104150D01*
X0164000Y0104702D01*
Y0105298D01*
X0163772Y0105850D01*
X0163350Y0106272D01*
X0162798Y0106500D01*
D02*
G37*
G36*
X0050862Y0108747D02*
X0050138D01*
X0049440Y0108559D01*
X0048814Y0108198D01*
X0048302Y0107686D01*
X0047941Y0107060D01*
X0047754Y0106362D01*
Y0105638D01*
X0047941Y0104940D01*
X0048302Y0104314D01*
X0048814Y0103802D01*
X0049440Y0103441D01*
X0050138Y0103253D01*
X0050862D01*
X0051560Y0103441D01*
X0052186Y0103802D01*
X0052698Y0104314D01*
X0053059Y0104940D01*
X0053246Y0105638D01*
Y0106362D01*
X0053059Y0107060D01*
X0052698Y0107686D01*
X0052186Y0108198D01*
X0051560Y0108559D01*
X0050862Y0108747D01*
D02*
G37*
G36*
X0020862D02*
X0020138D01*
X0019440Y0108559D01*
X0018814Y0108198D01*
X0018302Y0107686D01*
X0017941Y0107060D01*
X0017754Y0106362D01*
Y0105638D01*
X0017941Y0104940D01*
X0018302Y0104314D01*
X0018814Y0103802D01*
X0019440Y0103441D01*
X0020138Y0103253D01*
X0020862D01*
X0021560Y0103441D01*
X0022186Y0103802D01*
X0022698Y0104314D01*
X0023059Y0104940D01*
X0023246Y0105638D01*
Y0106362D01*
X0023059Y0107060D01*
X0022698Y0107686D01*
X0022186Y0108198D01*
X0021560Y0108559D01*
X0020862Y0108747D01*
D02*
G37*
G36*
X0013246D02*
X0007754D01*
Y0103253D01*
X0013246D01*
Y0108747D01*
D02*
G37*
G36*
X0094798Y0105500D02*
X0094202D01*
X0093650Y0105272D01*
X0093228Y0104850D01*
X0093000Y0104298D01*
Y0103702D01*
X0093228Y0103150D01*
X0093650Y0102728D01*
X0094202Y0102500D01*
X0094798D01*
X0095350Y0102728D01*
X0095772Y0103150D01*
X0096000Y0103702D01*
Y0104298D01*
X0095772Y0104850D01*
X0095350Y0105272D01*
X0094798Y0105500D01*
D02*
G37*
G36*
X0230480Y0109648D02*
X0229520D01*
X0228592Y0109399D01*
X0227760Y0108919D01*
X0227081Y0108240D01*
X0226601Y0107408D01*
X0226352Y0106480D01*
Y0105520D01*
X0226601Y0104592D01*
X0227081Y0103760D01*
X0227760Y0103081D01*
X0228592Y0102601D01*
X0229520Y0102352D01*
X0230480D01*
X0231408Y0102601D01*
X0232240Y0103081D01*
X0232919Y0103760D01*
X0233399Y0104592D01*
X0233648Y0105520D01*
Y0106480D01*
X0233399Y0107408D01*
X0232919Y0108240D01*
X0232240Y0108919D01*
X0231408Y0109399D01*
X0230480Y0109648D01*
D02*
G37*
G36*
X0220480D02*
X0219520D01*
X0218592Y0109399D01*
X0217760Y0108919D01*
X0217081Y0108240D01*
X0216601Y0107408D01*
X0216352Y0106480D01*
Y0105520D01*
X0216601Y0104592D01*
X0217081Y0103760D01*
X0217760Y0103081D01*
X0218592Y0102601D01*
X0219520Y0102352D01*
X0220480D01*
X0221408Y0102601D01*
X0222240Y0103081D01*
X0222919Y0103760D01*
X0223399Y0104592D01*
X0223648Y0105520D01*
Y0106480D01*
X0223399Y0107408D01*
X0222919Y0108240D01*
X0222240Y0108919D01*
X0221408Y0109399D01*
X0220480Y0109648D01*
D02*
G37*
G36*
X0141808Y0286500D02*
X0141211D01*
X0140660Y0286272D01*
X0140238Y0285850D01*
X0140010Y0285298D01*
Y0284702D01*
X0140238Y0284150D01*
X0140660Y0283728D01*
X0141211Y0283500D01*
X0141808D01*
X0142359Y0283728D01*
X0142781Y0284150D01*
X0142796Y0284184D01*
X0152562D01*
X0162623Y0274123D01*
X0162888Y0273946D01*
X0163200Y0273884D01*
X0163200Y0273884D01*
X0177334D01*
X0177334Y0273884D01*
X0177646Y0273946D01*
X0177911Y0274123D01*
X0180801Y0277014D01*
X0180835Y0277000D01*
X0181432D01*
X0181984Y0277228D01*
X0182083Y0277327D01*
X0185970D01*
Y0275344D01*
X0193030D01*
Y0277327D01*
X0195709D01*
Y0274868D01*
X0191014Y0270173D01*
X0180500D01*
X0180051Y0270083D01*
X0179671Y0269829D01*
X0173171Y0263329D01*
X0172917Y0262949D01*
X0172827Y0262500D01*
Y0240156D01*
X0172304Y0239633D01*
X0172000Y0238898D01*
Y0238158D01*
X0158161Y0224319D01*
X0157907Y0223939D01*
X0157818Y0223490D01*
Y0127949D01*
X0157719Y0127850D01*
X0157490Y0127298D01*
Y0126702D01*
X0157719Y0126150D01*
X0157818Y0126051D01*
Y0104476D01*
X0155514Y0102173D01*
X0152267D01*
X0152052Y0102972D01*
X0152240Y0103081D01*
X0152919Y0103760D01*
X0153399Y0104592D01*
X0153648Y0105520D01*
Y0106480D01*
X0153399Y0107408D01*
X0152919Y0108240D01*
X0152240Y0108919D01*
X0151408Y0109399D01*
X0150480Y0109648D01*
X0149520D01*
X0148592Y0109399D01*
X0147760Y0108919D01*
X0147081Y0108240D01*
X0146601Y0107408D01*
X0146352Y0106480D01*
Y0105520D01*
X0146601Y0104592D01*
X0147081Y0103760D01*
X0147760Y0103081D01*
X0147948Y0102972D01*
X0147733Y0102173D01*
X0142267D01*
X0142052Y0102972D01*
X0142240Y0103081D01*
X0142919Y0103760D01*
X0143399Y0104592D01*
X0143648Y0105520D01*
Y0106480D01*
X0143399Y0107408D01*
X0142919Y0108240D01*
X0142240Y0108919D01*
X0141408Y0109399D01*
X0140480Y0109648D01*
X0139520D01*
X0138592Y0109399D01*
X0137760Y0108919D01*
X0137747Y0108906D01*
X0119986Y0126668D01*
X0120000Y0126702D01*
Y0127298D01*
X0119772Y0127850D01*
X0119350Y0128272D01*
X0118798Y0128500D01*
X0118202D01*
X0117650Y0128272D01*
X0117228Y0127850D01*
X0117000Y0127298D01*
Y0126702D01*
X0117228Y0126150D01*
X0117650Y0125728D01*
X0118202Y0125500D01*
X0118798D01*
X0118832Y0125514D01*
X0136724Y0107622D01*
X0136601Y0107408D01*
X0136352Y0106480D01*
Y0105520D01*
X0136601Y0104592D01*
X0137081Y0103760D01*
X0137760Y0103081D01*
X0137948Y0102972D01*
X0137733Y0102173D01*
X0129986D01*
X0111829Y0120329D01*
X0111449Y0120583D01*
X0111048Y0120663D01*
X0111000Y0120683D01*
X0060429D01*
X0059183Y0121929D01*
X0059183Y0142374D01*
X0059163Y0142423D01*
X0059083Y0142823D01*
X0058829Y0143203D01*
X0022030Y0180002D01*
X0022184Y0180575D01*
Y0181299D01*
X0021996Y0181997D01*
X0021635Y0182623D01*
X0021123Y0183135D01*
X0020497Y0183496D01*
X0019799Y0183684D01*
X0019075D01*
X0018835Y0183619D01*
X0018182Y0184272D01*
X0018246Y0184512D01*
Y0185236D01*
X0018059Y0185934D01*
X0017698Y0186560D01*
X0017186Y0187072D01*
X0016560Y0187433D01*
X0015862Y0187620D01*
X0015138D01*
X0014440Y0187433D01*
X0013814Y0187072D01*
X0013302Y0186560D01*
X0012941Y0185934D01*
X0012754Y0185236D01*
Y0184512D01*
X0012941Y0183814D01*
X0013302Y0183188D01*
X0013814Y0182676D01*
X0014440Y0182315D01*
X0015138Y0182128D01*
X0015862D01*
X0016102Y0182192D01*
X0016755Y0181539D01*
X0016691Y0181299D01*
Y0180575D01*
X0016755Y0180335D01*
X0016102Y0179682D01*
X0015862Y0179746D01*
X0015138D01*
X0014440Y0179559D01*
X0013814Y0179198D01*
X0013302Y0178686D01*
X0012941Y0178060D01*
X0012754Y0177362D01*
Y0176638D01*
X0012941Y0175940D01*
X0013302Y0175314D01*
X0013814Y0174802D01*
X0014440Y0174441D01*
X0015138Y0174253D01*
X0015862D01*
X0016560Y0174441D01*
X0017186Y0174802D01*
X0017698Y0175314D01*
X0018059Y0175940D01*
X0018246Y0176638D01*
Y0177362D01*
X0018182Y0177602D01*
X0018835Y0178255D01*
X0019075Y0178191D01*
X0019799D01*
X0020372Y0178344D01*
X0056817Y0141899D01*
Y0121929D01*
X0055571Y0120683D01*
X0052849D01*
X0036030Y0137502D01*
X0036184Y0138075D01*
Y0138799D01*
X0035996Y0139497D01*
X0035635Y0140123D01*
X0035123Y0140635D01*
X0034497Y0140996D01*
X0033799Y0141183D01*
X0033075D01*
X0032835Y0141119D01*
X0032182Y0141772D01*
X0032246Y0142012D01*
Y0142736D01*
X0032059Y0143434D01*
X0031698Y0144060D01*
X0031186Y0144572D01*
X0030560Y0144933D01*
X0029862Y0145121D01*
X0029138D01*
X0028440Y0144933D01*
X0027814Y0144572D01*
X0027302Y0144060D01*
X0026941Y0143434D01*
X0026754Y0142736D01*
Y0142012D01*
X0026941Y0141314D01*
X0027302Y0140688D01*
X0027814Y0140176D01*
X0028440Y0139815D01*
X0029138Y0139628D01*
X0029862D01*
X0030102Y0139692D01*
X0030755Y0139039D01*
X0030691Y0138799D01*
Y0138075D01*
X0030755Y0137835D01*
X0030102Y0137182D01*
X0029862Y0137247D01*
X0029138D01*
X0028440Y0137059D01*
X0027814Y0136698D01*
X0027302Y0136186D01*
X0026941Y0135560D01*
X0026754Y0134862D01*
Y0134138D01*
X0026941Y0133440D01*
X0027302Y0132814D01*
X0027814Y0132302D01*
X0028440Y0131941D01*
X0029138Y0131754D01*
X0029862D01*
X0030560Y0131941D01*
X0031186Y0132302D01*
X0031698Y0132814D01*
X0032059Y0133440D01*
X0032246Y0134138D01*
Y0134862D01*
X0032182Y0135102D01*
X0032835Y0135755D01*
X0033075Y0135691D01*
X0033799D01*
X0034372Y0135844D01*
X0051545Y0118671D01*
X0051925Y0118417D01*
X0052326Y0118337D01*
X0052374Y0118317D01*
X0057250D01*
X0110525Y0118317D01*
X0128671Y0100171D01*
X0129051Y0099917D01*
X0129500Y0099827D01*
X0137733D01*
X0137948Y0099028D01*
X0137760Y0098919D01*
X0137081Y0098240D01*
X0136601Y0097408D01*
X0136352Y0096480D01*
Y0095520D01*
X0136601Y0094592D01*
X0137081Y0093760D01*
X0137760Y0093081D01*
X0138592Y0092601D01*
X0139520Y0092352D01*
X0140480D01*
X0141408Y0092601D01*
X0142240Y0093081D01*
X0142919Y0093760D01*
X0143399Y0094592D01*
X0143648Y0095520D01*
Y0096480D01*
X0143399Y0097408D01*
X0142919Y0098240D01*
X0142240Y0098919D01*
X0142052Y0099028D01*
X0142267Y0099827D01*
X0147733D01*
X0147948Y0099028D01*
X0147760Y0098919D01*
X0147081Y0098240D01*
X0146601Y0097408D01*
X0146352Y0096480D01*
Y0095520D01*
X0146601Y0094592D01*
X0147081Y0093760D01*
X0147760Y0093081D01*
X0148592Y0092601D01*
X0149520Y0092352D01*
X0150480D01*
X0151408Y0092601D01*
X0152240Y0093081D01*
X0152919Y0093760D01*
X0153399Y0094592D01*
X0153648Y0095520D01*
Y0096480D01*
X0153399Y0097408D01*
X0152919Y0098240D01*
X0152240Y0098919D01*
X0152052Y0099028D01*
X0152267Y0099827D01*
X0156000D01*
X0156449Y0099917D01*
X0156829Y0100171D01*
X0159819Y0103161D01*
X0160073Y0103542D01*
X0160163Y0103990D01*
Y0126051D01*
X0160262Y0126150D01*
X0160490Y0126702D01*
Y0127298D01*
X0160262Y0127850D01*
X0160163Y0127949D01*
Y0223005D01*
X0173658Y0236500D01*
X0174398D01*
X0175133Y0236805D01*
X0175696Y0237367D01*
X0176000Y0238102D01*
Y0238898D01*
X0175696Y0239633D01*
X0175172Y0240156D01*
Y0262014D01*
X0180986Y0267828D01*
X0191500D01*
X0191949Y0267917D01*
X0192329Y0268171D01*
X0197711Y0273553D01*
X0197965Y0273933D01*
X0198054Y0274382D01*
Y0277551D01*
X0198153Y0277650D01*
X0198382Y0278202D01*
Y0278798D01*
X0198153Y0279350D01*
X0197732Y0279772D01*
X0197180Y0280000D01*
X0196583D01*
X0196032Y0279772D01*
X0195933Y0279673D01*
X0193030D01*
Y0281617D01*
X0185970D01*
Y0279673D01*
X0182083D01*
X0181984Y0279772D01*
X0181432Y0280000D01*
X0180835D01*
X0180284Y0279772D01*
X0179862Y0279350D01*
X0179639Y0278810D01*
X0179634Y0278798D01*
X0179554Y0278754D01*
X0179407Y0278762D01*
X0178609Y0279147D01*
X0178525Y0279350D01*
X0178104Y0279772D01*
X0177552Y0280000D01*
X0176955D01*
X0176404Y0279772D01*
X0175982Y0279350D01*
X0175754Y0278798D01*
Y0278202D01*
X0175982Y0277650D01*
X0176404Y0277228D01*
X0176955Y0277000D01*
X0177349D01*
X0177706Y0276400D01*
X0177741Y0276261D01*
X0176996Y0275516D01*
X0163538D01*
X0153477Y0285577D01*
X0153212Y0285754D01*
X0152900Y0285816D01*
X0152900Y0285816D01*
X0142796D01*
X0142781Y0285850D01*
X0142359Y0286272D01*
X0141808Y0286500D01*
D02*
G37*
G36*
X0063554Y0102347D02*
X0062958D01*
X0062406Y0102118D01*
X0061984Y0101696D01*
X0061756Y0101145D01*
Y0100548D01*
X0061984Y0099997D01*
X0062406Y0099575D01*
X0062958Y0099347D01*
X0063554D01*
X0064106Y0099575D01*
X0064528Y0099997D01*
X0064756Y0100548D01*
Y0101145D01*
X0064528Y0101696D01*
X0064106Y0102118D01*
X0063554Y0102347D01*
D02*
G37*
G36*
X0043246Y0108747D02*
X0037754D01*
Y0103253D01*
X0042093D01*
X0048923Y0096423D01*
X0048923Y0096423D01*
X0049188Y0096246D01*
X0049500Y0096184D01*
X0062148D01*
X0062351Y0095589D01*
X0062365Y0095384D01*
X0061984Y0095003D01*
X0061756Y0094452D01*
Y0093855D01*
X0061984Y0093304D01*
X0062406Y0092882D01*
X0062958Y0092654D01*
X0063554D01*
X0064106Y0092882D01*
X0064528Y0093304D01*
X0064756Y0093855D01*
Y0094452D01*
X0064528Y0095003D01*
X0064147Y0095384D01*
X0064161Y0095589D01*
X0064363Y0096184D01*
X0068000D01*
X0068000Y0096184D01*
X0068312Y0096246D01*
X0068577Y0096423D01*
X0071306Y0099153D01*
X0090557D01*
X0090571Y0099119D01*
X0090993Y0098697D01*
X0091544Y0098469D01*
X0092141D01*
X0092692Y0098697D01*
X0093114Y0099119D01*
X0093343Y0099670D01*
Y0100267D01*
X0093114Y0100818D01*
X0092692Y0101240D01*
X0092141Y0101469D01*
X0091544D01*
X0090993Y0101240D01*
X0090571Y0100818D01*
X0090557Y0100784D01*
X0070969D01*
X0070969Y0100784D01*
X0070656Y0100722D01*
X0070392Y0100545D01*
X0070392Y0100545D01*
X0067662Y0097816D01*
X0049838D01*
X0043246Y0104407D01*
Y0108747D01*
D02*
G37*
G36*
X0124054Y0101000D02*
X0123458D01*
X0122906Y0100772D01*
X0122484Y0100350D01*
X0122256Y0099798D01*
Y0099202D01*
X0122484Y0098650D01*
X0122906Y0098228D01*
X0123458Y0098000D01*
X0124054D01*
X0124606Y0098228D01*
X0125028Y0098650D01*
X0125256Y0099202D01*
Y0099798D01*
X0125028Y0100350D01*
X0124606Y0100772D01*
X0124054Y0101000D01*
D02*
G37*
G36*
X0230480Y0099648D02*
X0229520D01*
X0228592Y0099399D01*
X0227760Y0098919D01*
X0227081Y0098240D01*
X0226601Y0097408D01*
X0226352Y0096480D01*
Y0095520D01*
X0226601Y0094592D01*
X0227081Y0093760D01*
X0227760Y0093081D01*
X0228592Y0092601D01*
X0229520Y0092352D01*
X0230480D01*
X0231408Y0092601D01*
X0232240Y0093081D01*
X0232919Y0093760D01*
X0233399Y0094592D01*
X0233648Y0095520D01*
Y0096480D01*
X0233399Y0097408D01*
X0232919Y0098240D01*
X0232240Y0098919D01*
X0231408Y0099399D01*
X0230480Y0099648D01*
D02*
G37*
G36*
X0220480D02*
X0219520D01*
X0218592Y0099399D01*
X0217760Y0098919D01*
X0217081Y0098240D01*
X0216601Y0097408D01*
X0216352Y0096480D01*
Y0095520D01*
X0216601Y0094592D01*
X0217081Y0093760D01*
X0217760Y0093081D01*
X0218592Y0092601D01*
X0219520Y0092352D01*
X0220480D01*
X0221408Y0092601D01*
X0222240Y0093081D01*
X0222919Y0093760D01*
X0223399Y0094592D01*
X0223648Y0095520D01*
Y0096480D01*
X0223399Y0097408D01*
X0222919Y0098240D01*
X0222240Y0098919D01*
X0221408Y0099399D01*
X0220480Y0099648D01*
D02*
G37*
G36*
X0103968Y0093500D02*
X0103371D01*
X0102820Y0093272D01*
X0102398Y0092850D01*
X0102169Y0092298D01*
Y0091702D01*
X0102398Y0091150D01*
X0102820Y0090728D01*
X0103371Y0090500D01*
X0103968D01*
X0104519Y0090728D01*
X0104941Y0091150D01*
X0105169Y0091702D01*
Y0092298D01*
X0104941Y0092850D01*
X0104519Y0093272D01*
X0103968Y0093500D01*
D02*
G37*
G36*
X0119298Y0091000D02*
X0118702D01*
X0118150Y0090772D01*
X0117728Y0090350D01*
X0117500Y0089798D01*
Y0089202D01*
X0117728Y0088650D01*
X0118150Y0088228D01*
X0118702Y0088000D01*
X0119298D01*
X0119850Y0088228D01*
X0120272Y0088650D01*
X0120500Y0089202D01*
Y0089798D01*
X0120272Y0090350D01*
X0119850Y0090772D01*
X0119298Y0091000D01*
D02*
G37*
G36*
X0099310Y0088000D02*
X0098713D01*
X0098162Y0087772D01*
X0097740Y0087350D01*
X0097512Y0086798D01*
Y0086202D01*
X0097740Y0085650D01*
X0098162Y0085228D01*
X0098713Y0085000D01*
X0099310D01*
X0099862Y0085228D01*
X0100284Y0085650D01*
X0100512Y0086202D01*
Y0086798D01*
X0100284Y0087350D01*
X0099862Y0087772D01*
X0099310Y0088000D01*
D02*
G37*
G36*
X0199042Y0087500D02*
X0198446D01*
X0197895Y0087272D01*
X0197473Y0086850D01*
X0197244Y0086298D01*
Y0085702D01*
X0197473Y0085150D01*
X0197895Y0084728D01*
X0198446Y0084500D01*
X0199042D01*
X0199594Y0084728D01*
X0200016Y0085150D01*
X0200244Y0085702D01*
Y0086298D01*
X0200016Y0086850D01*
X0199594Y0087272D01*
X0199042Y0087500D01*
D02*
G37*
G36*
X0066645Y0086500D02*
X0066048D01*
X0065497Y0086272D01*
X0065075Y0085850D01*
X0064846Y0085298D01*
Y0084702D01*
X0065075Y0084150D01*
X0065497Y0083728D01*
X0066048Y0083500D01*
X0066645D01*
X0067196Y0083728D01*
X0067618Y0084150D01*
X0067846Y0084702D01*
Y0085298D01*
X0067618Y0085850D01*
X0067196Y0086272D01*
X0066645Y0086500D01*
D02*
G37*
G36*
X0230480Y0089648D02*
X0229520D01*
X0228592Y0089399D01*
X0227760Y0088919D01*
X0227081Y0088240D01*
X0226601Y0087408D01*
X0226352Y0086480D01*
Y0085520D01*
X0226601Y0084592D01*
X0227081Y0083760D01*
X0227760Y0083081D01*
X0228592Y0082601D01*
X0229520Y0082352D01*
X0230480D01*
X0231408Y0082601D01*
X0232240Y0083081D01*
X0232919Y0083760D01*
X0233399Y0084592D01*
X0233648Y0085520D01*
Y0086480D01*
X0233399Y0087408D01*
X0232919Y0088240D01*
X0232240Y0088919D01*
X0231408Y0089399D01*
X0230480Y0089648D01*
D02*
G37*
G36*
X0220480D02*
X0219520D01*
X0218592Y0089399D01*
X0217760Y0088919D01*
X0217081Y0088240D01*
X0216601Y0087408D01*
X0216352Y0086480D01*
Y0085520D01*
X0216601Y0084592D01*
X0217081Y0083760D01*
X0217760Y0083081D01*
X0218592Y0082601D01*
X0219520Y0082352D01*
X0220480D01*
X0221408Y0082601D01*
X0222240Y0083081D01*
X0222919Y0083760D01*
X0223399Y0084592D01*
X0223648Y0085520D01*
Y0086480D01*
X0223399Y0087408D01*
X0222919Y0088240D01*
X0222240Y0088919D01*
X0221408Y0089399D01*
X0220480Y0089648D01*
D02*
G37*
G36*
X0150480D02*
X0149520D01*
X0148592Y0089399D01*
X0147760Y0088919D01*
X0147081Y0088240D01*
X0146601Y0087408D01*
X0146352Y0086480D01*
Y0085520D01*
X0146601Y0084592D01*
X0147081Y0083760D01*
X0147760Y0083081D01*
X0148592Y0082601D01*
X0149520Y0082352D01*
X0150480D01*
X0151408Y0082601D01*
X0152240Y0083081D01*
X0152919Y0083760D01*
X0153399Y0084592D01*
X0153648Y0085520D01*
Y0086480D01*
X0153399Y0087408D01*
X0152919Y0088240D01*
X0152240Y0088919D01*
X0151408Y0089399D01*
X0150480Y0089648D01*
D02*
G37*
G36*
X0140480D02*
X0139520D01*
X0138592Y0089399D01*
X0137760Y0088919D01*
X0137081Y0088240D01*
X0136601Y0087408D01*
X0136352Y0086480D01*
Y0085520D01*
X0136601Y0084592D01*
X0137081Y0083760D01*
X0137760Y0083081D01*
X0138592Y0082601D01*
X0139520Y0082352D01*
X0140480D01*
X0141408Y0082601D01*
X0142240Y0083081D01*
X0142919Y0083760D01*
X0143399Y0084592D01*
X0143648Y0085520D01*
Y0086480D01*
X0143399Y0087408D01*
X0142919Y0088240D01*
X0142240Y0088919D01*
X0141408Y0089399D01*
X0140480Y0089648D01*
D02*
G37*
G36*
X0106208Y0077000D02*
X0105611D01*
X0105060Y0076772D01*
X0104638Y0076350D01*
X0104410Y0075798D01*
Y0075202D01*
X0104638Y0074650D01*
X0105060Y0074228D01*
X0105332Y0074116D01*
X0105173Y0073316D01*
X0092338D01*
X0090986Y0074668D01*
X0091000Y0074702D01*
Y0075298D01*
X0090772Y0075850D01*
X0090350Y0076272D01*
X0089798Y0076500D01*
X0089202D01*
X0088650Y0076272D01*
X0088228Y0075850D01*
X0088000Y0075298D01*
Y0074702D01*
X0088228Y0074150D01*
X0088650Y0073728D01*
X0089202Y0073500D01*
X0089798D01*
X0089832Y0073514D01*
X0091423Y0071923D01*
X0091423Y0071923D01*
X0091688Y0071746D01*
X0092000Y0071684D01*
X0117866D01*
X0118025Y0070884D01*
X0117753Y0070772D01*
X0117331Y0070350D01*
X0117102Y0069798D01*
Y0069662D01*
X0116361Y0069272D01*
X0115810Y0069500D01*
X0115213D01*
X0114662Y0069272D01*
X0114240Y0068850D01*
X0114012Y0068298D01*
Y0067702D01*
X0114240Y0067150D01*
X0114662Y0066728D01*
X0115213Y0066500D01*
X0115810D01*
X0115844Y0066514D01*
X0122435Y0059923D01*
X0122435Y0059923D01*
X0122700Y0059746D01*
X0123012Y0059684D01*
X0137485D01*
X0137715Y0059043D01*
X0137725Y0058884D01*
X0137081Y0058240D01*
X0136601Y0057408D01*
X0136352Y0056480D01*
Y0055520D01*
X0136601Y0054592D01*
X0137081Y0053760D01*
X0137760Y0053081D01*
X0138592Y0052601D01*
X0139520Y0052352D01*
X0140480D01*
X0141408Y0052601D01*
X0142240Y0053081D01*
X0142919Y0053760D01*
X0143399Y0054592D01*
X0143648Y0055520D01*
Y0056480D01*
X0143399Y0057408D01*
X0142919Y0058240D01*
X0142275Y0058884D01*
X0142285Y0059043D01*
X0142515Y0059684D01*
X0147485D01*
X0147715Y0059043D01*
X0147725Y0058884D01*
X0147081Y0058240D01*
X0146601Y0057408D01*
X0146352Y0056480D01*
Y0055520D01*
X0146601Y0054592D01*
X0147081Y0053760D01*
X0147760Y0053081D01*
X0148592Y0052601D01*
X0149520Y0052352D01*
X0150480D01*
X0151408Y0052601D01*
X0152240Y0053081D01*
X0152919Y0053760D01*
X0153399Y0054592D01*
X0153648Y0055520D01*
Y0056480D01*
X0153399Y0057408D01*
X0152919Y0058240D01*
X0152275Y0058884D01*
X0152285Y0059043D01*
X0152515Y0059684D01*
X0159000D01*
X0159000Y0059684D01*
X0159312Y0059746D01*
X0159577Y0059923D01*
X0162838Y0063184D01*
X0205714D01*
X0205728Y0063150D01*
X0206150Y0062728D01*
X0206702Y0062500D01*
X0207298D01*
X0207850Y0062728D01*
X0208272Y0063150D01*
X0208500Y0063702D01*
Y0064298D01*
X0208272Y0064850D01*
X0207850Y0065272D01*
X0207298Y0065500D01*
X0206702D01*
X0206150Y0065272D01*
X0205728Y0064850D01*
X0205714Y0064816D01*
X0162500D01*
X0162500Y0064816D01*
X0162188Y0064754D01*
X0161923Y0064577D01*
X0161923Y0064577D01*
X0158662Y0061316D01*
X0123350D01*
X0117483Y0067182D01*
X0117525Y0067457D01*
X0118304Y0068000D01*
X0118901D01*
X0119452Y0068228D01*
X0119874Y0068650D01*
X0120102Y0069202D01*
Y0069798D01*
X0119874Y0070350D01*
X0119452Y0070772D01*
X0119180Y0070884D01*
X0119339Y0071684D01*
X0133162D01*
X0136907Y0067939D01*
X0136601Y0067408D01*
X0136352Y0066480D01*
Y0065520D01*
X0136601Y0064592D01*
X0137081Y0063760D01*
X0137760Y0063081D01*
X0138592Y0062601D01*
X0139520Y0062352D01*
X0140480D01*
X0141408Y0062601D01*
X0142240Y0063081D01*
X0142919Y0063760D01*
X0143399Y0064592D01*
X0143648Y0065520D01*
Y0066480D01*
X0143399Y0067408D01*
X0142919Y0068240D01*
X0142240Y0068919D01*
X0141408Y0069399D01*
X0140480Y0069648D01*
X0139520D01*
X0138592Y0069399D01*
X0138061Y0069093D01*
X0134077Y0073077D01*
X0133812Y0073254D01*
X0133500Y0073316D01*
X0133500Y0073316D01*
X0106646D01*
X0106487Y0074116D01*
X0106759Y0074228D01*
X0107181Y0074650D01*
X0107410Y0075202D01*
Y0075798D01*
X0107181Y0076350D01*
X0106759Y0076772D01*
X0106208Y0077000D01*
D02*
G37*
G36*
X0230480Y0079648D02*
X0229520D01*
X0228592Y0079399D01*
X0227760Y0078919D01*
X0227081Y0078240D01*
X0226601Y0077408D01*
X0226352Y0076480D01*
Y0075520D01*
X0226601Y0074592D01*
X0227081Y0073760D01*
X0227760Y0073081D01*
X0228592Y0072601D01*
X0229520Y0072352D01*
X0230480D01*
X0231408Y0072601D01*
X0232240Y0073081D01*
X0232919Y0073760D01*
X0233399Y0074592D01*
X0233648Y0075520D01*
Y0076480D01*
X0233399Y0077408D01*
X0232919Y0078240D01*
X0232240Y0078919D01*
X0231408Y0079399D01*
X0230480Y0079648D01*
D02*
G37*
G36*
X0220480D02*
X0219520D01*
X0218592Y0079399D01*
X0217760Y0078919D01*
X0217081Y0078240D01*
X0216601Y0077408D01*
X0216352Y0076480D01*
Y0075520D01*
X0216601Y0074592D01*
X0217081Y0073760D01*
X0217760Y0073081D01*
X0218592Y0072601D01*
X0219520Y0072352D01*
X0220480D01*
X0221408Y0072601D01*
X0222240Y0073081D01*
X0222919Y0073760D01*
X0223399Y0074592D01*
X0223648Y0075520D01*
Y0076480D01*
X0223399Y0077408D01*
X0222919Y0078240D01*
X0222240Y0078919D01*
X0221408Y0079399D01*
X0220480Y0079648D01*
D02*
G37*
G36*
X0150480D02*
X0149520D01*
X0148592Y0079399D01*
X0147760Y0078919D01*
X0147081Y0078240D01*
X0146601Y0077408D01*
X0146352Y0076480D01*
Y0075520D01*
X0146601Y0074592D01*
X0147081Y0073760D01*
X0147760Y0073081D01*
X0148592Y0072601D01*
X0149520Y0072352D01*
X0150480D01*
X0151408Y0072601D01*
X0152240Y0073081D01*
X0152919Y0073760D01*
X0153399Y0074592D01*
X0153648Y0075520D01*
Y0076480D01*
X0153399Y0077408D01*
X0152919Y0078240D01*
X0152240Y0078919D01*
X0151408Y0079399D01*
X0150480Y0079648D01*
D02*
G37*
G36*
X0140480D02*
X0139520D01*
X0138592Y0079399D01*
X0137760Y0078919D01*
X0137081Y0078240D01*
X0136601Y0077408D01*
X0136352Y0076480D01*
Y0075520D01*
X0136601Y0074592D01*
X0137081Y0073760D01*
X0137760Y0073081D01*
X0138592Y0072601D01*
X0139520Y0072352D01*
X0140480D01*
X0141408Y0072601D01*
X0142240Y0073081D01*
X0142919Y0073760D01*
X0143399Y0074592D01*
X0143648Y0075520D01*
Y0076480D01*
X0143399Y0077408D01*
X0142919Y0078240D01*
X0142240Y0078919D01*
X0141408Y0079399D01*
X0140480Y0079648D01*
D02*
G37*
G36*
X0084554Y0067500D02*
X0083957D01*
X0083406Y0067272D01*
X0082984Y0066850D01*
X0082756Y0066298D01*
Y0065702D01*
X0082984Y0065150D01*
X0083406Y0064728D01*
X0083957Y0064500D01*
X0084554D01*
X0085106Y0064728D01*
X0085527Y0065150D01*
X0085756Y0065702D01*
Y0066298D01*
X0085527Y0066850D01*
X0085106Y0067272D01*
X0084554Y0067500D01*
D02*
G37*
G36*
X0230480Y0069648D02*
X0229520D01*
X0228592Y0069399D01*
X0227760Y0068919D01*
X0227081Y0068240D01*
X0226601Y0067408D01*
X0226352Y0066480D01*
Y0065520D01*
X0226601Y0064592D01*
X0227081Y0063760D01*
X0227760Y0063081D01*
X0228592Y0062601D01*
X0229520Y0062352D01*
X0230480D01*
X0231408Y0062601D01*
X0232240Y0063081D01*
X0232919Y0063760D01*
X0233399Y0064592D01*
X0233648Y0065520D01*
Y0066480D01*
X0233399Y0067408D01*
X0232919Y0068240D01*
X0232240Y0068919D01*
X0231408Y0069399D01*
X0230480Y0069648D01*
D02*
G37*
G36*
X0220480D02*
X0219520D01*
X0218592Y0069399D01*
X0217760Y0068919D01*
X0217081Y0068240D01*
X0216601Y0067408D01*
X0216352Y0066480D01*
Y0065520D01*
X0216601Y0064592D01*
X0217081Y0063760D01*
X0217760Y0063081D01*
X0218592Y0062601D01*
X0219520Y0062352D01*
X0220480D01*
X0221408Y0062601D01*
X0222240Y0063081D01*
X0222919Y0063760D01*
X0223399Y0064592D01*
X0223648Y0065520D01*
Y0066480D01*
X0223399Y0067408D01*
X0222919Y0068240D01*
X0222240Y0068919D01*
X0221408Y0069399D01*
X0220480Y0069648D01*
D02*
G37*
G36*
X0150480D02*
X0149520D01*
X0148592Y0069399D01*
X0147760Y0068919D01*
X0147081Y0068240D01*
X0146601Y0067408D01*
X0146352Y0066480D01*
Y0065520D01*
X0146601Y0064592D01*
X0147081Y0063760D01*
X0147760Y0063081D01*
X0148592Y0062601D01*
X0149520Y0062352D01*
X0150480D01*
X0151408Y0062601D01*
X0152240Y0063081D01*
X0152919Y0063760D01*
X0153399Y0064592D01*
X0153648Y0065520D01*
Y0066480D01*
X0153399Y0067408D01*
X0152919Y0068240D01*
X0152240Y0068919D01*
X0151408Y0069399D01*
X0150480Y0069648D01*
D02*
G37*
G36*
X0011441Y0066853D02*
X0010559D01*
X0009706Y0066624D01*
X0008941Y0066183D01*
X0008317Y0065559D01*
X0007876Y0064794D01*
X0007647Y0063941D01*
Y0063059D01*
X0007876Y0062206D01*
X0008317Y0061441D01*
X0008941Y0060817D01*
X0009706Y0060376D01*
X0010559Y0060147D01*
X0011441D01*
X0012294Y0060376D01*
X0013059Y0060817D01*
X0013683Y0061441D01*
X0014124Y0062206D01*
X0014353Y0063059D01*
Y0063941D01*
X0014124Y0064794D01*
X0013683Y0065559D01*
X0013059Y0066183D01*
X0012294Y0066624D01*
X0011441Y0066853D01*
D02*
G37*
G36*
X0106310Y0061000D02*
X0105713D01*
X0105162Y0060772D01*
X0104740Y0060350D01*
X0104512Y0059798D01*
Y0059202D01*
X0104740Y0058650D01*
X0105162Y0058228D01*
X0105713Y0058000D01*
X0106310D01*
X0106861Y0058228D01*
X0107283Y0058650D01*
X0107512Y0059202D01*
Y0059798D01*
X0107283Y0060350D01*
X0106861Y0060772D01*
X0106310Y0061000D01*
D02*
G37*
G36*
X0075287D02*
X0074690D01*
X0074138Y0060772D01*
X0073717Y0060350D01*
X0073488Y0059798D01*
Y0059202D01*
X0073717Y0058650D01*
X0074138Y0058228D01*
X0074690Y0058000D01*
X0075287D01*
X0075838Y0058228D01*
X0076260Y0058650D01*
X0076488Y0059202D01*
Y0059798D01*
X0076260Y0060350D01*
X0075838Y0060772D01*
X0075287Y0061000D01*
D02*
G37*
G36*
X0021441Y0066853D02*
X0020559D01*
X0019706Y0066624D01*
X0018941Y0066183D01*
X0018317Y0065559D01*
X0017876Y0064794D01*
X0017647Y0063941D01*
Y0063059D01*
X0017876Y0062206D01*
X0018317Y0061441D01*
X0018941Y0060817D01*
X0019706Y0060376D01*
X0020559Y0060147D01*
X0021441D01*
X0022294Y0060376D01*
X0022723Y0060623D01*
X0029923Y0053423D01*
X0029923Y0053423D01*
X0030188Y0053246D01*
X0030500Y0053184D01*
X0030500Y0053184D01*
X0064714D01*
X0064728Y0053150D01*
X0065150Y0052728D01*
X0065702Y0052500D01*
X0066298D01*
X0066850Y0052728D01*
X0067272Y0053150D01*
X0067500Y0053702D01*
Y0054298D01*
X0067272Y0054850D01*
X0066850Y0055272D01*
X0066298Y0055500D01*
X0065702D01*
X0065150Y0055272D01*
X0064728Y0054850D01*
X0064714Y0054816D01*
X0030838D01*
X0023877Y0061777D01*
X0024124Y0062206D01*
X0024353Y0063059D01*
Y0063941D01*
X0024124Y0064794D01*
X0023683Y0065559D01*
X0023059Y0066183D01*
X0022294Y0066624D01*
X0021441Y0066853D01*
D02*
G37*
G36*
X0230480Y0059648D02*
X0229520D01*
X0228592Y0059399D01*
X0227760Y0058919D01*
X0227081Y0058240D01*
X0226601Y0057408D01*
X0226352Y0056480D01*
Y0055520D01*
X0226601Y0054592D01*
X0227081Y0053760D01*
X0227760Y0053081D01*
X0228592Y0052601D01*
X0229520Y0052352D01*
X0230480D01*
X0231408Y0052601D01*
X0232240Y0053081D01*
X0232919Y0053760D01*
X0233399Y0054592D01*
X0233648Y0055520D01*
Y0056480D01*
X0233399Y0057408D01*
X0232919Y0058240D01*
X0232240Y0058919D01*
X0231408Y0059399D01*
X0230480Y0059648D01*
D02*
G37*
G36*
X0220480D02*
X0219520D01*
X0218592Y0059399D01*
X0217760Y0058919D01*
X0217081Y0058240D01*
X0216601Y0057408D01*
X0216352Y0056480D01*
Y0055520D01*
X0216601Y0054592D01*
X0217081Y0053760D01*
X0217760Y0053081D01*
X0218592Y0052601D01*
X0219520Y0052352D01*
X0220480D01*
X0221408Y0052601D01*
X0222240Y0053081D01*
X0222919Y0053760D01*
X0223399Y0054592D01*
X0223648Y0055520D01*
Y0056480D01*
X0223399Y0057408D01*
X0222919Y0058240D01*
X0222240Y0058919D01*
X0221408Y0059399D01*
X0220480Y0059648D01*
D02*
G37*
G36*
X0086212Y0053100D02*
X0085615D01*
X0085064Y0052872D01*
X0084642Y0052450D01*
X0084413Y0051898D01*
Y0051302D01*
X0084642Y0050750D01*
X0085064Y0050328D01*
X0085615Y0050100D01*
X0086212D01*
X0086763Y0050328D01*
X0087185Y0050750D01*
X0087413Y0051302D01*
Y0051898D01*
X0087185Y0052450D01*
X0086763Y0052872D01*
X0086212Y0053100D01*
D02*
G37*
G36*
X0044798Y0049500D02*
X0044202D01*
X0043650Y0049272D01*
X0043228Y0048850D01*
X0043000Y0048298D01*
Y0047702D01*
X0043228Y0047150D01*
X0043650Y0046728D01*
X0044202Y0046500D01*
X0044798D01*
X0045350Y0046728D01*
X0045772Y0047150D01*
X0046000Y0047702D01*
Y0048298D01*
X0045772Y0048850D01*
X0045350Y0049272D01*
X0044798Y0049500D01*
D02*
G37*
G36*
X0169145Y0048500D02*
X0168548D01*
X0167997Y0048272D01*
X0167575Y0047850D01*
X0167346Y0047298D01*
Y0046702D01*
X0167575Y0046150D01*
X0167997Y0045728D01*
X0168548Y0045500D01*
X0169145D01*
X0169696Y0045728D01*
X0170118Y0046150D01*
X0170346Y0046702D01*
Y0047298D01*
X0170118Y0047850D01*
X0169696Y0048272D01*
X0169145Y0048500D01*
D02*
G37*
G36*
X0160798Y0047500D02*
X0160202D01*
X0159650Y0047272D01*
X0159228Y0046850D01*
X0159000Y0046298D01*
Y0045702D01*
X0159228Y0045150D01*
X0159650Y0044728D01*
X0160202Y0044500D01*
X0160798D01*
X0161350Y0044728D01*
X0161772Y0045150D01*
X0162000Y0045702D01*
Y0046298D01*
X0161772Y0046850D01*
X0161350Y0047272D01*
X0160798Y0047500D01*
D02*
G37*
G36*
X0081054D02*
X0080458D01*
X0079906Y0047272D01*
X0079484Y0046850D01*
X0079256Y0046298D01*
Y0045702D01*
X0079484Y0045150D01*
X0079906Y0044728D01*
X0080458Y0044500D01*
X0081054D01*
X0081606Y0044728D01*
X0082028Y0045150D01*
X0082256Y0045702D01*
Y0046298D01*
X0082028Y0046850D01*
X0081606Y0047272D01*
X0081054Y0047500D01*
D02*
G37*
G36*
X0230480Y0049648D02*
X0229520D01*
X0228592Y0049399D01*
X0227760Y0048919D01*
X0227081Y0048240D01*
X0226601Y0047408D01*
X0226352Y0046480D01*
Y0045520D01*
X0226601Y0044592D01*
X0227081Y0043760D01*
X0227760Y0043081D01*
X0228592Y0042601D01*
X0229520Y0042352D01*
X0230480D01*
X0231408Y0042601D01*
X0232240Y0043081D01*
X0232919Y0043760D01*
X0233399Y0044592D01*
X0233648Y0045520D01*
Y0046480D01*
X0233399Y0047408D01*
X0232919Y0048240D01*
X0232240Y0048919D01*
X0231408Y0049399D01*
X0230480Y0049648D01*
D02*
G37*
G36*
X0220480D02*
X0219520D01*
X0218592Y0049399D01*
X0217760Y0048919D01*
X0217081Y0048240D01*
X0216601Y0047408D01*
X0216352Y0046480D01*
Y0045520D01*
X0216601Y0044592D01*
X0217081Y0043760D01*
X0217760Y0043081D01*
X0218592Y0042601D01*
X0219520Y0042352D01*
X0220480D01*
X0221408Y0042601D01*
X0222240Y0043081D01*
X0222919Y0043760D01*
X0223399Y0044592D01*
X0223648Y0045520D01*
Y0046480D01*
X0223399Y0047408D01*
X0222919Y0048240D01*
X0222240Y0048919D01*
X0221408Y0049399D01*
X0220480Y0049648D01*
D02*
G37*
G36*
X0150480D02*
X0149520D01*
X0148592Y0049399D01*
X0147760Y0048919D01*
X0147081Y0048240D01*
X0146601Y0047408D01*
X0146352Y0046480D01*
Y0045520D01*
X0146601Y0044592D01*
X0147081Y0043760D01*
X0147760Y0043081D01*
X0148592Y0042601D01*
X0149520Y0042352D01*
X0150480D01*
X0151408Y0042601D01*
X0152240Y0043081D01*
X0152919Y0043760D01*
X0153399Y0044592D01*
X0153648Y0045520D01*
Y0046480D01*
X0153399Y0047408D01*
X0152919Y0048240D01*
X0152240Y0048919D01*
X0151408Y0049399D01*
X0150480Y0049648D01*
D02*
G37*
G36*
X0140480D02*
X0139520D01*
X0138592Y0049399D01*
X0137760Y0048919D01*
X0137081Y0048240D01*
X0136601Y0047408D01*
X0136352Y0046480D01*
Y0045520D01*
X0136601Y0044592D01*
X0137081Y0043760D01*
X0137760Y0043081D01*
X0138592Y0042601D01*
X0139520Y0042352D01*
X0140480D01*
X0141408Y0042601D01*
X0142240Y0043081D01*
X0142919Y0043760D01*
X0143399Y0044592D01*
X0143648Y0045520D01*
Y0046480D01*
X0143399Y0047408D01*
X0142919Y0048240D01*
X0142240Y0048919D01*
X0141408Y0049399D01*
X0140480Y0049648D01*
D02*
G37*
G36*
X0041298Y0044000D02*
X0040702D01*
X0040150Y0043772D01*
X0039728Y0043350D01*
X0039500Y0042798D01*
Y0042202D01*
X0039728Y0041650D01*
X0040150Y0041228D01*
X0040702Y0041000D01*
X0041298D01*
X0041850Y0041228D01*
X0042200Y0041579D01*
X0042533Y0041537D01*
X0043000Y0041333D01*
Y0041009D01*
X0043228Y0040457D01*
X0043650Y0040036D01*
X0044202Y0039807D01*
X0044798D01*
X0045350Y0040036D01*
X0045772Y0040457D01*
X0046000Y0041009D01*
Y0041605D01*
X0045772Y0042157D01*
X0045350Y0042579D01*
X0044798Y0042807D01*
X0044202D01*
X0043650Y0042579D01*
X0043300Y0042228D01*
X0042967Y0042271D01*
X0042500Y0042474D01*
Y0042798D01*
X0042272Y0043350D01*
X0041850Y0043772D01*
X0041298Y0044000D01*
D02*
G37*
G36*
X0207298Y0042654D02*
X0206702D01*
X0206150Y0042425D01*
X0205728Y0042003D01*
X0205500Y0041452D01*
Y0040855D01*
X0205728Y0040304D01*
X0206150Y0039882D01*
X0206702Y0039654D01*
X0207298D01*
X0207850Y0039882D01*
X0208272Y0040304D01*
X0208500Y0040855D01*
Y0041452D01*
X0208272Y0042003D01*
X0207850Y0042425D01*
X0207298Y0042654D01*
D02*
G37*
G36*
X0037298Y0039000D02*
X0036702D01*
X0036150Y0038772D01*
X0035728Y0038350D01*
X0035500Y0037798D01*
Y0037202D01*
X0035728Y0036650D01*
X0036150Y0036228D01*
X0036702Y0036000D01*
X0037298D01*
X0037850Y0036228D01*
X0038272Y0036650D01*
X0038500Y0037202D01*
Y0037798D01*
X0038272Y0038350D01*
X0037850Y0038772D01*
X0037298Y0039000D01*
D02*
G37*
G36*
X0088452Y0037000D02*
X0087855D01*
X0087304Y0036772D01*
X0086882Y0036350D01*
X0086654Y0035798D01*
Y0035202D01*
X0086882Y0034650D01*
X0087304Y0034228D01*
X0087855Y0034000D01*
X0088452D01*
X0089003Y0034228D01*
X0089425Y0034650D01*
X0089654Y0035202D01*
Y0035798D01*
X0089425Y0036350D01*
X0089003Y0036772D01*
X0088452Y0037000D01*
D02*
G37*
G36*
X0230480Y0039648D02*
X0229520D01*
X0228592Y0039399D01*
X0227760Y0038919D01*
X0227081Y0038240D01*
X0226601Y0037408D01*
X0226352Y0036480D01*
Y0035520D01*
X0226601Y0034592D01*
X0227081Y0033760D01*
X0227760Y0033081D01*
X0228592Y0032601D01*
X0229520Y0032352D01*
X0230480D01*
X0231408Y0032601D01*
X0232240Y0033081D01*
X0232919Y0033760D01*
X0233399Y0034592D01*
X0233648Y0035520D01*
Y0036480D01*
X0233399Y0037408D01*
X0232919Y0038240D01*
X0232240Y0038919D01*
X0231408Y0039399D01*
X0230480Y0039648D01*
D02*
G37*
G36*
X0220480D02*
X0219520D01*
X0218592Y0039399D01*
X0217760Y0038919D01*
X0217081Y0038240D01*
X0216601Y0037408D01*
X0216352Y0036480D01*
Y0035520D01*
X0216601Y0034592D01*
X0217081Y0033760D01*
X0217760Y0033081D01*
X0218592Y0032601D01*
X0219520Y0032352D01*
X0220480D01*
X0221408Y0032601D01*
X0222240Y0033081D01*
X0222919Y0033760D01*
X0223399Y0034592D01*
X0223648Y0035520D01*
Y0036480D01*
X0223399Y0037408D01*
X0222919Y0038240D01*
X0222240Y0038919D01*
X0221408Y0039399D01*
X0220480Y0039648D01*
D02*
G37*
G36*
X0150480D02*
X0149520D01*
X0148592Y0039399D01*
X0147760Y0038919D01*
X0147081Y0038240D01*
X0146601Y0037408D01*
X0146352Y0036480D01*
Y0035520D01*
X0146601Y0034592D01*
X0147081Y0033760D01*
X0147760Y0033081D01*
X0148592Y0032601D01*
X0149520Y0032352D01*
X0150480D01*
X0151408Y0032601D01*
X0152240Y0033081D01*
X0152919Y0033760D01*
X0153399Y0034592D01*
X0153648Y0035520D01*
Y0036480D01*
X0153399Y0037408D01*
X0152919Y0038240D01*
X0152240Y0038919D01*
X0151408Y0039399D01*
X0150480Y0039648D01*
D02*
G37*
G36*
X0137000Y0039816D02*
X0137000Y0039816D01*
X0083500D01*
X0083188Y0039754D01*
X0082923Y0039577D01*
X0082923Y0039577D01*
X0079162Y0035816D01*
X0072786D01*
X0072772Y0035850D01*
X0072350Y0036272D01*
X0071798Y0036500D01*
X0071202D01*
X0070650Y0036272D01*
X0070228Y0035850D01*
X0070000Y0035298D01*
Y0034702D01*
X0070228Y0034150D01*
X0070650Y0033728D01*
X0071202Y0033500D01*
X0071798D01*
X0072350Y0033728D01*
X0072772Y0034150D01*
X0072786Y0034184D01*
X0079500D01*
X0079500Y0034184D01*
X0079812Y0034246D01*
X0080077Y0034423D01*
X0083838Y0038184D01*
X0136125D01*
X0136601Y0037408D01*
X0136352Y0036480D01*
Y0035520D01*
X0136601Y0034592D01*
X0137081Y0033760D01*
X0137760Y0033081D01*
X0138592Y0032601D01*
X0139520Y0032352D01*
X0140480D01*
X0141408Y0032601D01*
X0142240Y0033081D01*
X0142919Y0033760D01*
X0143399Y0034592D01*
X0143648Y0035520D01*
Y0036480D01*
X0143399Y0037408D01*
X0142919Y0038240D01*
X0142240Y0038919D01*
X0141408Y0039399D01*
X0140480Y0039648D01*
X0139520D01*
X0138592Y0039399D01*
X0138061Y0039093D01*
X0137577Y0039577D01*
X0137312Y0039754D01*
X0137000Y0039816D01*
D02*
G37*
G36*
X0101145Y0031400D02*
X0100548D01*
X0099997Y0031172D01*
X0099575Y0030750D01*
X0099347Y0030198D01*
Y0029602D01*
X0099575Y0029050D01*
X0099997Y0028628D01*
X0100548Y0028400D01*
X0101145D01*
X0101696Y0028628D01*
X0102118Y0029050D01*
X0102347Y0029602D01*
Y0030198D01*
X0102118Y0030750D01*
X0101696Y0031172D01*
X0101145Y0031400D01*
D02*
G37*
G36*
X0065798Y0028000D02*
X0065202D01*
X0064650Y0027772D01*
X0064228Y0027350D01*
X0064000Y0026798D01*
Y0026202D01*
X0064228Y0025650D01*
X0064650Y0025228D01*
X0065202Y0025000D01*
X0065798D01*
X0066350Y0025228D01*
X0066772Y0025650D01*
X0067000Y0026202D01*
Y0026798D01*
X0066772Y0027350D01*
X0066350Y0027772D01*
X0065798Y0028000D01*
D02*
G37*
G36*
X0100620Y0020102D02*
X0099380D01*
X0099302Y0020087D01*
X0099223D01*
X0098006Y0019845D01*
X0097933Y0019814D01*
X0097855Y0019799D01*
X0096709Y0019324D01*
X0096643Y0019280D01*
X0096570Y0019250D01*
X0095539Y0018560D01*
X0095483Y0018505D01*
X0095417Y0018461D01*
X0094539Y0017583D01*
X0094495Y0017517D01*
X0094440Y0017461D01*
X0093750Y0016430D01*
X0093720Y0016357D01*
X0093676Y0016291D01*
X0093201Y0015145D01*
X0093186Y0015067D01*
X0093155Y0014994D01*
X0092913Y0013777D01*
Y0013698D01*
X0092898Y0013620D01*
Y0012380D01*
X0092913Y0012302D01*
Y0012223D01*
X0093155Y0011006D01*
X0093186Y0010933D01*
X0093201Y0010855D01*
X0093676Y0009709D01*
X0093720Y0009643D01*
X0093750Y0009570D01*
X0094440Y0008539D01*
X0094495Y0008483D01*
X0094539Y0008417D01*
X0095417Y0007539D01*
X0095483Y0007495D01*
X0095539Y0007440D01*
X0096570Y0006750D01*
X0096643Y0006720D01*
X0096709Y0006676D01*
X0097855Y0006201D01*
X0097933Y0006186D01*
X0098006Y0006155D01*
X0099223Y0005913D01*
X0099302D01*
X0099380Y0005898D01*
X0100620D01*
X0100698Y0005913D01*
X0100777D01*
X0101994Y0006155D01*
X0102067Y0006186D01*
X0102145Y0006201D01*
X0103291Y0006676D01*
X0103357Y0006720D01*
X0103430Y0006750D01*
X0104462Y0007440D01*
X0104517Y0007495D01*
X0104583Y0007539D01*
X0105461Y0008417D01*
X0105505Y0008483D01*
X0105560Y0008539D01*
X0106250Y0009570D01*
X0106280Y0009643D01*
X0106324Y0009709D01*
X0106799Y0010855D01*
X0106814Y0010933D01*
X0106844Y0011006D01*
X0107087Y0012223D01*
Y0012302D01*
X0107102Y0012380D01*
Y0013620D01*
X0107087Y0013698D01*
Y0013777D01*
X0106844Y0014994D01*
X0106814Y0015067D01*
X0106799Y0015145D01*
X0106324Y0016291D01*
X0106280Y0016357D01*
X0106250Y0016430D01*
X0105560Y0017461D01*
X0105505Y0017517D01*
X0105461Y0017583D01*
X0104583Y0018461D01*
X0104517Y0018505D01*
X0104462Y0018560D01*
X0103430Y0019250D01*
X0103357Y0019280D01*
X0103291Y0019324D01*
X0102145Y0019799D01*
X0102067Y0019814D01*
X0101994Y0019845D01*
X0100777Y0020087D01*
X0100698D01*
X0100620Y0020102D01*
D02*
G37*
%LPD*%
G36*
X0058750Y0121750D02*
X0060250Y0120250D01*
X0111000D01*
Y0118750D01*
X0057250Y0118750D01*
X0052374D01*
Y0120250D01*
X0055750D01*
X0057250Y0121750D01*
Y0142374D01*
X0058750D01*
X0058750Y0121750D01*
D02*
G37*
D21*
X0172362Y0284500D02*
D03*
X0165669D02*
D03*
X0182846Y0320500D02*
D03*
X0176154D02*
D03*
X0196153Y0320472D02*
D03*
X0202847D02*
D03*
X0205654Y0284500D02*
D03*
X0212347D02*
D03*
D64*
X0203673Y0300590D02*
D03*
D65*
X0175327D02*
D03*
D66*
X0209579Y0302087D02*
D03*
X0169421D02*
D03*
X0212335Y0320472D02*
D03*
X0166665D02*
D03*
D73*
X0060347Y0221500D02*
X0094153D01*
X0052000Y0229847D02*
X0060347Y0221500D01*
X0098750Y0288500D02*
X0106750Y0296500D01*
X0115500D01*
X0094800Y0279300D02*
X0105000Y0289500D01*
X0116000D02*
X0147800Y0257700D01*
X0105000Y0289500D02*
X0116000D01*
X0089100Y0279300D02*
X0094800D01*
X0085100Y0283300D02*
X0089100Y0279300D01*
X0085100Y0283300D02*
Y0296144D01*
X0074244Y0307000D02*
X0085100Y0296144D01*
X0082500Y0276000D02*
X0096600D01*
X0106600Y0286000D02*
X0109500D01*
X0096600Y0276000D02*
X0106600Y0286000D01*
X0091500Y0283154D02*
X0093404D01*
X0098750Y0288500D01*
X0053250Y0246750D02*
X0082500Y0276000D01*
X0040500Y0106000D02*
X0049500Y0097000D01*
X0068000D01*
X0070969Y0099968D01*
X0091843D01*
X0122000Y0170000D02*
Y0182000D01*
X0085921Y0170240D02*
X0126661Y0129500D01*
X0136500D02*
X0140000Y0126000D01*
X0126661Y0129500D02*
X0136500D01*
X0096921Y0145240D02*
X0105260D01*
X0134500Y0116000D01*
X0140000D01*
X0118500Y0127000D02*
X0139500Y0106000D01*
X0140000D01*
X0155500Y0242000D02*
X0166200Y0252700D01*
X0155500Y0121500D02*
Y0242000D01*
X0166200Y0252700D02*
Y0255600D01*
X0150000Y0116000D02*
X0155500Y0121500D01*
X0115512Y0068000D02*
X0123012Y0060500D01*
X0159000D01*
X0162500Y0064000D02*
X0207000D01*
X0159000Y0060500D02*
X0162500Y0064000D01*
X0030500Y0054000D02*
X0066000D01*
X0021000Y0063500D02*
X0030500Y0054000D01*
X0133500Y0072500D02*
X0140000Y0066000D01*
X0092000Y0072500D02*
X0133500D01*
X0089500Y0075000D02*
X0092000Y0072500D01*
X0137000Y0039000D02*
X0140000Y0036000D01*
X0083500Y0039000D02*
X0137000D01*
X0079500Y0035000D02*
X0083500Y0039000D01*
X0071500Y0035000D02*
X0079500D01*
X0141510Y0285000D02*
X0152900D01*
X0163200Y0274700D01*
X0177334D01*
X0181134Y0278500D01*
X0164100Y0257700D02*
X0166200Y0255600D01*
X0147800Y0257700D02*
X0164100D01*
X0132300Y0260700D02*
X0139455D01*
X0145355Y0254800D01*
X0162200D01*
X0124000Y0269000D02*
X0132300Y0260700D01*
X0098000Y0271000D02*
X0113500Y0286500D01*
X0095500Y0272000D02*
X0109500Y0286000D01*
X0068500Y0210500D02*
X0076500Y0202500D01*
X0212335Y0320472D02*
X0212335Y0320472D01*
X0202847Y0320472D02*
X0212335D01*
X0198382Y0284500D02*
X0205654D01*
X0209579Y0294921D02*
Y0302087D01*
X0191000Y0315354D02*
X0197866Y0308488D01*
X0192472Y0320472D02*
X0196153D01*
X0191000Y0315354D02*
Y0319000D01*
X0192472Y0320472D01*
X0212347Y0284500D02*
X0216000D01*
X0217000Y0285500D02*
Y0287500D01*
X0216000Y0284500D02*
X0217000Y0285500D01*
X0209579Y0294921D02*
X0217000Y0287500D01*
X0166693Y0320500D02*
X0176154D01*
X0166665Y0320472D02*
X0166693Y0320500D01*
X0186500D02*
X0187500Y0319500D01*
X0182846Y0320500D02*
X0186500D01*
X0182118Y0308488D02*
X0187500Y0313870D01*
X0068500Y0210500D02*
Y0218000D01*
X0119031Y0204000D02*
X0119500Y0203531D01*
X0132500Y0137775D02*
Y0153000D01*
X0073500Y0212500D02*
X0082000Y0204000D01*
X0119031D01*
X0187500Y0313870D02*
Y0319500D01*
X0172362Y0284500D02*
X0179634D01*
X0181134Y0286000D01*
X0161500Y0284500D02*
X0165669D01*
X0159500Y0286500D02*
X0161500Y0284500D01*
X0159500Y0286500D02*
Y0292165D01*
X0166620Y0299285D01*
X0167608D02*
X0169421Y0301098D01*
X0166620Y0299285D02*
X0167608D01*
X0169421Y0301098D02*
Y0302087D01*
X0189894Y0286000D02*
X0192230Y0288336D01*
X0197866Y0294366D02*
Y0308488D01*
X0192230Y0288730D02*
X0197866Y0294366D01*
X0192230Y0288336D02*
Y0288730D01*
X0189894Y0286000D02*
X0196882D01*
X0186770Y0288336D02*
Y0288730D01*
Y0288336D02*
X0189106Y0286000D01*
X0189894D01*
X0181134D02*
X0189106D01*
X0182118Y0293382D02*
X0186770Y0288730D01*
X0182118Y0293382D02*
Y0308488D01*
X0196882Y0286000D02*
X0198382Y0284500D01*
X0118000Y0266000D02*
X0123000Y0261000D01*
X0034154Y0246750D02*
X0053250D01*
X0102200Y0241454D02*
X0106653Y0237000D01*
X0074500Y0227500D02*
X0097154D01*
X0106653Y0237000D01*
X0102200Y0241454D02*
Y0259300D01*
X0107307Y0266000D02*
X0118000D01*
X0106653Y0237000D02*
Y0237000D01*
X0095500Y0266000D02*
Y0272000D01*
Y0266000D02*
X0102200Y0259300D01*
X0134000Y0185500D02*
Y0196000D01*
X0118000Y0167500D02*
X0132500Y0153000D01*
X0119500Y0168000D02*
X0134000Y0153500D01*
X0130000Y0224500D02*
X0133500Y0221000D01*
X0088500Y0212500D02*
X0092500Y0208500D01*
X0098000Y0268500D02*
Y0271000D01*
Y0268500D02*
X0105000Y0261500D01*
X0103000Y0269000D02*
X0124000D01*
X0101000Y0271000D02*
X0103000Y0269000D01*
X0130300Y0169200D02*
Y0197700D01*
X0121000Y0207000D02*
X0130300Y0197700D01*
X0135500Y0153000D02*
X0137500Y0151000D01*
X0143000Y0181000D02*
X0145000Y0179000D01*
X0138500Y0181000D02*
X0143000D01*
X0145000Y0171000D02*
X0150000Y0166000D01*
X0145000Y0171000D02*
Y0179000D01*
X0138500Y0161000D02*
X0145000D01*
Y0151000D02*
X0150000Y0146000D01*
X0083500Y0212500D02*
X0089000Y0207000D01*
X0092500Y0208500D02*
X0121500D01*
X0137500Y0151000D02*
X0145000D01*
X0130300Y0169200D02*
X0138500Y0161000D01*
X0089000Y0207000D02*
X0121000D01*
X0121500Y0212500D02*
X0133000Y0201000D01*
X0116500Y0219500D02*
X0125000Y0211000D01*
X0135500Y0194000D02*
Y0196500D01*
X0125000Y0211000D02*
X0145000D01*
X0133000Y0170000D02*
Y0182000D01*
X0127500Y0170000D02*
Y0182000D01*
X0145000Y0131000D02*
X0150000Y0126000D01*
X0139275Y0141000D02*
X0145000D01*
X0117531Y0202500D02*
X0118000Y0202031D01*
X0119500Y0168000D02*
Y0203531D01*
X0134000Y0146275D02*
X0139275Y0141000D01*
X0132500Y0137775D02*
X0139275Y0131000D01*
X0145000D01*
X0134000Y0146275D02*
Y0153500D01*
X0078500Y0212500D02*
X0085500Y0205500D01*
X0120500D01*
X0145000Y0191000D02*
X0150000Y0186000D01*
X0116500Y0224500D02*
X0130000D01*
X0145000Y0221000D02*
X0150000Y0216000D01*
X0133500Y0221000D02*
X0145000D01*
X0138500Y0191000D02*
X0145000D01*
X0098500Y0212500D02*
X0121500D01*
X0116500Y0229500D02*
X0127500D01*
X0130500Y0232500D01*
X0096000Y0210000D02*
X0122000D01*
X0145000Y0211000D02*
X0150000Y0206000D01*
X0135500Y0194000D02*
X0138500Y0191000D01*
X0118000Y0167500D02*
Y0202031D01*
X0145000Y0161000D02*
X0150000Y0156000D01*
X0124700Y0168800D02*
X0135500Y0158000D01*
Y0153000D02*
Y0158000D01*
X0145000Y0141000D02*
X0150000Y0136000D01*
X0145000Y0201000D02*
X0150000Y0196000D01*
X0121500Y0208500D02*
X0134000Y0196000D01*
X0076500Y0202500D02*
X0117531D01*
X0120500Y0205500D02*
X0124700Y0201300D01*
X0134000Y0185500D02*
X0138500Y0181000D01*
X0133000Y0201000D02*
X0145000D01*
X0124700Y0168800D02*
Y0201300D01*
X0122000Y0210000D02*
X0135500Y0196500D01*
X0130500Y0232500D02*
X0143500D01*
X0150000Y0226000D01*
X0093500Y0212500D02*
X0096000Y0210000D01*
D74*
X0158990Y0223490D02*
X0174000Y0238500D01*
Y0262500D01*
X0180500Y0269000D01*
X0019437Y0180937D02*
X0058000Y0142374D01*
X0033437Y0138437D02*
X0052374Y0119500D01*
X0111000D02*
X0129500Y0101000D01*
X0156000D01*
X0158990Y0103990D01*
Y0127000D01*
X0180500Y0269000D02*
X0191500D01*
X0196882Y0274382D02*
Y0278500D01*
X0191500Y0269000D02*
X0196882Y0274382D01*
X0158990Y0127000D02*
Y0223490D01*
X0181134Y0278500D02*
X0189106D01*
X0189894D02*
X0196882D01*
D75*
X0183400Y0251600D02*
Y0251704D01*
X0182445Y0252659D02*
X0183400Y0251704D01*
X0180952Y0259924D02*
X0181356Y0259520D01*
Y0258659D02*
Y0259520D01*
X0180849Y0255567D02*
X0182445Y0253971D01*
Y0252659D02*
Y0253971D01*
X0180400Y0257704D02*
X0181356Y0258659D01*
X0179848Y0259924D02*
X0180952D01*
X0180400Y0257600D02*
Y0257704D01*
X0179558Y0255567D02*
X0180849D01*
X0178366Y0256758D02*
Y0258442D01*
X0179848Y0259924D01*
X0178366Y0256758D02*
X0179558Y0255567D01*
X0182445Y0258659D02*
X0183400Y0257704D01*
X0182445Y0258659D02*
Y0259971D01*
X0183400Y0257600D02*
Y0257704D01*
X0181403Y0261013D02*
X0182445Y0259971D01*
X0181356Y0252659D02*
Y0253520D01*
X0179397Y0261013D02*
X0181403D01*
X0177278Y0256307D02*
Y0258893D01*
X0179397Y0261013D01*
X0179107Y0254478D02*
X0180398D01*
X0181356Y0253520D01*
X0177278Y0256307D02*
X0179107Y0254478D01*
X0180400Y0251704D02*
X0181356Y0252659D01*
X0180400Y0251600D02*
Y0251704D01*
D76*
X0019437Y0180937D02*
D03*
X0015500Y0184874D02*
D03*
Y0177000D02*
D03*
X0029500Y0134500D02*
D03*
X0033437Y0138437D02*
D03*
X0029500Y0142374D02*
D03*
X0020500Y0106000D02*
D03*
X0050500D02*
D03*
D77*
X0010500D02*
D03*
X0040500D02*
D03*
D78*
X0021000Y0063500D02*
D03*
X0011000D02*
D03*
D79*
X0220000Y0226000D02*
D03*
X0140000D02*
D03*
D80*
X0230000D02*
D03*
X0220000Y0216000D02*
D03*
X0230000D02*
D03*
X0220000Y0206000D02*
D03*
X0230000D02*
D03*
X0220000Y0196000D02*
D03*
X0230000D02*
D03*
X0220000Y0186000D02*
D03*
X0230000D02*
D03*
X0220000Y0176000D02*
D03*
X0230000D02*
D03*
X0220000Y0166000D02*
D03*
X0230000D02*
D03*
X0220000Y0156000D02*
D03*
X0230000D02*
D03*
X0220000Y0146000D02*
D03*
X0230000D02*
D03*
X0220000Y0136000D02*
D03*
X0230000D02*
D03*
X0220000Y0126000D02*
D03*
X0230000D02*
D03*
X0220000Y0116000D02*
D03*
X0230000D02*
D03*
X0220000Y0106000D02*
D03*
X0230000D02*
D03*
X0220000Y0096000D02*
D03*
X0230000D02*
D03*
X0220000Y0086000D02*
D03*
X0230000D02*
D03*
X0220000Y0076000D02*
D03*
X0230000D02*
D03*
X0220000Y0066000D02*
D03*
X0230000D02*
D03*
X0220000Y0056000D02*
D03*
X0230000D02*
D03*
X0220000Y0046000D02*
D03*
X0230000D02*
D03*
X0220000Y0036000D02*
D03*
X0230000D02*
D03*
X0150000Y0226000D02*
D03*
X0140000Y0216000D02*
D03*
X0150000D02*
D03*
X0140000Y0206000D02*
D03*
X0150000D02*
D03*
X0140000Y0196000D02*
D03*
X0150000D02*
D03*
X0140000Y0186000D02*
D03*
X0150000D02*
D03*
X0140000Y0176000D02*
D03*
X0150000D02*
D03*
X0140000Y0166000D02*
D03*
X0150000D02*
D03*
X0140000Y0156000D02*
D03*
X0150000D02*
D03*
X0140000Y0146000D02*
D03*
X0150000D02*
D03*
X0140000Y0136000D02*
D03*
X0150000D02*
D03*
X0140000Y0126000D02*
D03*
X0150000D02*
D03*
X0140000Y0116000D02*
D03*
X0150000D02*
D03*
X0140000Y0106000D02*
D03*
X0150000D02*
D03*
X0140000Y0096000D02*
D03*
X0150000D02*
D03*
X0140000Y0086000D02*
D03*
X0150000D02*
D03*
X0140000Y0076000D02*
D03*
X0150000D02*
D03*
X0140000Y0066000D02*
D03*
X0150000D02*
D03*
X0140000Y0056000D02*
D03*
X0150000D02*
D03*
X0140000Y0046000D02*
D03*
X0150000D02*
D03*
X0140000Y0036000D02*
D03*
X0150000D02*
D03*
D81*
X0084700Y0216300D02*
D03*
X0091500Y0283154D02*
D03*
X0123756Y0099500D02*
D03*
X0165000Y0190846D02*
D03*
X0063256Y0100847D02*
D03*
X0091843Y0099968D02*
D03*
X0094500Y0104000D02*
D03*
X0053264Y0190075D02*
D03*
X0070579Y0188240D02*
D03*
X0122000Y0170000D02*
D03*
X0108500Y0176654D02*
D03*
Y0183346D02*
D03*
X0096921Y0145240D02*
D03*
X0097000Y0125980D02*
D03*
X0085921Y0170240D02*
D03*
X0108000Y0152654D02*
D03*
Y0159346D02*
D03*
X0057028Y0165825D02*
D03*
X0070079Y0164240D02*
D03*
X0118500Y0127000D02*
D03*
X0129000Y0108154D02*
D03*
X0082028Y0127075D02*
D03*
X0129000Y0126846D02*
D03*
X0032346Y0200000D02*
D03*
X0010500Y0122154D02*
D03*
X0114500Y0149500D02*
D03*
Y0130807D02*
D03*
X0081079Y0139240D02*
D03*
X0066264Y0140575D02*
D03*
X0158990Y0127000D02*
D03*
X0192000Y0100500D02*
D03*
X0193100Y0145500D02*
D03*
X0164246Y0135653D02*
D03*
X0180235Y0151754D02*
D03*
X0178000Y0189500D02*
D03*
X0182000D02*
D03*
X0188000Y0214500D02*
D03*
Y0205500D02*
D03*
Y0208500D02*
D03*
Y0211500D02*
D03*
X0186000Y0189500D02*
D03*
X0190000D02*
D03*
X0194000Y0173500D02*
D03*
Y0189500D02*
D03*
Y0177500D02*
D03*
Y0185500D02*
D03*
Y0181500D02*
D03*
X0178000Y0173500D02*
D03*
X0182000D02*
D03*
X0190000D02*
D03*
X0178000Y0181500D02*
D03*
X0186000D02*
D03*
X0178000Y0185500D02*
D03*
X0186000D02*
D03*
X0182000Y0181500D02*
D03*
X0190000Y0177500D02*
D03*
Y0185500D02*
D03*
X0182000D02*
D03*
X0186000Y0177500D02*
D03*
X0182000D02*
D03*
X0178000D02*
D03*
X0186000Y0173500D02*
D03*
X0190000Y0181500D02*
D03*
X0162500Y0105000D02*
D03*
X0207000Y0041153D02*
D03*
X0100847Y0029900D02*
D03*
X0207000Y0064000D02*
D03*
X0160500Y0046000D02*
D03*
X0037000Y0037500D02*
D03*
X0041000Y0042500D02*
D03*
X0066000Y0054000D02*
D03*
X0066346Y0085000D02*
D03*
X0060500Y0067500D02*
D03*
X0047654Y0085000D02*
D03*
X0084500Y0086000D02*
D03*
X0119000Y0089500D02*
D03*
X0105910Y0075500D02*
D03*
X0089500Y0075000D02*
D03*
X0115512Y0068000D02*
D03*
X0071500Y0035000D02*
D03*
X0021280Y0038866D02*
D03*
X0084256Y0066000D02*
D03*
X0118602Y0069500D02*
D03*
X0103669Y0092000D02*
D03*
X0099012Y0086500D02*
D03*
X0063256Y0094153D02*
D03*
X0044500Y0048000D02*
D03*
X0065500Y0026500D02*
D03*
X0088154Y0035500D02*
D03*
X0080756Y0046000D02*
D03*
X0106012Y0059500D02*
D03*
X0074988D02*
D03*
X0085913Y0051600D02*
D03*
X0044500Y0041307D02*
D03*
X0141510Y0285000D02*
D03*
X0162200Y0254800D02*
D03*
X0183400Y0251600D02*
D03*
X0180400D02*
D03*
Y0257600D02*
D03*
X0183400D02*
D03*
X0152500Y0279661D02*
D03*
X0113500Y0286500D02*
D03*
X0098750Y0288500D02*
D03*
X0115500Y0296500D02*
D03*
X0168846Y0047000D02*
D03*
X0122000Y0182000D02*
D03*
X0127500Y0170000D02*
D03*
Y0182000D02*
D03*
X0133000D02*
D03*
Y0170000D02*
D03*
X0116500Y0219500D02*
D03*
Y0224500D02*
D03*
Y0229500D02*
D03*
X0098500Y0212500D02*
D03*
X0093500D02*
D03*
X0088500D02*
D03*
X0083500D02*
D03*
X0078500D02*
D03*
X0073500D02*
D03*
X0068500Y0218000D02*
D03*
X0125000Y0221153D02*
D03*
X0058000Y0217154D02*
D03*
X0052000Y0229847D02*
D03*
X0198744Y0086000D02*
D03*
X0109500Y0286000D02*
D03*
X0115500Y0281500D02*
D03*
X0101000Y0271000D02*
D03*
X0205516Y0269500D02*
D03*
X0218254Y0282000D02*
D03*
X0141846Y0272500D02*
D03*
X0123000Y0261000D02*
D03*
X0172500Y0269500D02*
D03*
X0177254Y0278500D02*
D03*
X0147000Y0249654D02*
D03*
X0074244Y0307000D02*
D03*
X0080500Y0256500D02*
D03*
X0071500D02*
D03*
X0074500D02*
D03*
X0117500Y0319500D02*
D03*
X0121500Y0326000D02*
D03*
X0080500Y0253500D02*
D03*
X0077500Y0247500D02*
D03*
Y0250500D02*
D03*
X0080500D02*
D03*
X0077500Y0253500D02*
D03*
X0074500Y0227500D02*
D03*
X0034154Y0246750D02*
D03*
X0041846Y0265500D02*
D03*
X0071500Y0259500D02*
D03*
X0074500Y0262500D02*
D03*
Y0259500D02*
D03*
X0046847Y0319000D02*
D03*
X0040154Y0269000D02*
D03*
X0029154Y0259500D02*
D03*
X0050000Y0269000D02*
D03*
X0061500Y0288846D02*
D03*
X0069500D02*
D03*
X0065500Y0288846D02*
D03*
X0073500D02*
D03*
X0059153Y0295000D02*
D03*
X0071593Y0262406D02*
D03*
X0074500Y0253500D02*
D03*
X0034154Y0242500D02*
D03*
X0071500Y0244500D02*
D03*
Y0247500D02*
D03*
X0074500Y0250500D02*
D03*
Y0247500D02*
D03*
Y0244500D02*
D03*
X0071500Y0250500D02*
D03*
Y0253500D02*
D03*
X0034154Y0251000D02*
D03*
X0077500Y0244500D02*
D03*
X0080500D02*
D03*
Y0247500D02*
D03*
X0083500Y0244500D02*
D03*
X0119000Y0233846D02*
D03*
X0113346Y0237000D02*
D03*
X0120000Y0272000D02*
D03*
X0107307Y0266000D02*
D03*
X0135256Y0255000D02*
D03*
X0089500Y0253500D02*
D03*
X0086500Y0250500D02*
D03*
X0083500Y0247500D02*
D03*
X0086500Y0244500D02*
D03*
X0089500D02*
D03*
X0078500Y0295500D02*
D03*
X0077500Y0256500D02*
D03*
Y0262500D02*
D03*
Y0259500D02*
D03*
X0080500Y0262500D02*
D03*
Y0259500D02*
D03*
X0086500Y0262500D02*
D03*
X0083500D02*
D03*
X0089500D02*
D03*
X0079500Y0289000D02*
D03*
X0082500Y0276000D02*
D03*
X0089500Y0256500D02*
D03*
X0094153Y0221500D02*
D03*
X0105000Y0261500D02*
D03*
X0106846Y0227500D02*
D03*
X0106653Y0237000D02*
D03*
X0089500Y0259500D02*
D03*
X0086500Y0253500D02*
D03*
Y0256500D02*
D03*
X0083500D02*
D03*
Y0253500D02*
D03*
Y0259500D02*
D03*
X0086500D02*
D03*
X0083500Y0250500D02*
D03*
X0086500Y0247500D02*
D03*
X0089500Y0250500D02*
D03*
Y0247500D02*
D03*
X0196882Y0286000D02*
D03*
X0182118Y0308488D02*
D03*
X0196882Y0278500D02*
D03*
X0181134D02*
D03*
X0197866Y0308488D02*
D03*
X0181134Y0286000D02*
D03*
D82*
X0174000Y0238500D02*
D03*
D83*
X0189500Y0286000D02*
D03*
Y0278480D02*
D03*
M02*
