G04*
G04 #@! TF.GenerationSoftware,Altium Limited,Altium Designer,21.6.1 (37)*
G04*
G04 Layer_Color=16711935*
%FSAX25Y25*%
%MOIN*%
G70*
G04*
G04 #@! TF.SameCoordinates,E0C0A44B-B62E-4E6E-ADDB-BB2CC36F5004*
G04*
G04*
G04 #@! TF.FilePolarity,Negative*
G04*
G01*
G75*
%ADD47R,0.05512X0.04921*%
%ADD63C,0.05284*%
%ADD64C,0.03189*%
G04:AMPARAMS|DCode=65|XSize=31.89mil|YSize=29.53mil|CornerRadius=14.76mil|HoleSize=0mil|Usage=FLASHONLY|Rotation=180.000|XOffset=0mil|YOffset=0mil|HoleType=Round|Shape=RoundedRectangle|*
%AMROUNDEDRECTD65*
21,1,0.03189,0.00000,0,0,180.0*
21,1,0.00236,0.02953,0,0,180.0*
1,1,0.02953,-0.00118,0.00000*
1,1,0.02953,0.00118,0.00000*
1,1,0.02953,0.00118,0.00000*
1,1,0.02953,-0.00118,0.00000*
%
%ADD65ROUNDEDRECTD65*%
G04:AMPARAMS|DCode=66|XSize=47.24mil|YSize=90.55mil|CornerRadius=23.62mil|HoleSize=0mil|Usage=FLASHONLY|Rotation=180.000|XOffset=0mil|YOffset=0mil|HoleType=Round|Shape=RoundedRectangle|*
%AMROUNDEDRECTD66*
21,1,0.04724,0.04331,0,0,180.0*
21,1,0.00000,0.09055,0,0,180.0*
1,1,0.04724,0.00000,0.02165*
1,1,0.04724,0.00000,0.02165*
1,1,0.04724,0.00000,-0.02165*
1,1,0.04724,0.00000,-0.02165*
%
%ADD66ROUNDEDRECTD66*%
%ADD67R,0.05284X0.05284*%
%ADD68C,0.06496*%
%ADD69R,0.07087X0.07087*%
%ADD70C,0.07087*%
%ADD71C,0.02591*%
%ADD72C,0.03591*%
%ADD84R,0.06850X0.06063*%
D47*
X0172362Y0284500D02*
D03*
X0165669D02*
D03*
X0182846Y0320500D02*
D03*
X0176154D02*
D03*
X0196153Y0320472D02*
D03*
X0202847D02*
D03*
X0205654Y0284500D02*
D03*
X0212347D02*
D03*
D63*
X0019437Y0180937D02*
D03*
X0015500Y0184874D02*
D03*
Y0177000D02*
D03*
X0029500Y0134500D02*
D03*
X0033437Y0138437D02*
D03*
X0029500Y0142374D02*
D03*
X0020500Y0106000D02*
D03*
X0050500D02*
D03*
D64*
X0203673Y0300590D02*
D03*
D65*
X0175327D02*
D03*
D66*
X0209579Y0302087D02*
D03*
X0169421D02*
D03*
X0212335Y0320472D02*
D03*
X0166665D02*
D03*
D67*
X0010500Y0106000D02*
D03*
X0040500D02*
D03*
D68*
X0021000Y0063500D02*
D03*
X0011000D02*
D03*
D69*
X0220000Y0226000D02*
D03*
X0140000D02*
D03*
D70*
X0230000D02*
D03*
X0220000Y0216000D02*
D03*
X0230000D02*
D03*
X0220000Y0206000D02*
D03*
X0230000D02*
D03*
X0220000Y0196000D02*
D03*
X0230000D02*
D03*
X0220000Y0186000D02*
D03*
X0230000D02*
D03*
X0220000Y0176000D02*
D03*
X0230000D02*
D03*
X0220000Y0166000D02*
D03*
X0230000D02*
D03*
X0220000Y0156000D02*
D03*
X0230000D02*
D03*
X0220000Y0146000D02*
D03*
X0230000D02*
D03*
X0220000Y0136000D02*
D03*
X0230000D02*
D03*
X0220000Y0126000D02*
D03*
X0230000D02*
D03*
X0220000Y0116000D02*
D03*
X0230000D02*
D03*
X0220000Y0106000D02*
D03*
X0230000D02*
D03*
X0220000Y0096000D02*
D03*
X0230000D02*
D03*
X0220000Y0086000D02*
D03*
X0230000D02*
D03*
X0220000Y0076000D02*
D03*
X0230000D02*
D03*
X0220000Y0066000D02*
D03*
X0230000D02*
D03*
X0220000Y0056000D02*
D03*
X0230000D02*
D03*
X0220000Y0046000D02*
D03*
X0230000D02*
D03*
X0220000Y0036000D02*
D03*
X0230000D02*
D03*
X0150000Y0226000D02*
D03*
X0140000Y0216000D02*
D03*
X0150000D02*
D03*
X0140000Y0206000D02*
D03*
X0150000D02*
D03*
X0140000Y0196000D02*
D03*
X0150000D02*
D03*
X0140000Y0186000D02*
D03*
X0150000D02*
D03*
X0140000Y0176000D02*
D03*
X0150000D02*
D03*
X0140000Y0166000D02*
D03*
X0150000D02*
D03*
X0140000Y0156000D02*
D03*
X0150000D02*
D03*
X0140000Y0146000D02*
D03*
X0150000D02*
D03*
X0140000Y0136000D02*
D03*
X0150000D02*
D03*
X0140000Y0126000D02*
D03*
X0150000D02*
D03*
X0140000Y0116000D02*
D03*
X0150000D02*
D03*
X0140000Y0106000D02*
D03*
X0150000D02*
D03*
X0140000Y0096000D02*
D03*
X0150000D02*
D03*
X0140000Y0086000D02*
D03*
X0150000D02*
D03*
X0140000Y0076000D02*
D03*
X0150000D02*
D03*
X0140000Y0066000D02*
D03*
X0150000D02*
D03*
X0140000Y0056000D02*
D03*
X0150000D02*
D03*
X0140000Y0046000D02*
D03*
X0150000D02*
D03*
X0140000Y0036000D02*
D03*
X0150000D02*
D03*
D71*
X0084700Y0216300D02*
D03*
X0091500Y0283154D02*
D03*
X0123756Y0099500D02*
D03*
X0165000Y0190846D02*
D03*
X0063256Y0100847D02*
D03*
X0091843Y0099968D02*
D03*
X0094500Y0104000D02*
D03*
X0053264Y0190075D02*
D03*
X0070579Y0188240D02*
D03*
X0122000Y0170000D02*
D03*
X0108500Y0176654D02*
D03*
Y0183346D02*
D03*
X0096921Y0145240D02*
D03*
X0097000Y0125980D02*
D03*
X0085921Y0170240D02*
D03*
X0108000Y0152654D02*
D03*
Y0159346D02*
D03*
X0057028Y0165825D02*
D03*
X0070079Y0164240D02*
D03*
X0118500Y0127000D02*
D03*
X0129000Y0108154D02*
D03*
X0082028Y0127075D02*
D03*
X0129000Y0126846D02*
D03*
X0032346Y0200000D02*
D03*
X0010500Y0122154D02*
D03*
X0114500Y0149500D02*
D03*
Y0130807D02*
D03*
X0081079Y0139240D02*
D03*
X0066264Y0140575D02*
D03*
X0158990Y0127000D02*
D03*
X0192000Y0100500D02*
D03*
X0193100Y0145500D02*
D03*
X0164246Y0135653D02*
D03*
X0180235Y0151754D02*
D03*
X0178000Y0189500D02*
D03*
X0182000D02*
D03*
X0188000Y0214500D02*
D03*
Y0205500D02*
D03*
Y0208500D02*
D03*
Y0211500D02*
D03*
X0186000Y0189500D02*
D03*
X0190000D02*
D03*
X0194000Y0173500D02*
D03*
Y0189500D02*
D03*
Y0177500D02*
D03*
Y0185500D02*
D03*
Y0181500D02*
D03*
X0178000Y0173500D02*
D03*
X0182000D02*
D03*
X0190000D02*
D03*
X0178000Y0181500D02*
D03*
X0186000D02*
D03*
X0178000Y0185500D02*
D03*
X0186000D02*
D03*
X0182000Y0181500D02*
D03*
X0190000Y0177500D02*
D03*
Y0185500D02*
D03*
X0182000D02*
D03*
X0186000Y0177500D02*
D03*
X0182000D02*
D03*
X0178000D02*
D03*
X0186000Y0173500D02*
D03*
X0190000Y0181500D02*
D03*
X0162500Y0105000D02*
D03*
X0207000Y0041153D02*
D03*
X0100847Y0029900D02*
D03*
X0207000Y0064000D02*
D03*
X0160500Y0046000D02*
D03*
X0037000Y0037500D02*
D03*
X0041000Y0042500D02*
D03*
X0066000Y0054000D02*
D03*
X0066346Y0085000D02*
D03*
X0060500Y0067500D02*
D03*
X0047654Y0085000D02*
D03*
X0084500Y0086000D02*
D03*
X0119000Y0089500D02*
D03*
X0105910Y0075500D02*
D03*
X0089500Y0075000D02*
D03*
X0115512Y0068000D02*
D03*
X0071500Y0035000D02*
D03*
X0021280Y0038866D02*
D03*
X0084256Y0066000D02*
D03*
X0118602Y0069500D02*
D03*
X0103669Y0092000D02*
D03*
X0099012Y0086500D02*
D03*
X0063256Y0094153D02*
D03*
X0044500Y0048000D02*
D03*
X0065500Y0026500D02*
D03*
X0088154Y0035500D02*
D03*
X0080756Y0046000D02*
D03*
X0106012Y0059500D02*
D03*
X0074988D02*
D03*
X0085913Y0051600D02*
D03*
X0044500Y0041307D02*
D03*
X0141510Y0285000D02*
D03*
X0162200Y0254800D02*
D03*
X0183400Y0251600D02*
D03*
X0180400D02*
D03*
Y0257600D02*
D03*
X0183400D02*
D03*
X0152500Y0279661D02*
D03*
X0113500Y0286500D02*
D03*
X0098750Y0288500D02*
D03*
X0115500Y0296500D02*
D03*
X0168846Y0047000D02*
D03*
X0122000Y0182000D02*
D03*
X0127500Y0170000D02*
D03*
Y0182000D02*
D03*
X0133000D02*
D03*
Y0170000D02*
D03*
X0116500Y0219500D02*
D03*
Y0224500D02*
D03*
Y0229500D02*
D03*
X0098500Y0212500D02*
D03*
X0093500D02*
D03*
X0088500D02*
D03*
X0083500D02*
D03*
X0078500D02*
D03*
X0073500D02*
D03*
X0068500Y0218000D02*
D03*
X0125000Y0221153D02*
D03*
X0058000Y0217154D02*
D03*
X0052000Y0229847D02*
D03*
X0198744Y0086000D02*
D03*
X0109500Y0286000D02*
D03*
X0115500Y0281500D02*
D03*
X0101000Y0271000D02*
D03*
X0205516Y0269500D02*
D03*
X0218254Y0282000D02*
D03*
X0141846Y0272500D02*
D03*
X0123000Y0261000D02*
D03*
X0172500Y0269500D02*
D03*
X0177254Y0278500D02*
D03*
X0147000Y0249654D02*
D03*
X0074244Y0307000D02*
D03*
X0080500Y0256500D02*
D03*
X0071500D02*
D03*
X0074500D02*
D03*
X0117500Y0319500D02*
D03*
X0121500Y0326000D02*
D03*
X0080500Y0253500D02*
D03*
X0077500Y0247500D02*
D03*
Y0250500D02*
D03*
X0080500D02*
D03*
X0077500Y0253500D02*
D03*
X0074500Y0227500D02*
D03*
X0034154Y0246750D02*
D03*
X0041846Y0265500D02*
D03*
X0071500Y0259500D02*
D03*
X0074500Y0262500D02*
D03*
Y0259500D02*
D03*
X0046847Y0319000D02*
D03*
X0040154Y0269000D02*
D03*
X0029154Y0259500D02*
D03*
X0050000Y0269000D02*
D03*
X0061500Y0288846D02*
D03*
X0069500D02*
D03*
X0065500Y0288846D02*
D03*
X0073500D02*
D03*
X0059153Y0295000D02*
D03*
X0071593Y0262406D02*
D03*
X0074500Y0253500D02*
D03*
X0034154Y0242500D02*
D03*
X0071500Y0244500D02*
D03*
Y0247500D02*
D03*
X0074500Y0250500D02*
D03*
Y0247500D02*
D03*
Y0244500D02*
D03*
X0071500Y0250500D02*
D03*
Y0253500D02*
D03*
X0034154Y0251000D02*
D03*
X0077500Y0244500D02*
D03*
X0080500D02*
D03*
Y0247500D02*
D03*
X0083500Y0244500D02*
D03*
X0119000Y0233846D02*
D03*
X0113346Y0237000D02*
D03*
X0120000Y0272000D02*
D03*
X0107307Y0266000D02*
D03*
X0135256Y0255000D02*
D03*
X0089500Y0253500D02*
D03*
X0086500Y0250500D02*
D03*
X0083500Y0247500D02*
D03*
X0086500Y0244500D02*
D03*
X0089500D02*
D03*
X0078500Y0295500D02*
D03*
X0077500Y0256500D02*
D03*
Y0262500D02*
D03*
Y0259500D02*
D03*
X0080500Y0262500D02*
D03*
Y0259500D02*
D03*
X0086500Y0262500D02*
D03*
X0083500D02*
D03*
X0089500D02*
D03*
X0079500Y0289000D02*
D03*
X0082500Y0276000D02*
D03*
X0089500Y0256500D02*
D03*
X0094153Y0221500D02*
D03*
X0105000Y0261500D02*
D03*
X0106846Y0227500D02*
D03*
X0106653Y0237000D02*
D03*
X0089500Y0259500D02*
D03*
X0086500Y0253500D02*
D03*
Y0256500D02*
D03*
X0083500D02*
D03*
Y0253500D02*
D03*
Y0259500D02*
D03*
X0086500D02*
D03*
X0083500Y0250500D02*
D03*
X0086500Y0247500D02*
D03*
X0089500Y0250500D02*
D03*
Y0247500D02*
D03*
X0196882Y0286000D02*
D03*
X0182118Y0308488D02*
D03*
X0196882Y0278500D02*
D03*
X0181134D02*
D03*
X0197866Y0308488D02*
D03*
X0181134Y0286000D02*
D03*
D72*
X0174000Y0238500D02*
D03*
D84*
X0189500Y0286000D02*
D03*
Y0278480D02*
D03*
M02*
