G04*
G04 #@! TF.GenerationSoftware,Altium Limited,Altium Designer,21.6.1 (37)*
G04*
G04 Layer_Physical_Order=2*
G04 Layer_Color=36540*
%FSAX25Y25*%
%MOIN*%
G70*
G04*
G04 #@! TF.SameCoordinates,E0C0A44B-B62E-4E6E-ADDB-BB2CC36F5004*
G04*
G04*
G04 #@! TF.FilePolarity,Positive*
G04*
G01*
G75*
G04:AMPARAMS|DCode=66|XSize=47.24mil|YSize=90.55mil|CornerRadius=23.62mil|HoleSize=0mil|Usage=FLASHONLY|Rotation=180.000|XOffset=0mil|YOffset=0mil|HoleType=Round|Shape=RoundedRectangle|*
%AMROUNDEDRECTD66*
21,1,0.04724,0.04331,0,0,180.0*
21,1,0.00000,0.09055,0,0,180.0*
1,1,0.04724,0.00000,0.02165*
1,1,0.04724,0.00000,0.02165*
1,1,0.04724,0.00000,-0.02165*
1,1,0.04724,0.00000,-0.02165*
%
%ADD66ROUNDEDRECTD66*%
%ADD80C,0.06496*%
%ADD81C,0.02000*%
G36*
X0241197Y0000803D02*
X0000803D01*
Y0332197D01*
X0241197D01*
Y0000803D01*
D02*
G37*
%LPC*%
G36*
X0121798Y0327500D02*
X0121202D01*
X0120650Y0327272D01*
X0120228Y0326850D01*
X0120000Y0326298D01*
Y0325702D01*
X0120228Y0325150D01*
X0120650Y0324728D01*
X0121202Y0324500D01*
X0121798D01*
X0122350Y0324728D01*
X0122772Y0325150D01*
X0123000Y0325702D01*
Y0326298D01*
X0122772Y0326850D01*
X0122350Y0327272D01*
X0121798Y0327500D01*
D02*
G37*
G36*
X0166865Y0325397D02*
Y0320672D01*
X0169451D01*
Y0322638D01*
X0169356Y0323359D01*
X0169078Y0324031D01*
X0168635Y0324608D01*
X0168058Y0325051D01*
X0167386Y0325329D01*
X0166865Y0325397D01*
D02*
G37*
G36*
X0212535D02*
Y0320672D01*
X0215121D01*
Y0322638D01*
X0215026Y0323359D01*
X0214747Y0324031D01*
X0214305Y0324608D01*
X0213728Y0325051D01*
X0213056Y0325329D01*
X0212535Y0325397D01*
D02*
G37*
G36*
X0212135D02*
X0211614Y0325329D01*
X0210942Y0325051D01*
X0210365Y0324608D01*
X0209922Y0324031D01*
X0209644Y0323359D01*
X0209549Y0322638D01*
Y0320672D01*
X0212135D01*
Y0325397D01*
D02*
G37*
G36*
X0166465D02*
X0165944Y0325329D01*
X0165272Y0325051D01*
X0164695Y0324608D01*
X0164253Y0324031D01*
X0163974Y0323359D01*
X0163879Y0322638D01*
Y0320672D01*
X0166465D01*
Y0325397D01*
D02*
G37*
G36*
X0169451Y0320272D02*
X0166865D01*
Y0315547D01*
X0167386Y0315616D01*
X0168058Y0315894D01*
X0168635Y0316337D01*
X0169078Y0316914D01*
X0169356Y0317586D01*
X0169451Y0318307D01*
Y0320272D01*
D02*
G37*
G36*
X0212135D02*
X0209549D01*
Y0318307D01*
X0209644Y0317586D01*
X0209922Y0316914D01*
X0210365Y0316337D01*
X0210942Y0315894D01*
X0211614Y0315616D01*
X0212135Y0315547D01*
Y0320272D01*
D02*
G37*
G36*
X0215121D02*
X0212535D01*
Y0315547D01*
X0213056Y0315616D01*
X0213728Y0315894D01*
X0214305Y0316337D01*
X0214747Y0316914D01*
X0215026Y0317586D01*
X0215121Y0318307D01*
Y0320272D01*
D02*
G37*
G36*
X0166465D02*
X0163879D01*
Y0318307D01*
X0163974Y0317586D01*
X0164253Y0316914D01*
X0164695Y0316337D01*
X0165272Y0315894D01*
X0165944Y0315616D01*
X0166465Y0315547D01*
Y0320272D01*
D02*
G37*
G36*
X0229620Y0327102D02*
X0228380D01*
X0228302Y0327087D01*
X0228223D01*
X0227006Y0326845D01*
X0226933Y0326814D01*
X0226855Y0326799D01*
X0225709Y0326324D01*
X0225643Y0326280D01*
X0225570Y0326250D01*
X0224538Y0325560D01*
X0224482Y0325504D01*
X0224417Y0325461D01*
X0223539Y0324583D01*
X0223495Y0324517D01*
X0223440Y0324462D01*
X0222750Y0323430D01*
X0222720Y0323357D01*
X0222676Y0323291D01*
X0222201Y0322145D01*
X0222186Y0322067D01*
X0222155Y0321994D01*
X0221913Y0320777D01*
Y0320698D01*
X0221898Y0320620D01*
Y0319380D01*
X0221913Y0319302D01*
Y0319223D01*
X0222155Y0318006D01*
X0222186Y0317933D01*
X0222201Y0317855D01*
X0222676Y0316709D01*
X0222720Y0316643D01*
X0222750Y0316570D01*
X0223440Y0315539D01*
X0223495Y0315482D01*
X0223539Y0315417D01*
X0224417Y0314539D01*
X0224482Y0314495D01*
X0224538Y0314440D01*
X0225570Y0313750D01*
X0225643Y0313720D01*
X0225709Y0313676D01*
X0226855Y0313201D01*
X0226933Y0313186D01*
X0227006Y0313156D01*
X0228223Y0312913D01*
X0228302D01*
X0228380Y0312898D01*
X0229620D01*
X0229698Y0312913D01*
X0229777D01*
X0230994Y0313156D01*
X0231067Y0313186D01*
X0231145Y0313201D01*
X0232291Y0313676D01*
X0232357Y0313720D01*
X0232430Y0313750D01*
X0233461Y0314440D01*
X0233517Y0314495D01*
X0233583Y0314539D01*
X0234461Y0315417D01*
X0234505Y0315482D01*
X0234560Y0315539D01*
X0235250Y0316570D01*
X0235280Y0316643D01*
X0235324Y0316709D01*
X0235799Y0317855D01*
X0235814Y0317933D01*
X0235844Y0318006D01*
X0236087Y0319223D01*
Y0319302D01*
X0236102Y0319380D01*
Y0320620D01*
X0236087Y0320698D01*
Y0320777D01*
X0235844Y0321994D01*
X0235814Y0322067D01*
X0235799Y0322145D01*
X0235324Y0323291D01*
X0235280Y0323357D01*
X0235250Y0323430D01*
X0234560Y0324462D01*
X0234505Y0324517D01*
X0234461Y0324583D01*
X0233583Y0325461D01*
X0233517Y0325504D01*
X0233461Y0325560D01*
X0232430Y0326250D01*
X0232357Y0326280D01*
X0232291Y0326324D01*
X0231145Y0326799D01*
X0231067Y0326814D01*
X0230994Y0326845D01*
X0229777Y0327087D01*
X0229698D01*
X0229620Y0327102D01*
D02*
G37*
G36*
X0198164Y0309988D02*
X0197568D01*
X0197017Y0309760D01*
X0196595Y0309338D01*
X0196366Y0308787D01*
Y0308190D01*
X0196595Y0307639D01*
X0197017Y0307217D01*
X0197568Y0306988D01*
X0198164D01*
X0198716Y0307217D01*
X0199138Y0307639D01*
X0199366Y0308190D01*
Y0308787D01*
X0199138Y0309338D01*
X0198716Y0309760D01*
X0198164Y0309988D01*
D02*
G37*
G36*
X0182416D02*
X0181820D01*
X0181268Y0309760D01*
X0180847Y0309338D01*
X0180618Y0308787D01*
Y0308190D01*
X0180847Y0307639D01*
X0181268Y0307217D01*
X0181820Y0306988D01*
X0182416D01*
X0182968Y0307217D01*
X0183390Y0307639D01*
X0183618Y0308190D01*
Y0308787D01*
X0183390Y0309338D01*
X0182968Y0309760D01*
X0182416Y0309988D01*
D02*
G37*
G36*
X0074542Y0308500D02*
X0073946D01*
X0073394Y0308272D01*
X0072973Y0307850D01*
X0072744Y0307298D01*
Y0306702D01*
X0072973Y0306150D01*
X0073394Y0305728D01*
X0073946Y0305500D01*
X0074542D01*
X0075094Y0305728D01*
X0075516Y0306150D01*
X0075744Y0306702D01*
Y0307298D01*
X0075516Y0307850D01*
X0075094Y0308272D01*
X0074542Y0308500D01*
D02*
G37*
G36*
X0169621Y0307012D02*
Y0302287D01*
X0172207D01*
Y0304252D01*
X0172112Y0304973D01*
X0171834Y0305645D01*
X0171391Y0306222D01*
X0170814Y0306665D01*
X0170142Y0306943D01*
X0169621Y0307012D01*
D02*
G37*
G36*
X0209779Y0307012D02*
Y0302287D01*
X0212365D01*
Y0304252D01*
X0212270Y0304973D01*
X0211992Y0305645D01*
X0211549Y0306222D01*
X0210972Y0306665D01*
X0210300Y0306943D01*
X0209779Y0307012D01*
D02*
G37*
G36*
X0209379Y0307012D02*
X0208858Y0306943D01*
X0208186Y0306665D01*
X0207609Y0306222D01*
X0207166Y0305645D01*
X0206888Y0304973D01*
X0206793Y0304252D01*
Y0302287D01*
X0209379D01*
Y0307012D01*
D02*
G37*
G36*
X0169221Y0307012D02*
X0168700Y0306943D01*
X0168028Y0306665D01*
X0167451Y0306222D01*
X0167008Y0305645D01*
X0166730Y0304973D01*
X0166635Y0304252D01*
Y0302287D01*
X0169221D01*
Y0307012D01*
D02*
G37*
G36*
X0175445Y0303099D02*
X0175209D01*
X0174249Y0302908D01*
X0173435Y0302365D01*
X0172891Y0301551D01*
X0172700Y0300590D01*
X0172891Y0299630D01*
X0173435Y0298816D01*
X0174249Y0298273D01*
X0175209Y0298082D01*
X0175445D01*
X0176405Y0298273D01*
X0177219Y0298816D01*
X0177763Y0299630D01*
X0177954Y0300590D01*
X0177763Y0301551D01*
X0177219Y0302365D01*
X0176405Y0302908D01*
X0175445Y0303099D01*
D02*
G37*
G36*
X0204013Y0303169D02*
X0203334D01*
X0202678Y0302994D01*
X0202090Y0302654D01*
X0201610Y0302174D01*
X0201270Y0301586D01*
X0201095Y0300930D01*
Y0300251D01*
X0201270Y0299595D01*
X0201610Y0299007D01*
X0202090Y0298527D01*
X0202678Y0298188D01*
X0203334Y0298012D01*
X0204013D01*
X0204669Y0298188D01*
X0205257Y0298527D01*
X0205737Y0299007D01*
X0206076Y0299595D01*
X0206252Y0300251D01*
Y0300930D01*
X0206076Y0301586D01*
X0205737Y0302174D01*
X0205257Y0302654D01*
X0204669Y0302994D01*
X0204013Y0303169D01*
D02*
G37*
G36*
X0172207Y0301887D02*
X0169621D01*
Y0297162D01*
X0170142Y0297230D01*
X0170814Y0297509D01*
X0171391Y0297951D01*
X0171834Y0298528D01*
X0172112Y0299200D01*
X0172207Y0299921D01*
Y0301887D01*
D02*
G37*
G36*
X0209379D02*
X0206793D01*
Y0299921D01*
X0206888Y0299200D01*
X0207166Y0298528D01*
X0207609Y0297951D01*
X0208186Y0297509D01*
X0208858Y0297230D01*
X0209379Y0297162D01*
Y0301887D01*
D02*
G37*
G36*
X0212365D02*
X0209779D01*
Y0297162D01*
X0210300Y0297230D01*
X0210972Y0297509D01*
X0211549Y0297951D01*
X0211992Y0298528D01*
X0212270Y0299200D01*
X0212365Y0299921D01*
Y0301887D01*
D02*
G37*
G36*
X0169221D02*
X0166635D01*
Y0299921D01*
X0166730Y0299200D01*
X0167008Y0298528D01*
X0167451Y0297951D01*
X0168028Y0297509D01*
X0168700Y0297230D01*
X0169221Y0297162D01*
Y0301887D01*
D02*
G37*
G36*
X0115798Y0298000D02*
X0115202D01*
X0114650Y0297772D01*
X0114228Y0297350D01*
X0114000Y0296798D01*
Y0296202D01*
X0114228Y0295650D01*
X0114650Y0295228D01*
X0115202Y0295000D01*
X0115798D01*
X0116350Y0295228D01*
X0116772Y0295650D01*
X0117000Y0296202D01*
Y0296798D01*
X0116772Y0297350D01*
X0116350Y0297772D01*
X0115798Y0298000D01*
D02*
G37*
G36*
X0078798Y0297000D02*
X0078202D01*
X0077650Y0296772D01*
X0077228Y0296350D01*
X0077000Y0295798D01*
Y0295202D01*
X0077228Y0294650D01*
X0077650Y0294228D01*
X0078202Y0294000D01*
X0078798D01*
X0079350Y0294228D01*
X0079772Y0294650D01*
X0080000Y0295202D01*
Y0295798D01*
X0079772Y0296350D01*
X0079350Y0296772D01*
X0078798Y0297000D01*
D02*
G37*
G36*
X0065798Y0290346D02*
X0065202D01*
X0064650Y0290118D01*
X0064228Y0289696D01*
X0064000Y0289145D01*
Y0288548D01*
X0064228Y0287997D01*
X0064650Y0287575D01*
X0065202Y0287346D01*
X0065798D01*
X0066350Y0287575D01*
X0066772Y0287997D01*
X0067000Y0288548D01*
Y0289145D01*
X0066772Y0289696D01*
X0066350Y0290118D01*
X0065798Y0290346D01*
D02*
G37*
G36*
X0099048Y0290000D02*
X0098452D01*
X0097900Y0289772D01*
X0097478Y0289350D01*
X0097250Y0288798D01*
Y0288202D01*
X0097478Y0287650D01*
X0097900Y0287228D01*
X0098452Y0287000D01*
X0099048D01*
X0099600Y0287228D01*
X0100022Y0287650D01*
X0100250Y0288202D01*
Y0288798D01*
X0100022Y0289350D01*
X0099600Y0289772D01*
X0099048Y0290000D01*
D02*
G37*
G36*
X0113798Y0288000D02*
X0113202D01*
X0112650Y0287772D01*
X0112228Y0287350D01*
X0112000Y0286798D01*
Y0286202D01*
X0112228Y0285650D01*
X0112650Y0285228D01*
X0113202Y0285000D01*
X0113798D01*
X0114350Y0285228D01*
X0114772Y0285650D01*
X0115000Y0286202D01*
Y0286798D01*
X0114772Y0287350D01*
X0114350Y0287772D01*
X0113798Y0288000D01*
D02*
G37*
G36*
X0197180Y0287500D02*
X0196583D01*
X0196032Y0287272D01*
X0195610Y0286850D01*
X0195382Y0286298D01*
Y0285702D01*
X0195610Y0285150D01*
X0196032Y0284728D01*
X0196583Y0284500D01*
X0197180D01*
X0197732Y0284728D01*
X0198153Y0285150D01*
X0198382Y0285702D01*
Y0286298D01*
X0198153Y0286850D01*
X0197732Y0287272D01*
X0197180Y0287500D01*
D02*
G37*
G36*
X0181432D02*
X0180835D01*
X0180284Y0287272D01*
X0179862Y0286850D01*
X0179634Y0286298D01*
Y0285702D01*
X0179862Y0285150D01*
X0180284Y0284728D01*
X0180835Y0284500D01*
X0181432D01*
X0181984Y0284728D01*
X0182405Y0285150D01*
X0182634Y0285702D01*
Y0286298D01*
X0182405Y0286850D01*
X0181984Y0287272D01*
X0181432Y0287500D01*
D02*
G37*
G36*
X0109798D02*
X0109202D01*
X0108650Y0287272D01*
X0108228Y0286850D01*
X0108000Y0286298D01*
Y0285702D01*
X0108228Y0285150D01*
X0108650Y0284728D01*
X0109202Y0284500D01*
X0109798D01*
X0110350Y0284728D01*
X0110772Y0285150D01*
X0111000Y0285702D01*
Y0286298D01*
X0110772Y0286850D01*
X0110350Y0287272D01*
X0109798Y0287500D01*
D02*
G37*
G36*
X0141808Y0286500D02*
X0141211D01*
X0140660Y0286272D01*
X0140238Y0285850D01*
X0140010Y0285298D01*
Y0284702D01*
X0140238Y0284150D01*
X0140660Y0283728D01*
X0141211Y0283500D01*
X0141808D01*
X0142359Y0283728D01*
X0142781Y0284150D01*
X0143010Y0284702D01*
Y0285298D01*
X0142781Y0285850D01*
X0142359Y0286272D01*
X0141808Y0286500D01*
D02*
G37*
G36*
X0091798Y0284653D02*
X0091202D01*
X0090650Y0284425D01*
X0090228Y0284003D01*
X0090000Y0283452D01*
Y0282855D01*
X0090228Y0282304D01*
X0090650Y0281882D01*
X0091202Y0281653D01*
X0091798D01*
X0092350Y0281882D01*
X0092772Y0282304D01*
X0093000Y0282855D01*
Y0283452D01*
X0092772Y0284003D01*
X0092350Y0284425D01*
X0091798Y0284653D01*
D02*
G37*
G36*
X0152798Y0281161D02*
X0152202D01*
X0151650Y0280933D01*
X0151228Y0280511D01*
X0151000Y0279960D01*
Y0279363D01*
X0151228Y0278812D01*
X0151650Y0278390D01*
X0152202Y0278161D01*
X0152798D01*
X0153350Y0278390D01*
X0153772Y0278812D01*
X0154000Y0279363D01*
Y0279960D01*
X0153772Y0280511D01*
X0153350Y0280933D01*
X0152798Y0281161D01*
D02*
G37*
G36*
X0197180Y0280000D02*
X0196583D01*
X0196032Y0279772D01*
X0195610Y0279350D01*
X0195382Y0278798D01*
Y0278202D01*
X0195610Y0277650D01*
X0196032Y0277228D01*
X0196583Y0277000D01*
X0197180D01*
X0197732Y0277228D01*
X0198153Y0277650D01*
X0198382Y0278202D01*
Y0278798D01*
X0198153Y0279350D01*
X0197732Y0279772D01*
X0197180Y0280000D01*
D02*
G37*
G36*
X0181432D02*
X0180835D01*
X0180284Y0279772D01*
X0179862Y0279350D01*
X0179634Y0278798D01*
Y0278202D01*
X0179862Y0277650D01*
X0180284Y0277228D01*
X0180835Y0277000D01*
X0181432D01*
X0181984Y0277228D01*
X0182405Y0277650D01*
X0182634Y0278202D01*
Y0278798D01*
X0182405Y0279350D01*
X0181984Y0279772D01*
X0181432Y0280000D01*
D02*
G37*
G36*
X0082798Y0277500D02*
X0082202D01*
X0081650Y0277272D01*
X0081228Y0276850D01*
X0081000Y0276298D01*
Y0275702D01*
X0081228Y0275150D01*
X0081650Y0274728D01*
X0082202Y0274500D01*
X0082798D01*
X0083350Y0274728D01*
X0083772Y0275150D01*
X0084000Y0275702D01*
Y0276298D01*
X0083772Y0276850D01*
X0083350Y0277272D01*
X0082798Y0277500D01*
D02*
G37*
G36*
X0101298Y0272500D02*
X0100702D01*
X0100150Y0272272D01*
X0099728Y0271850D01*
X0099500Y0271298D01*
Y0270702D01*
X0099728Y0270150D01*
X0100150Y0269728D01*
X0100702Y0269500D01*
X0101298D01*
X0101850Y0269728D01*
X0102272Y0270150D01*
X0102500Y0270702D01*
Y0271298D01*
X0102272Y0271850D01*
X0101850Y0272272D01*
X0101298Y0272500D01*
D02*
G37*
G36*
X0107606Y0267500D02*
X0107009D01*
X0106457Y0267272D01*
X0106035Y0266850D01*
X0105807Y0266298D01*
Y0265702D01*
X0106035Y0265150D01*
X0106457Y0264728D01*
X0107009Y0264500D01*
X0107606D01*
X0108157Y0264728D01*
X0108579Y0265150D01*
X0108807Y0265702D01*
Y0266298D01*
X0108579Y0266850D01*
X0108157Y0267272D01*
X0107606Y0267500D01*
D02*
G37*
G36*
X0042145Y0267000D02*
X0041548D01*
X0040997Y0266772D01*
X0040575Y0266350D01*
X0040347Y0265798D01*
Y0265202D01*
X0040575Y0264650D01*
X0040997Y0264228D01*
X0041548Y0264000D01*
X0042145D01*
X0042696Y0264228D01*
X0043118Y0264650D01*
X0043347Y0265202D01*
Y0265798D01*
X0043118Y0266350D01*
X0042696Y0266772D01*
X0042145Y0267000D01*
D02*
G37*
G36*
X0105298Y0263000D02*
X0104702D01*
X0104150Y0262772D01*
X0103728Y0262350D01*
X0103500Y0261798D01*
Y0261202D01*
X0103728Y0260650D01*
X0104150Y0260228D01*
X0104702Y0260000D01*
X0105298D01*
X0105850Y0260228D01*
X0106272Y0260650D01*
X0106500Y0261202D01*
Y0261798D01*
X0106272Y0262350D01*
X0105850Y0262772D01*
X0105298Y0263000D01*
D02*
G37*
G36*
X0123298Y0262500D02*
X0122702D01*
X0122150Y0262272D01*
X0121728Y0261850D01*
X0121500Y0261298D01*
Y0260702D01*
X0121728Y0260150D01*
X0122150Y0259728D01*
X0122702Y0259500D01*
X0123298D01*
X0123850Y0259728D01*
X0124272Y0260150D01*
X0124500Y0260702D01*
Y0261298D01*
X0124272Y0261850D01*
X0123850Y0262272D01*
X0123298Y0262500D01*
D02*
G37*
G36*
X0183698Y0259100D02*
X0183102D01*
X0182550Y0258872D01*
X0182188Y0258509D01*
X0181900Y0258476D01*
X0181612Y0258509D01*
X0181250Y0258872D01*
X0180698Y0259100D01*
X0180102D01*
X0179550Y0258872D01*
X0179128Y0258450D01*
X0178900Y0257898D01*
Y0257302D01*
X0179128Y0256750D01*
X0179550Y0256328D01*
X0180102Y0256100D01*
X0180698D01*
X0181250Y0256328D01*
X0181612Y0256691D01*
X0181900Y0256724D01*
X0182188Y0256691D01*
X0182550Y0256328D01*
X0183102Y0256100D01*
X0183698D01*
X0184250Y0256328D01*
X0184672Y0256750D01*
X0184900Y0257302D01*
Y0257898D01*
X0184672Y0258450D01*
X0184250Y0258872D01*
X0183698Y0259100D01*
D02*
G37*
G36*
X0162498Y0256300D02*
X0161902D01*
X0161350Y0256072D01*
X0160928Y0255650D01*
X0160700Y0255098D01*
Y0254502D01*
X0160928Y0253950D01*
X0161350Y0253528D01*
X0161902Y0253300D01*
X0162498D01*
X0163050Y0253528D01*
X0163472Y0253950D01*
X0163700Y0254502D01*
Y0255098D01*
X0163472Y0255650D01*
X0163050Y0256072D01*
X0162498Y0256300D01*
D02*
G37*
G36*
X0183698Y0253100D02*
X0183102D01*
X0182550Y0252872D01*
X0182188Y0252509D01*
X0181900Y0252476D01*
X0181612Y0252509D01*
X0181250Y0252872D01*
X0180698Y0253100D01*
X0180102D01*
X0179550Y0252872D01*
X0179128Y0252450D01*
X0178900Y0251898D01*
Y0251302D01*
X0179128Y0250750D01*
X0179550Y0250328D01*
X0180102Y0250100D01*
X0180698D01*
X0181250Y0250328D01*
X0181612Y0250691D01*
X0181900Y0250724D01*
X0182188Y0250691D01*
X0182550Y0250328D01*
X0183102Y0250100D01*
X0183698D01*
X0184250Y0250328D01*
X0184672Y0250750D01*
X0184900Y0251302D01*
Y0251898D01*
X0184672Y0252450D01*
X0184250Y0252872D01*
X0183698Y0253100D01*
D02*
G37*
G36*
X0034452Y0248250D02*
X0033855D01*
X0033304Y0248022D01*
X0032882Y0247600D01*
X0032654Y0247048D01*
Y0246452D01*
X0032882Y0245900D01*
X0033304Y0245478D01*
X0033855Y0245250D01*
X0034452D01*
X0035003Y0245478D01*
X0035425Y0245900D01*
X0035654Y0246452D01*
Y0247048D01*
X0035425Y0247600D01*
X0035003Y0248022D01*
X0034452Y0248250D01*
D02*
G37*
G36*
X0174398Y0240500D02*
X0173602D01*
X0172867Y0240195D01*
X0172304Y0239633D01*
X0172000Y0238898D01*
Y0238102D01*
X0172304Y0237367D01*
X0172867Y0236805D01*
X0173602Y0236500D01*
X0174398D01*
X0175133Y0236805D01*
X0175696Y0237367D01*
X0176000Y0238102D01*
Y0238898D01*
X0175696Y0239633D01*
X0175133Y0240195D01*
X0174398Y0240500D01*
D02*
G37*
G36*
X0106952Y0238500D02*
X0106355D01*
X0105804Y0238272D01*
X0105382Y0237850D01*
X0105154Y0237298D01*
Y0236702D01*
X0105382Y0236150D01*
X0105804Y0235728D01*
X0106355Y0235500D01*
X0106952D01*
X0107503Y0235728D01*
X0107925Y0236150D01*
X0108153Y0236702D01*
Y0237298D01*
X0107925Y0237850D01*
X0107503Y0238272D01*
X0106952Y0238500D01*
D02*
G37*
G36*
X0119298Y0235347D02*
X0118702D01*
X0118150Y0235118D01*
X0117728Y0234696D01*
X0117500Y0234145D01*
Y0233548D01*
X0117728Y0232997D01*
X0118150Y0232575D01*
X0118702Y0232347D01*
X0119298D01*
X0119850Y0232575D01*
X0120272Y0232997D01*
X0120500Y0233548D01*
Y0234145D01*
X0120272Y0234696D01*
X0119850Y0235118D01*
X0119298Y0235347D01*
D02*
G37*
G36*
X0052298Y0231347D02*
X0051702D01*
X0051150Y0231118D01*
X0050728Y0230696D01*
X0050500Y0230145D01*
Y0229548D01*
X0050728Y0228997D01*
X0051150Y0228575D01*
X0051702Y0228346D01*
X0052298D01*
X0052850Y0228575D01*
X0053272Y0228997D01*
X0053500Y0229548D01*
Y0230145D01*
X0053272Y0230696D01*
X0052850Y0231118D01*
X0052298Y0231347D01*
D02*
G37*
G36*
X0116798Y0231000D02*
X0116202D01*
X0115650Y0230772D01*
X0115228Y0230350D01*
X0115000Y0229798D01*
Y0229202D01*
X0115228Y0228650D01*
X0115650Y0228228D01*
X0116202Y0228000D01*
X0116798D01*
X0117350Y0228228D01*
X0117772Y0228650D01*
X0118000Y0229202D01*
Y0229798D01*
X0117772Y0230350D01*
X0117350Y0230772D01*
X0116798Y0231000D01*
D02*
G37*
G36*
X0074798Y0229000D02*
X0074202D01*
X0073650Y0228772D01*
X0073228Y0228350D01*
X0073000Y0227798D01*
Y0227202D01*
X0073228Y0226650D01*
X0073650Y0226228D01*
X0074202Y0226000D01*
X0074798D01*
X0075350Y0226228D01*
X0075772Y0226650D01*
X0076000Y0227202D01*
Y0227798D01*
X0075772Y0228350D01*
X0075350Y0228772D01*
X0074798Y0229000D01*
D02*
G37*
G36*
X0116798Y0226000D02*
X0116202D01*
X0115650Y0225772D01*
X0115228Y0225350D01*
X0115000Y0224798D01*
Y0224202D01*
X0115228Y0223650D01*
X0115650Y0223228D01*
X0116202Y0223000D01*
X0116798D01*
X0117350Y0223228D01*
X0117772Y0223650D01*
X0118000Y0224202D01*
Y0224798D01*
X0117772Y0225350D01*
X0117350Y0225772D01*
X0116798Y0226000D01*
D02*
G37*
G36*
X0230480Y0229648D02*
X0229520D01*
X0228592Y0229399D01*
X0227760Y0228919D01*
X0227081Y0228240D01*
X0226601Y0227408D01*
X0226352Y0226480D01*
Y0225520D01*
X0226601Y0224592D01*
X0227081Y0223760D01*
X0227760Y0223081D01*
X0228592Y0222601D01*
X0229520Y0222352D01*
X0230480D01*
X0231408Y0222601D01*
X0232240Y0223081D01*
X0232919Y0223760D01*
X0233399Y0224592D01*
X0233648Y0225520D01*
Y0226480D01*
X0233399Y0227408D01*
X0232919Y0228240D01*
X0232240Y0228919D01*
X0231408Y0229399D01*
X0230480Y0229648D01*
D02*
G37*
G36*
X0223648D02*
X0216352D01*
Y0222352D01*
X0223648D01*
Y0229648D01*
D02*
G37*
G36*
X0150480D02*
X0149520D01*
X0148592Y0229399D01*
X0147760Y0228919D01*
X0147081Y0228240D01*
X0146601Y0227408D01*
X0146352Y0226480D01*
Y0225520D01*
X0146601Y0224592D01*
X0147081Y0223760D01*
X0147760Y0223081D01*
X0148592Y0222601D01*
X0149520Y0222352D01*
X0150480D01*
X0151408Y0222601D01*
X0152240Y0223081D01*
X0152919Y0223760D01*
X0153399Y0224592D01*
X0153648Y0225520D01*
Y0226480D01*
X0153399Y0227408D01*
X0152919Y0228240D01*
X0152240Y0228919D01*
X0151408Y0229399D01*
X0150480Y0229648D01*
D02*
G37*
G36*
X0143648D02*
X0136352D01*
Y0222352D01*
X0143648D01*
Y0229648D01*
D02*
G37*
G36*
X0094452Y0223000D02*
X0093855D01*
X0093304Y0222772D01*
X0092882Y0222350D01*
X0092654Y0221798D01*
Y0221202D01*
X0092882Y0220650D01*
X0093304Y0220228D01*
X0093855Y0220000D01*
X0094452D01*
X0095003Y0220228D01*
X0095425Y0220650D01*
X0095653Y0221202D01*
Y0221798D01*
X0095425Y0222350D01*
X0095003Y0222772D01*
X0094452Y0223000D01*
D02*
G37*
G36*
X0116798Y0221000D02*
X0116202D01*
X0115650Y0220772D01*
X0115228Y0220350D01*
X0115000Y0219798D01*
Y0219202D01*
X0115228Y0218650D01*
X0115650Y0218228D01*
X0116202Y0218000D01*
X0116798D01*
X0117350Y0218228D01*
X0117772Y0218650D01*
X0118000Y0219202D01*
Y0219798D01*
X0117772Y0220350D01*
X0117350Y0220772D01*
X0116798Y0221000D01*
D02*
G37*
G36*
X0068798Y0219500D02*
X0068202D01*
X0067650Y0219272D01*
X0067228Y0218850D01*
X0067000Y0218298D01*
Y0217702D01*
X0067228Y0217150D01*
X0067650Y0216728D01*
X0068202Y0216500D01*
X0068798D01*
X0069350Y0216728D01*
X0069772Y0217150D01*
X0070000Y0217702D01*
Y0218298D01*
X0069772Y0218850D01*
X0069350Y0219272D01*
X0068798Y0219500D01*
D02*
G37*
G36*
X0230480Y0219648D02*
X0229520D01*
X0228592Y0219399D01*
X0227760Y0218919D01*
X0227081Y0218240D01*
X0226601Y0217408D01*
X0226352Y0216480D01*
Y0215520D01*
X0226601Y0214592D01*
X0227081Y0213760D01*
X0227760Y0213081D01*
X0228592Y0212601D01*
X0229520Y0212352D01*
X0230480D01*
X0231408Y0212601D01*
X0232240Y0213081D01*
X0232919Y0213760D01*
X0233399Y0214592D01*
X0233648Y0215520D01*
Y0216480D01*
X0233399Y0217408D01*
X0232919Y0218240D01*
X0232240Y0218919D01*
X0231408Y0219399D01*
X0230480Y0219648D01*
D02*
G37*
G36*
X0220480D02*
X0219520D01*
X0218592Y0219399D01*
X0217760Y0218919D01*
X0217081Y0218240D01*
X0216601Y0217408D01*
X0216352Y0216480D01*
Y0215520D01*
X0216601Y0214592D01*
X0217081Y0213760D01*
X0217760Y0213081D01*
X0218592Y0212601D01*
X0219520Y0212352D01*
X0220480D01*
X0221408Y0212601D01*
X0222240Y0213081D01*
X0222919Y0213760D01*
X0223399Y0214592D01*
X0223648Y0215520D01*
Y0216480D01*
X0223399Y0217408D01*
X0222919Y0218240D01*
X0222240Y0218919D01*
X0221408Y0219399D01*
X0220480Y0219648D01*
D02*
G37*
G36*
X0150480D02*
X0149520D01*
X0148592Y0219399D01*
X0147760Y0218919D01*
X0147081Y0218240D01*
X0146601Y0217408D01*
X0146352Y0216480D01*
Y0215520D01*
X0146601Y0214592D01*
X0147081Y0213760D01*
X0147760Y0213081D01*
X0148592Y0212601D01*
X0149520Y0212352D01*
X0150480D01*
X0151408Y0212601D01*
X0152240Y0213081D01*
X0152919Y0213760D01*
X0153399Y0214592D01*
X0153648Y0215520D01*
Y0216480D01*
X0153399Y0217408D01*
X0152919Y0218240D01*
X0152240Y0218919D01*
X0151408Y0219399D01*
X0150480Y0219648D01*
D02*
G37*
G36*
X0140480D02*
X0139520D01*
X0138592Y0219399D01*
X0137760Y0218919D01*
X0137081Y0218240D01*
X0136601Y0217408D01*
X0136352Y0216480D01*
Y0215520D01*
X0136601Y0214592D01*
X0137081Y0213760D01*
X0137760Y0213081D01*
X0138592Y0212601D01*
X0139520Y0212352D01*
X0140480D01*
X0141408Y0212601D01*
X0142240Y0213081D01*
X0142919Y0213760D01*
X0143399Y0214592D01*
X0143648Y0215520D01*
Y0216480D01*
X0143399Y0217408D01*
X0142919Y0218240D01*
X0142240Y0218919D01*
X0141408Y0219399D01*
X0140480Y0219648D01*
D02*
G37*
G36*
X0098798Y0214000D02*
X0098202D01*
X0097650Y0213772D01*
X0097228Y0213350D01*
X0097000Y0212798D01*
Y0212202D01*
X0097228Y0211650D01*
X0097650Y0211228D01*
X0098202Y0211000D01*
X0098798D01*
X0099350Y0211228D01*
X0099772Y0211650D01*
X0100000Y0212202D01*
Y0212798D01*
X0099772Y0213350D01*
X0099350Y0213772D01*
X0098798Y0214000D01*
D02*
G37*
G36*
X0093798D02*
X0093202D01*
X0092650Y0213772D01*
X0092228Y0213350D01*
X0092000Y0212798D01*
Y0212202D01*
X0092228Y0211650D01*
X0092650Y0211228D01*
X0093202Y0211000D01*
X0093798D01*
X0094350Y0211228D01*
X0094772Y0211650D01*
X0095000Y0212202D01*
Y0212798D01*
X0094772Y0213350D01*
X0094350Y0213772D01*
X0093798Y0214000D01*
D02*
G37*
G36*
X0088798D02*
X0088202D01*
X0087650Y0213772D01*
X0087228Y0213350D01*
X0087000Y0212798D01*
Y0212202D01*
X0087228Y0211650D01*
X0087650Y0211228D01*
X0088202Y0211000D01*
X0088798D01*
X0089350Y0211228D01*
X0089772Y0211650D01*
X0090000Y0212202D01*
Y0212798D01*
X0089772Y0213350D01*
X0089350Y0213772D01*
X0088798Y0214000D01*
D02*
G37*
G36*
X0083798D02*
X0083202D01*
X0082650Y0213772D01*
X0082228Y0213350D01*
X0082000Y0212798D01*
Y0212202D01*
X0082228Y0211650D01*
X0082650Y0211228D01*
X0083202Y0211000D01*
X0083798D01*
X0084350Y0211228D01*
X0084772Y0211650D01*
X0085000Y0212202D01*
Y0212798D01*
X0084772Y0213350D01*
X0084350Y0213772D01*
X0083798Y0214000D01*
D02*
G37*
G36*
X0078798D02*
X0078202D01*
X0077650Y0213772D01*
X0077228Y0213350D01*
X0077000Y0212798D01*
Y0212202D01*
X0077228Y0211650D01*
X0077650Y0211228D01*
X0078202Y0211000D01*
X0078798D01*
X0079350Y0211228D01*
X0079772Y0211650D01*
X0080000Y0212202D01*
Y0212798D01*
X0079772Y0213350D01*
X0079350Y0213772D01*
X0078798Y0214000D01*
D02*
G37*
G36*
X0073798D02*
X0073202D01*
X0072650Y0213772D01*
X0072228Y0213350D01*
X0072000Y0212798D01*
Y0212202D01*
X0072228Y0211650D01*
X0072650Y0211228D01*
X0073202Y0211000D01*
X0073798D01*
X0074350Y0211228D01*
X0074772Y0211650D01*
X0075000Y0212202D01*
Y0212798D01*
X0074772Y0213350D01*
X0074350Y0213772D01*
X0073798Y0214000D01*
D02*
G37*
G36*
X0230480Y0209648D02*
X0229520D01*
X0228592Y0209399D01*
X0227760Y0208919D01*
X0227081Y0208240D01*
X0226601Y0207408D01*
X0226352Y0206480D01*
Y0205520D01*
X0226601Y0204592D01*
X0227081Y0203760D01*
X0227760Y0203081D01*
X0228592Y0202601D01*
X0229520Y0202352D01*
X0230480D01*
X0231408Y0202601D01*
X0232240Y0203081D01*
X0232919Y0203760D01*
X0233399Y0204592D01*
X0233648Y0205520D01*
Y0206480D01*
X0233399Y0207408D01*
X0232919Y0208240D01*
X0232240Y0208919D01*
X0231408Y0209399D01*
X0230480Y0209648D01*
D02*
G37*
G36*
X0220480D02*
X0219520D01*
X0218592Y0209399D01*
X0217760Y0208919D01*
X0217081Y0208240D01*
X0216601Y0207408D01*
X0216352Y0206480D01*
Y0205520D01*
X0216601Y0204592D01*
X0217081Y0203760D01*
X0217760Y0203081D01*
X0218592Y0202601D01*
X0219520Y0202352D01*
X0220480D01*
X0221408Y0202601D01*
X0222240Y0203081D01*
X0222919Y0203760D01*
X0223399Y0204592D01*
X0223648Y0205520D01*
Y0206480D01*
X0223399Y0207408D01*
X0222919Y0208240D01*
X0222240Y0208919D01*
X0221408Y0209399D01*
X0220480Y0209648D01*
D02*
G37*
G36*
X0150480D02*
X0149520D01*
X0148592Y0209399D01*
X0147760Y0208919D01*
X0147081Y0208240D01*
X0146601Y0207408D01*
X0146352Y0206480D01*
Y0205520D01*
X0146601Y0204592D01*
X0147081Y0203760D01*
X0147760Y0203081D01*
X0148592Y0202601D01*
X0149520Y0202352D01*
X0150480D01*
X0151408Y0202601D01*
X0152240Y0203081D01*
X0152919Y0203760D01*
X0153399Y0204592D01*
X0153648Y0205520D01*
Y0206480D01*
X0153399Y0207408D01*
X0152919Y0208240D01*
X0152240Y0208919D01*
X0151408Y0209399D01*
X0150480Y0209648D01*
D02*
G37*
G36*
X0140480D02*
X0139520D01*
X0138592Y0209399D01*
X0137760Y0208919D01*
X0137081Y0208240D01*
X0136601Y0207408D01*
X0136352Y0206480D01*
Y0205520D01*
X0136601Y0204592D01*
X0137081Y0203760D01*
X0137760Y0203081D01*
X0138592Y0202601D01*
X0139520Y0202352D01*
X0140480D01*
X0141408Y0202601D01*
X0142240Y0203081D01*
X0142919Y0203760D01*
X0143399Y0204592D01*
X0143648Y0205520D01*
Y0206480D01*
X0143399Y0207408D01*
X0142919Y0208240D01*
X0142240Y0208919D01*
X0141408Y0209399D01*
X0140480Y0209648D01*
D02*
G37*
G36*
X0230480Y0199648D02*
X0229520D01*
X0228592Y0199399D01*
X0227760Y0198919D01*
X0227081Y0198240D01*
X0226601Y0197408D01*
X0226352Y0196480D01*
Y0195520D01*
X0226601Y0194592D01*
X0227081Y0193760D01*
X0227760Y0193081D01*
X0228592Y0192601D01*
X0229520Y0192352D01*
X0230480D01*
X0231408Y0192601D01*
X0232240Y0193081D01*
X0232919Y0193760D01*
X0233399Y0194592D01*
X0233648Y0195520D01*
Y0196480D01*
X0233399Y0197408D01*
X0232919Y0198240D01*
X0232240Y0198919D01*
X0231408Y0199399D01*
X0230480Y0199648D01*
D02*
G37*
G36*
X0220480D02*
X0219520D01*
X0218592Y0199399D01*
X0217760Y0198919D01*
X0217081Y0198240D01*
X0216601Y0197408D01*
X0216352Y0196480D01*
Y0195520D01*
X0216601Y0194592D01*
X0217081Y0193760D01*
X0217760Y0193081D01*
X0218592Y0192601D01*
X0219520Y0192352D01*
X0220480D01*
X0221408Y0192601D01*
X0222240Y0193081D01*
X0222919Y0193760D01*
X0223399Y0194592D01*
X0223648Y0195520D01*
Y0196480D01*
X0223399Y0197408D01*
X0222919Y0198240D01*
X0222240Y0198919D01*
X0221408Y0199399D01*
X0220480Y0199648D01*
D02*
G37*
G36*
X0150480D02*
X0149520D01*
X0148592Y0199399D01*
X0147760Y0198919D01*
X0147081Y0198240D01*
X0146601Y0197408D01*
X0146352Y0196480D01*
Y0195520D01*
X0146601Y0194592D01*
X0147081Y0193760D01*
X0147760Y0193081D01*
X0148592Y0192601D01*
X0149520Y0192352D01*
X0150480D01*
X0151408Y0192601D01*
X0152240Y0193081D01*
X0152919Y0193760D01*
X0153399Y0194592D01*
X0153648Y0195520D01*
Y0196480D01*
X0153399Y0197408D01*
X0152919Y0198240D01*
X0152240Y0198919D01*
X0151408Y0199399D01*
X0150480Y0199648D01*
D02*
G37*
G36*
X0140480D02*
X0139520D01*
X0138592Y0199399D01*
X0137760Y0198919D01*
X0137081Y0198240D01*
X0136601Y0197408D01*
X0136352Y0196480D01*
Y0195520D01*
X0136601Y0194592D01*
X0137081Y0193760D01*
X0137760Y0193081D01*
X0138592Y0192601D01*
X0139520Y0192352D01*
X0140480D01*
X0141408Y0192601D01*
X0142240Y0193081D01*
X0142919Y0193760D01*
X0143399Y0194592D01*
X0143648Y0195520D01*
Y0196480D01*
X0143399Y0197408D01*
X0142919Y0198240D01*
X0142240Y0198919D01*
X0141408Y0199399D01*
X0140480Y0199648D01*
D02*
G37*
G36*
X0194298Y0191000D02*
X0193702D01*
X0193150Y0190772D01*
X0192728Y0190350D01*
X0192500Y0189798D01*
Y0189202D01*
X0192728Y0188650D01*
X0193150Y0188228D01*
X0193702Y0188000D01*
X0194298D01*
X0194850Y0188228D01*
X0195272Y0188650D01*
X0195500Y0189202D01*
Y0189798D01*
X0195272Y0190350D01*
X0194850Y0190772D01*
X0194298Y0191000D01*
D02*
G37*
G36*
X0190298D02*
X0189702D01*
X0189150Y0190772D01*
X0188728Y0190350D01*
X0188500Y0189798D01*
Y0189202D01*
X0188728Y0188650D01*
X0189150Y0188228D01*
X0189702Y0188000D01*
X0190298D01*
X0190850Y0188228D01*
X0191272Y0188650D01*
X0191500Y0189202D01*
Y0189798D01*
X0191272Y0190350D01*
X0190850Y0190772D01*
X0190298Y0191000D01*
D02*
G37*
G36*
X0186298D02*
X0185702D01*
X0185150Y0190772D01*
X0184728Y0190350D01*
X0184500Y0189798D01*
Y0189202D01*
X0184728Y0188650D01*
X0185150Y0188228D01*
X0185702Y0188000D01*
X0186298D01*
X0186850Y0188228D01*
X0187272Y0188650D01*
X0187500Y0189202D01*
Y0189798D01*
X0187272Y0190350D01*
X0186850Y0190772D01*
X0186298Y0191000D01*
D02*
G37*
G36*
X0182298D02*
X0181702D01*
X0181150Y0190772D01*
X0180728Y0190350D01*
X0180500Y0189798D01*
Y0189202D01*
X0180728Y0188650D01*
X0181150Y0188228D01*
X0181702Y0188000D01*
X0182298D01*
X0182850Y0188228D01*
X0183272Y0188650D01*
X0183500Y0189202D01*
Y0189798D01*
X0183272Y0190350D01*
X0182850Y0190772D01*
X0182298Y0191000D01*
D02*
G37*
G36*
X0178298D02*
X0177702D01*
X0177150Y0190772D01*
X0176728Y0190350D01*
X0176500Y0189798D01*
Y0189202D01*
X0176728Y0188650D01*
X0177150Y0188228D01*
X0177702Y0188000D01*
X0178298D01*
X0178850Y0188228D01*
X0179272Y0188650D01*
X0179500Y0189202D01*
Y0189798D01*
X0179272Y0190350D01*
X0178850Y0190772D01*
X0178298Y0191000D01*
D02*
G37*
G36*
X0070877Y0189740D02*
X0070280D01*
X0069729Y0189512D01*
X0069307Y0189090D01*
X0069079Y0188539D01*
Y0187942D01*
X0069307Y0187390D01*
X0069729Y0186969D01*
X0070280Y0186740D01*
X0070877D01*
X0071429Y0186969D01*
X0071850Y0187390D01*
X0072079Y0187942D01*
Y0188539D01*
X0071850Y0189090D01*
X0071429Y0189512D01*
X0070877Y0189740D01*
D02*
G37*
G36*
X0194298Y0187000D02*
X0193702D01*
X0193150Y0186772D01*
X0192728Y0186350D01*
X0192500Y0185798D01*
Y0185202D01*
X0192728Y0184650D01*
X0193150Y0184228D01*
X0193702Y0184000D01*
X0194298D01*
X0194850Y0184228D01*
X0195272Y0184650D01*
X0195500Y0185202D01*
Y0185798D01*
X0195272Y0186350D01*
X0194850Y0186772D01*
X0194298Y0187000D01*
D02*
G37*
G36*
X0190298D02*
X0189702D01*
X0189150Y0186772D01*
X0188728Y0186350D01*
X0188500Y0185798D01*
Y0185202D01*
X0188728Y0184650D01*
X0189150Y0184228D01*
X0189702Y0184000D01*
X0190298D01*
X0190850Y0184228D01*
X0191272Y0184650D01*
X0191500Y0185202D01*
Y0185798D01*
X0191272Y0186350D01*
X0190850Y0186772D01*
X0190298Y0187000D01*
D02*
G37*
G36*
X0186298D02*
X0185702D01*
X0185150Y0186772D01*
X0184728Y0186350D01*
X0184500Y0185798D01*
Y0185202D01*
X0184728Y0184650D01*
X0185150Y0184228D01*
X0185702Y0184000D01*
X0186298D01*
X0186850Y0184228D01*
X0187272Y0184650D01*
X0187500Y0185202D01*
Y0185798D01*
X0187272Y0186350D01*
X0186850Y0186772D01*
X0186298Y0187000D01*
D02*
G37*
G36*
X0182298D02*
X0181702D01*
X0181150Y0186772D01*
X0180728Y0186350D01*
X0180500Y0185798D01*
Y0185202D01*
X0180728Y0184650D01*
X0181150Y0184228D01*
X0181702Y0184000D01*
X0182298D01*
X0182850Y0184228D01*
X0183272Y0184650D01*
X0183500Y0185202D01*
Y0185798D01*
X0183272Y0186350D01*
X0182850Y0186772D01*
X0182298Y0187000D01*
D02*
G37*
G36*
X0178298D02*
X0177702D01*
X0177150Y0186772D01*
X0176728Y0186350D01*
X0176500Y0185798D01*
Y0185202D01*
X0176728Y0184650D01*
X0177150Y0184228D01*
X0177702Y0184000D01*
X0178298D01*
X0178850Y0184228D01*
X0179272Y0184650D01*
X0179500Y0185202D01*
Y0185798D01*
X0179272Y0186350D01*
X0178850Y0186772D01*
X0178298Y0187000D01*
D02*
G37*
G36*
X0230480Y0189648D02*
X0229520D01*
X0228592Y0189399D01*
X0227760Y0188919D01*
X0227081Y0188240D01*
X0226601Y0187408D01*
X0226352Y0186480D01*
Y0185520D01*
X0226601Y0184592D01*
X0227081Y0183760D01*
X0227760Y0183081D01*
X0228592Y0182601D01*
X0229520Y0182352D01*
X0230480D01*
X0231408Y0182601D01*
X0232240Y0183081D01*
X0232919Y0183760D01*
X0233399Y0184592D01*
X0233648Y0185520D01*
Y0186480D01*
X0233399Y0187408D01*
X0232919Y0188240D01*
X0232240Y0188919D01*
X0231408Y0189399D01*
X0230480Y0189648D01*
D02*
G37*
G36*
X0220480D02*
X0219520D01*
X0218592Y0189399D01*
X0217760Y0188919D01*
X0217081Y0188240D01*
X0216601Y0187408D01*
X0216352Y0186480D01*
Y0185520D01*
X0216601Y0184592D01*
X0217081Y0183760D01*
X0217760Y0183081D01*
X0218592Y0182601D01*
X0219520Y0182352D01*
X0220480D01*
X0221408Y0182601D01*
X0222240Y0183081D01*
X0222919Y0183760D01*
X0223399Y0184592D01*
X0223648Y0185520D01*
Y0186480D01*
X0223399Y0187408D01*
X0222919Y0188240D01*
X0222240Y0188919D01*
X0221408Y0189399D01*
X0220480Y0189648D01*
D02*
G37*
G36*
X0150480D02*
X0149520D01*
X0148592Y0189399D01*
X0147760Y0188919D01*
X0147081Y0188240D01*
X0146601Y0187408D01*
X0146352Y0186480D01*
Y0185520D01*
X0146601Y0184592D01*
X0147081Y0183760D01*
X0147760Y0183081D01*
X0148592Y0182601D01*
X0149520Y0182352D01*
X0150480D01*
X0151408Y0182601D01*
X0152240Y0183081D01*
X0152919Y0183760D01*
X0153399Y0184592D01*
X0153648Y0185520D01*
Y0186480D01*
X0153399Y0187408D01*
X0152919Y0188240D01*
X0152240Y0188919D01*
X0151408Y0189399D01*
X0150480Y0189648D01*
D02*
G37*
G36*
X0140480D02*
X0139520D01*
X0138592Y0189399D01*
X0137760Y0188919D01*
X0137081Y0188240D01*
X0136601Y0187408D01*
X0136352Y0186480D01*
Y0185520D01*
X0136601Y0184592D01*
X0137081Y0183760D01*
X0137760Y0183081D01*
X0138592Y0182601D01*
X0139520Y0182352D01*
X0140480D01*
X0141408Y0182601D01*
X0142240Y0183081D01*
X0142919Y0183760D01*
X0143399Y0184592D01*
X0143648Y0185520D01*
Y0186480D01*
X0143399Y0187408D01*
X0142919Y0188240D01*
X0142240Y0188919D01*
X0141408Y0189399D01*
X0140480Y0189648D01*
D02*
G37*
G36*
X0133298Y0183500D02*
X0132702D01*
X0132150Y0183272D01*
X0131728Y0182850D01*
X0131500Y0182298D01*
Y0181702D01*
X0131728Y0181150D01*
X0132150Y0180728D01*
X0132702Y0180500D01*
X0133298D01*
X0133850Y0180728D01*
X0134272Y0181150D01*
X0134500Y0181702D01*
Y0182298D01*
X0134272Y0182850D01*
X0133850Y0183272D01*
X0133298Y0183500D01*
D02*
G37*
G36*
X0127798D02*
X0127202D01*
X0126650Y0183272D01*
X0126228Y0182850D01*
X0126000Y0182298D01*
Y0181702D01*
X0126228Y0181150D01*
X0126650Y0180728D01*
X0127202Y0180500D01*
X0127798D01*
X0128350Y0180728D01*
X0128772Y0181150D01*
X0129000Y0181702D01*
Y0182298D01*
X0128772Y0182850D01*
X0128350Y0183272D01*
X0127798Y0183500D01*
D02*
G37*
G36*
X0122298D02*
X0121702D01*
X0121150Y0183272D01*
X0120728Y0182850D01*
X0120500Y0182298D01*
Y0181702D01*
X0120728Y0181150D01*
X0121150Y0180728D01*
X0121702Y0180500D01*
X0122298D01*
X0122850Y0180728D01*
X0123272Y0181150D01*
X0123500Y0181702D01*
Y0182298D01*
X0123272Y0182850D01*
X0122850Y0183272D01*
X0122298Y0183500D01*
D02*
G37*
G36*
X0194298Y0183000D02*
X0193702D01*
X0193150Y0182772D01*
X0192728Y0182350D01*
X0192500Y0181798D01*
Y0181202D01*
X0192728Y0180650D01*
X0193150Y0180228D01*
X0193702Y0180000D01*
X0194298D01*
X0194850Y0180228D01*
X0195272Y0180650D01*
X0195500Y0181202D01*
Y0181798D01*
X0195272Y0182350D01*
X0194850Y0182772D01*
X0194298Y0183000D01*
D02*
G37*
G36*
X0190298D02*
X0189702D01*
X0189150Y0182772D01*
X0188728Y0182350D01*
X0188500Y0181798D01*
Y0181202D01*
X0188728Y0180650D01*
X0189150Y0180228D01*
X0189702Y0180000D01*
X0190298D01*
X0190850Y0180228D01*
X0191272Y0180650D01*
X0191500Y0181202D01*
Y0181798D01*
X0191272Y0182350D01*
X0190850Y0182772D01*
X0190298Y0183000D01*
D02*
G37*
G36*
X0186298D02*
X0185702D01*
X0185150Y0182772D01*
X0184728Y0182350D01*
X0184500Y0181798D01*
Y0181202D01*
X0184728Y0180650D01*
X0185150Y0180228D01*
X0185702Y0180000D01*
X0186298D01*
X0186850Y0180228D01*
X0187272Y0180650D01*
X0187500Y0181202D01*
Y0181798D01*
X0187272Y0182350D01*
X0186850Y0182772D01*
X0186298Y0183000D01*
D02*
G37*
G36*
X0182298D02*
X0181702D01*
X0181150Y0182772D01*
X0180728Y0182350D01*
X0180500Y0181798D01*
Y0181202D01*
X0180728Y0180650D01*
X0181150Y0180228D01*
X0181702Y0180000D01*
X0182298D01*
X0182850Y0180228D01*
X0183272Y0180650D01*
X0183500Y0181202D01*
Y0181798D01*
X0183272Y0182350D01*
X0182850Y0182772D01*
X0182298Y0183000D01*
D02*
G37*
G36*
X0178298D02*
X0177702D01*
X0177150Y0182772D01*
X0176728Y0182350D01*
X0176500Y0181798D01*
Y0181202D01*
X0176728Y0180650D01*
X0177150Y0180228D01*
X0177702Y0180000D01*
X0178298D01*
X0178850Y0180228D01*
X0179272Y0180650D01*
X0179500Y0181202D01*
Y0181798D01*
X0179272Y0182350D01*
X0178850Y0182772D01*
X0178298Y0183000D01*
D02*
G37*
G36*
X0015862Y0187620D02*
X0015138D01*
X0014440Y0187433D01*
X0013814Y0187072D01*
X0013302Y0186560D01*
X0012941Y0185934D01*
X0012754Y0185236D01*
Y0184512D01*
X0012941Y0183814D01*
X0013302Y0183188D01*
X0013814Y0182676D01*
X0014440Y0182315D01*
X0015138Y0182128D01*
X0015862D01*
X0016470Y0182290D01*
X0016693Y0182130D01*
X0016853Y0181907D01*
X0016691Y0181299D01*
Y0180575D01*
X0016853Y0179967D01*
X0016693Y0179744D01*
X0016470Y0179584D01*
X0015862Y0179746D01*
X0015138D01*
X0014440Y0179559D01*
X0013814Y0179198D01*
X0013302Y0178686D01*
X0012941Y0178060D01*
X0012754Y0177362D01*
Y0176638D01*
X0012941Y0175940D01*
X0013302Y0175314D01*
X0013814Y0174802D01*
X0014440Y0174441D01*
X0015138Y0174253D01*
X0015862D01*
X0016560Y0174441D01*
X0017186Y0174802D01*
X0017698Y0175314D01*
X0018059Y0175940D01*
X0018246Y0176638D01*
Y0177362D01*
X0018083Y0177970D01*
X0018244Y0178193D01*
X0018467Y0178354D01*
X0019075Y0178191D01*
X0019799D01*
X0020497Y0178378D01*
X0021123Y0178739D01*
X0021635Y0179251D01*
X0021996Y0179877D01*
X0022184Y0180575D01*
Y0181299D01*
X0021996Y0181997D01*
X0021635Y0182623D01*
X0021123Y0183135D01*
X0020497Y0183496D01*
X0019799Y0183684D01*
X0019075D01*
X0018467Y0183520D01*
X0018244Y0183681D01*
X0018083Y0183904D01*
X0018246Y0184512D01*
Y0185236D01*
X0018059Y0185934D01*
X0017698Y0186560D01*
X0017186Y0187072D01*
X0016560Y0187433D01*
X0015862Y0187620D01*
D02*
G37*
G36*
X0230480Y0179648D02*
X0230200D01*
Y0176200D01*
X0233648D01*
Y0176480D01*
X0233399Y0177408D01*
X0232919Y0178240D01*
X0232240Y0178919D01*
X0231408Y0179399D01*
X0230480Y0179648D01*
D02*
G37*
G36*
X0150480D02*
X0150200D01*
Y0176200D01*
X0153648D01*
Y0176480D01*
X0153399Y0177408D01*
X0152919Y0178240D01*
X0152240Y0178919D01*
X0151408Y0179399D01*
X0150480Y0179648D01*
D02*
G37*
G36*
X0229800D02*
X0229520D01*
X0228592Y0179399D01*
X0227760Y0178919D01*
X0227081Y0178240D01*
X0226601Y0177408D01*
X0226352Y0176480D01*
Y0176200D01*
X0229800D01*
Y0179648D01*
D02*
G37*
G36*
X0149800D02*
X0149520D01*
X0148592Y0179399D01*
X0147760Y0178919D01*
X0147081Y0178240D01*
X0146601Y0177408D01*
X0146352Y0176480D01*
Y0176200D01*
X0149800D01*
Y0179648D01*
D02*
G37*
G36*
X0194298Y0179000D02*
X0193702D01*
X0193150Y0178772D01*
X0192728Y0178350D01*
X0192500Y0177798D01*
Y0177202D01*
X0192728Y0176650D01*
X0193150Y0176228D01*
X0193702Y0176000D01*
X0194298D01*
X0194850Y0176228D01*
X0195272Y0176650D01*
X0195500Y0177202D01*
Y0177798D01*
X0195272Y0178350D01*
X0194850Y0178772D01*
X0194298Y0179000D01*
D02*
G37*
G36*
X0190298D02*
X0189702D01*
X0189150Y0178772D01*
X0188728Y0178350D01*
X0188500Y0177798D01*
Y0177202D01*
X0188728Y0176650D01*
X0189150Y0176228D01*
X0189702Y0176000D01*
X0190298D01*
X0190850Y0176228D01*
X0191272Y0176650D01*
X0191500Y0177202D01*
Y0177798D01*
X0191272Y0178350D01*
X0190850Y0178772D01*
X0190298Y0179000D01*
D02*
G37*
G36*
X0186298D02*
X0185702D01*
X0185150Y0178772D01*
X0184728Y0178350D01*
X0184500Y0177798D01*
Y0177202D01*
X0184728Y0176650D01*
X0185150Y0176228D01*
X0185702Y0176000D01*
X0186298D01*
X0186850Y0176228D01*
X0187272Y0176650D01*
X0187500Y0177202D01*
Y0177798D01*
X0187272Y0178350D01*
X0186850Y0178772D01*
X0186298Y0179000D01*
D02*
G37*
G36*
X0182298D02*
X0181702D01*
X0181150Y0178772D01*
X0180728Y0178350D01*
X0180500Y0177798D01*
Y0177202D01*
X0180728Y0176650D01*
X0181150Y0176228D01*
X0181702Y0176000D01*
X0182298D01*
X0182850Y0176228D01*
X0183272Y0176650D01*
X0183500Y0177202D01*
Y0177798D01*
X0183272Y0178350D01*
X0182850Y0178772D01*
X0182298Y0179000D01*
D02*
G37*
G36*
X0178298D02*
X0177702D01*
X0177150Y0178772D01*
X0176728Y0178350D01*
X0176500Y0177798D01*
Y0177202D01*
X0176728Y0176650D01*
X0177150Y0176228D01*
X0177702Y0176000D01*
X0178298D01*
X0178850Y0176228D01*
X0179272Y0176650D01*
X0179500Y0177202D01*
Y0177798D01*
X0179272Y0178350D01*
X0178850Y0178772D01*
X0178298Y0179000D01*
D02*
G37*
G36*
X0108798Y0178154D02*
X0108202D01*
X0107650Y0177925D01*
X0107228Y0177503D01*
X0107000Y0176952D01*
Y0176355D01*
X0107228Y0175804D01*
X0107650Y0175382D01*
X0108202Y0175154D01*
X0108798D01*
X0109350Y0175382D01*
X0109772Y0175804D01*
X0110000Y0176355D01*
Y0176952D01*
X0109772Y0177503D01*
X0109350Y0177925D01*
X0108798Y0178154D01*
D02*
G37*
G36*
X0233648Y0175800D02*
X0230200D01*
Y0172352D01*
X0230480D01*
X0231408Y0172601D01*
X0232240Y0173081D01*
X0232919Y0173760D01*
X0233399Y0174592D01*
X0233648Y0175520D01*
Y0175800D01*
D02*
G37*
G36*
X0229800D02*
X0226352D01*
Y0175520D01*
X0226601Y0174592D01*
X0227081Y0173760D01*
X0227760Y0173081D01*
X0228592Y0172601D01*
X0229520Y0172352D01*
X0229800D01*
Y0175800D01*
D02*
G37*
G36*
X0220480Y0179648D02*
X0219520D01*
X0218592Y0179399D01*
X0217760Y0178919D01*
X0217081Y0178240D01*
X0216601Y0177408D01*
X0216352Y0176480D01*
Y0175520D01*
X0216601Y0174592D01*
X0217081Y0173760D01*
X0217760Y0173081D01*
X0218592Y0172601D01*
X0219520Y0172352D01*
X0220480D01*
X0221408Y0172601D01*
X0222240Y0173081D01*
X0222919Y0173760D01*
X0223399Y0174592D01*
X0223648Y0175520D01*
Y0176480D01*
X0223399Y0177408D01*
X0222919Y0178240D01*
X0222240Y0178919D01*
X0221408Y0179399D01*
X0220480Y0179648D01*
D02*
G37*
G36*
X0153648Y0175800D02*
X0150200D01*
Y0172352D01*
X0150480D01*
X0151408Y0172601D01*
X0152240Y0173081D01*
X0152919Y0173760D01*
X0153399Y0174592D01*
X0153648Y0175520D01*
Y0175800D01*
D02*
G37*
G36*
X0149800D02*
X0146352D01*
Y0175520D01*
X0146601Y0174592D01*
X0147081Y0173760D01*
X0147760Y0173081D01*
X0148592Y0172601D01*
X0149520Y0172352D01*
X0149800D01*
Y0175800D01*
D02*
G37*
G36*
X0140480Y0179648D02*
X0139520D01*
X0138592Y0179399D01*
X0137760Y0178919D01*
X0137081Y0178240D01*
X0136601Y0177408D01*
X0136352Y0176480D01*
Y0175520D01*
X0136601Y0174592D01*
X0137081Y0173760D01*
X0137760Y0173081D01*
X0138592Y0172601D01*
X0139520Y0172352D01*
X0140480D01*
X0141408Y0172601D01*
X0142240Y0173081D01*
X0142919Y0173760D01*
X0143399Y0174592D01*
X0143648Y0175520D01*
Y0176480D01*
X0143399Y0177408D01*
X0142919Y0178240D01*
X0142240Y0178919D01*
X0141408Y0179399D01*
X0140480Y0179648D01*
D02*
G37*
G36*
X0194298Y0175000D02*
X0193702D01*
X0193150Y0174772D01*
X0192728Y0174350D01*
X0192500Y0173798D01*
Y0173202D01*
X0192728Y0172650D01*
X0193150Y0172228D01*
X0193702Y0172000D01*
X0194298D01*
X0194850Y0172228D01*
X0195272Y0172650D01*
X0195500Y0173202D01*
Y0173798D01*
X0195272Y0174350D01*
X0194850Y0174772D01*
X0194298Y0175000D01*
D02*
G37*
G36*
X0190298D02*
X0189702D01*
X0189150Y0174772D01*
X0188728Y0174350D01*
X0188500Y0173798D01*
Y0173202D01*
X0188728Y0172650D01*
X0189150Y0172228D01*
X0189702Y0172000D01*
X0190298D01*
X0190850Y0172228D01*
X0191272Y0172650D01*
X0191500Y0173202D01*
Y0173798D01*
X0191272Y0174350D01*
X0190850Y0174772D01*
X0190298Y0175000D01*
D02*
G37*
G36*
X0186298D02*
X0185702D01*
X0185150Y0174772D01*
X0184728Y0174350D01*
X0184500Y0173798D01*
Y0173202D01*
X0184728Y0172650D01*
X0185150Y0172228D01*
X0185702Y0172000D01*
X0186298D01*
X0186850Y0172228D01*
X0187272Y0172650D01*
X0187500Y0173202D01*
Y0173798D01*
X0187272Y0174350D01*
X0186850Y0174772D01*
X0186298Y0175000D01*
D02*
G37*
G36*
X0182298D02*
X0181702D01*
X0181150Y0174772D01*
X0180728Y0174350D01*
X0180500Y0173798D01*
Y0173202D01*
X0180728Y0172650D01*
X0181150Y0172228D01*
X0181702Y0172000D01*
X0182298D01*
X0182850Y0172228D01*
X0183272Y0172650D01*
X0183500Y0173202D01*
Y0173798D01*
X0183272Y0174350D01*
X0182850Y0174772D01*
X0182298Y0175000D01*
D02*
G37*
G36*
X0178298D02*
X0177702D01*
X0177150Y0174772D01*
X0176728Y0174350D01*
X0176500Y0173798D01*
Y0173202D01*
X0176728Y0172650D01*
X0177150Y0172228D01*
X0177702Y0172000D01*
X0178298D01*
X0178850Y0172228D01*
X0179272Y0172650D01*
X0179500Y0173202D01*
Y0173798D01*
X0179272Y0174350D01*
X0178850Y0174772D01*
X0178298Y0175000D01*
D02*
G37*
G36*
X0086220Y0171740D02*
X0085623D01*
X0085072Y0171512D01*
X0084650Y0171090D01*
X0084421Y0170538D01*
Y0169942D01*
X0084650Y0169390D01*
X0085072Y0168968D01*
X0085623Y0168740D01*
X0086220D01*
X0086771Y0168968D01*
X0087193Y0169390D01*
X0087421Y0169942D01*
Y0170538D01*
X0087193Y0171090D01*
X0086771Y0171512D01*
X0086220Y0171740D01*
D02*
G37*
G36*
X0133298Y0171500D02*
X0132702D01*
X0132150Y0171272D01*
X0131728Y0170850D01*
X0131500Y0170298D01*
Y0169702D01*
X0131728Y0169150D01*
X0132150Y0168728D01*
X0132702Y0168500D01*
X0133298D01*
X0133850Y0168728D01*
X0134272Y0169150D01*
X0134500Y0169702D01*
Y0170298D01*
X0134272Y0170850D01*
X0133850Y0171272D01*
X0133298Y0171500D01*
D02*
G37*
G36*
X0127798D02*
X0127202D01*
X0126650Y0171272D01*
X0126228Y0170850D01*
X0126000Y0170298D01*
Y0169702D01*
X0126228Y0169150D01*
X0126650Y0168728D01*
X0127202Y0168500D01*
X0127798D01*
X0128350Y0168728D01*
X0128772Y0169150D01*
X0129000Y0169702D01*
Y0170298D01*
X0128772Y0170850D01*
X0128350Y0171272D01*
X0127798Y0171500D01*
D02*
G37*
G36*
X0122298D02*
X0121702D01*
X0121150Y0171272D01*
X0120728Y0170850D01*
X0120500Y0170298D01*
Y0169702D01*
X0120728Y0169150D01*
X0121150Y0168728D01*
X0121702Y0168500D01*
X0122298D01*
X0122850Y0168728D01*
X0123272Y0169150D01*
X0123500Y0169702D01*
Y0170298D01*
X0123272Y0170850D01*
X0122850Y0171272D01*
X0122298Y0171500D01*
D02*
G37*
G36*
X0070377Y0165740D02*
X0069780D01*
X0069229Y0165512D01*
X0068807Y0165090D01*
X0068579Y0164539D01*
Y0163942D01*
X0068807Y0163391D01*
X0069229Y0162969D01*
X0069780Y0162740D01*
X0070377D01*
X0070929Y0162969D01*
X0071350Y0163391D01*
X0071579Y0163942D01*
Y0164539D01*
X0071350Y0165090D01*
X0070929Y0165512D01*
X0070377Y0165740D01*
D02*
G37*
G36*
X0230480Y0169648D02*
X0229520D01*
X0228592Y0169399D01*
X0227760Y0168919D01*
X0227081Y0168240D01*
X0226601Y0167408D01*
X0226352Y0166480D01*
Y0165520D01*
X0226601Y0164592D01*
X0227081Y0163760D01*
X0227760Y0163081D01*
X0228592Y0162601D01*
X0229520Y0162352D01*
X0230480D01*
X0231408Y0162601D01*
X0232240Y0163081D01*
X0232919Y0163760D01*
X0233399Y0164592D01*
X0233648Y0165520D01*
Y0166480D01*
X0233399Y0167408D01*
X0232919Y0168240D01*
X0232240Y0168919D01*
X0231408Y0169399D01*
X0230480Y0169648D01*
D02*
G37*
G36*
X0220480D02*
X0219520D01*
X0218592Y0169399D01*
X0217760Y0168919D01*
X0217081Y0168240D01*
X0216601Y0167408D01*
X0216352Y0166480D01*
Y0165520D01*
X0216601Y0164592D01*
X0217081Y0163760D01*
X0217760Y0163081D01*
X0218592Y0162601D01*
X0219520Y0162352D01*
X0220480D01*
X0221408Y0162601D01*
X0222240Y0163081D01*
X0222919Y0163760D01*
X0223399Y0164592D01*
X0223648Y0165520D01*
Y0166480D01*
X0223399Y0167408D01*
X0222919Y0168240D01*
X0222240Y0168919D01*
X0221408Y0169399D01*
X0220480Y0169648D01*
D02*
G37*
G36*
X0150480D02*
X0149520D01*
X0148592Y0169399D01*
X0147760Y0168919D01*
X0147081Y0168240D01*
X0146601Y0167408D01*
X0146352Y0166480D01*
Y0165520D01*
X0146601Y0164592D01*
X0147081Y0163760D01*
X0147760Y0163081D01*
X0148592Y0162601D01*
X0149520Y0162352D01*
X0150480D01*
X0151408Y0162601D01*
X0152240Y0163081D01*
X0152919Y0163760D01*
X0153399Y0164592D01*
X0153648Y0165520D01*
Y0166480D01*
X0153399Y0167408D01*
X0152919Y0168240D01*
X0152240Y0168919D01*
X0151408Y0169399D01*
X0150480Y0169648D01*
D02*
G37*
G36*
X0140480D02*
X0139520D01*
X0138592Y0169399D01*
X0137760Y0168919D01*
X0137081Y0168240D01*
X0136601Y0167408D01*
X0136352Y0166480D01*
Y0165520D01*
X0136601Y0164592D01*
X0137081Y0163760D01*
X0137760Y0163081D01*
X0138592Y0162601D01*
X0139520Y0162352D01*
X0140480D01*
X0141408Y0162601D01*
X0142240Y0163081D01*
X0142919Y0163760D01*
X0143399Y0164592D01*
X0143648Y0165520D01*
Y0166480D01*
X0143399Y0167408D01*
X0142919Y0168240D01*
X0142240Y0168919D01*
X0141408Y0169399D01*
X0140480Y0169648D01*
D02*
G37*
G36*
X0230480Y0159648D02*
X0229520D01*
X0228592Y0159399D01*
X0227760Y0158919D01*
X0227081Y0158240D01*
X0226601Y0157408D01*
X0226352Y0156480D01*
Y0155520D01*
X0226601Y0154592D01*
X0227081Y0153760D01*
X0227760Y0153081D01*
X0228592Y0152601D01*
X0229520Y0152352D01*
X0230480D01*
X0231408Y0152601D01*
X0232240Y0153081D01*
X0232919Y0153760D01*
X0233399Y0154592D01*
X0233648Y0155520D01*
Y0156480D01*
X0233399Y0157408D01*
X0232919Y0158240D01*
X0232240Y0158919D01*
X0231408Y0159399D01*
X0230480Y0159648D01*
D02*
G37*
G36*
X0220480D02*
X0219520D01*
X0218592Y0159399D01*
X0217760Y0158919D01*
X0217081Y0158240D01*
X0216601Y0157408D01*
X0216352Y0156480D01*
Y0155520D01*
X0216601Y0154592D01*
X0217081Y0153760D01*
X0217760Y0153081D01*
X0218592Y0152601D01*
X0219520Y0152352D01*
X0220480D01*
X0221408Y0152601D01*
X0222240Y0153081D01*
X0222919Y0153760D01*
X0223399Y0154592D01*
X0223648Y0155520D01*
Y0156480D01*
X0223399Y0157408D01*
X0222919Y0158240D01*
X0222240Y0158919D01*
X0221408Y0159399D01*
X0220480Y0159648D01*
D02*
G37*
G36*
X0150480D02*
X0149520D01*
X0148592Y0159399D01*
X0147760Y0158919D01*
X0147081Y0158240D01*
X0146601Y0157408D01*
X0146352Y0156480D01*
Y0155520D01*
X0146601Y0154592D01*
X0147081Y0153760D01*
X0147760Y0153081D01*
X0148592Y0152601D01*
X0149520Y0152352D01*
X0150480D01*
X0151408Y0152601D01*
X0152240Y0153081D01*
X0152919Y0153760D01*
X0153399Y0154592D01*
X0153648Y0155520D01*
Y0156480D01*
X0153399Y0157408D01*
X0152919Y0158240D01*
X0152240Y0158919D01*
X0151408Y0159399D01*
X0150480Y0159648D01*
D02*
G37*
G36*
X0140480D02*
X0139520D01*
X0138592Y0159399D01*
X0137760Y0158919D01*
X0137081Y0158240D01*
X0136601Y0157408D01*
X0136352Y0156480D01*
Y0155520D01*
X0136601Y0154592D01*
X0137081Y0153760D01*
X0137760Y0153081D01*
X0138592Y0152601D01*
X0139520Y0152352D01*
X0140480D01*
X0141408Y0152601D01*
X0142240Y0153081D01*
X0142919Y0153760D01*
X0143399Y0154592D01*
X0143648Y0155520D01*
Y0156480D01*
X0143399Y0157408D01*
X0142919Y0158240D01*
X0142240Y0158919D01*
X0141408Y0159399D01*
X0140480Y0159648D01*
D02*
G37*
G36*
X0108298Y0154154D02*
X0107702D01*
X0107150Y0153925D01*
X0106728Y0153503D01*
X0106500Y0152952D01*
Y0152355D01*
X0106728Y0151804D01*
X0107150Y0151382D01*
X0107702Y0151154D01*
X0108298D01*
X0108850Y0151382D01*
X0109272Y0151804D01*
X0109500Y0152355D01*
Y0152952D01*
X0109272Y0153503D01*
X0108850Y0153925D01*
X0108298Y0154154D01*
D02*
G37*
G36*
X0193399Y0147000D02*
X0192802D01*
X0192251Y0146772D01*
X0191829Y0146350D01*
X0191600Y0145798D01*
Y0145202D01*
X0191829Y0144650D01*
X0192251Y0144228D01*
X0192802Y0144000D01*
X0193399D01*
X0193950Y0144228D01*
X0194372Y0144650D01*
X0194600Y0145202D01*
Y0145798D01*
X0194372Y0146350D01*
X0193950Y0146772D01*
X0193399Y0147000D01*
D02*
G37*
G36*
X0097220Y0146740D02*
X0096623D01*
X0096072Y0146512D01*
X0095650Y0146090D01*
X0095421Y0145538D01*
Y0144942D01*
X0095650Y0144390D01*
X0096072Y0143968D01*
X0096623Y0143740D01*
X0097220D01*
X0097771Y0143968D01*
X0098193Y0144390D01*
X0098421Y0144942D01*
Y0145538D01*
X0098193Y0146090D01*
X0097771Y0146512D01*
X0097220Y0146740D01*
D02*
G37*
G36*
X0230480Y0149648D02*
X0229520D01*
X0228592Y0149399D01*
X0227760Y0148919D01*
X0227081Y0148240D01*
X0226601Y0147408D01*
X0226352Y0146480D01*
Y0145520D01*
X0226601Y0144592D01*
X0227081Y0143760D01*
X0227760Y0143081D01*
X0228592Y0142601D01*
X0229520Y0142352D01*
X0230480D01*
X0231408Y0142601D01*
X0232240Y0143081D01*
X0232919Y0143760D01*
X0233399Y0144592D01*
X0233648Y0145520D01*
Y0146480D01*
X0233399Y0147408D01*
X0232919Y0148240D01*
X0232240Y0148919D01*
X0231408Y0149399D01*
X0230480Y0149648D01*
D02*
G37*
G36*
X0220480D02*
X0219520D01*
X0218592Y0149399D01*
X0217760Y0148919D01*
X0217081Y0148240D01*
X0216601Y0147408D01*
X0216352Y0146480D01*
Y0145520D01*
X0216601Y0144592D01*
X0217081Y0143760D01*
X0217760Y0143081D01*
X0218592Y0142601D01*
X0219520Y0142352D01*
X0220480D01*
X0221408Y0142601D01*
X0222240Y0143081D01*
X0222919Y0143760D01*
X0223399Y0144592D01*
X0223648Y0145520D01*
Y0146480D01*
X0223399Y0147408D01*
X0222919Y0148240D01*
X0222240Y0148919D01*
X0221408Y0149399D01*
X0220480Y0149648D01*
D02*
G37*
G36*
X0150480D02*
X0149520D01*
X0148592Y0149399D01*
X0147760Y0148919D01*
X0147081Y0148240D01*
X0146601Y0147408D01*
X0146352Y0146480D01*
Y0145520D01*
X0146601Y0144592D01*
X0147081Y0143760D01*
X0147760Y0143081D01*
X0148592Y0142601D01*
X0149520Y0142352D01*
X0150480D01*
X0151408Y0142601D01*
X0152240Y0143081D01*
X0152919Y0143760D01*
X0153399Y0144592D01*
X0153648Y0145520D01*
Y0146480D01*
X0153399Y0147408D01*
X0152919Y0148240D01*
X0152240Y0148919D01*
X0151408Y0149399D01*
X0150480Y0149648D01*
D02*
G37*
G36*
X0140480D02*
X0139520D01*
X0138592Y0149399D01*
X0137760Y0148919D01*
X0137081Y0148240D01*
X0136601Y0147408D01*
X0136352Y0146480D01*
Y0145520D01*
X0136601Y0144592D01*
X0137081Y0143760D01*
X0137760Y0143081D01*
X0138592Y0142601D01*
X0139520Y0142352D01*
X0140480D01*
X0141408Y0142601D01*
X0142240Y0143081D01*
X0142919Y0143760D01*
X0143399Y0144592D01*
X0143648Y0145520D01*
Y0146480D01*
X0143399Y0147408D01*
X0142919Y0148240D01*
X0142240Y0148919D01*
X0141408Y0149399D01*
X0140480Y0149648D01*
D02*
G37*
G36*
X0081377Y0140740D02*
X0080780D01*
X0080229Y0140512D01*
X0079807Y0140090D01*
X0079579Y0139539D01*
Y0138942D01*
X0079807Y0138391D01*
X0080229Y0137969D01*
X0080780Y0137740D01*
X0081377D01*
X0081928Y0137969D01*
X0082350Y0138391D01*
X0082579Y0138942D01*
Y0139539D01*
X0082350Y0140090D01*
X0081928Y0140512D01*
X0081377Y0140740D01*
D02*
G37*
G36*
X0029862Y0145121D02*
X0029138D01*
X0028440Y0144933D01*
X0027814Y0144572D01*
X0027302Y0144060D01*
X0026941Y0143434D01*
X0026754Y0142736D01*
Y0142012D01*
X0026941Y0141314D01*
X0027302Y0140688D01*
X0027814Y0140176D01*
X0028440Y0139815D01*
X0029138Y0139628D01*
X0029862D01*
X0030470Y0139790D01*
X0030693Y0139630D01*
X0030854Y0139407D01*
X0030691Y0138799D01*
Y0138075D01*
X0030854Y0137467D01*
X0030693Y0137244D01*
X0030470Y0137083D01*
X0029862Y0137247D01*
X0029138D01*
X0028440Y0137059D01*
X0027814Y0136698D01*
X0027302Y0136186D01*
X0026941Y0135560D01*
X0026754Y0134862D01*
Y0134138D01*
X0026941Y0133440D01*
X0027302Y0132814D01*
X0027814Y0132302D01*
X0028440Y0131941D01*
X0029138Y0131754D01*
X0029862D01*
X0030560Y0131941D01*
X0031186Y0132302D01*
X0031698Y0132814D01*
X0032059Y0133440D01*
X0032246Y0134138D01*
Y0134862D01*
X0032083Y0135470D01*
X0032244Y0135693D01*
X0032467Y0135854D01*
X0033075Y0135691D01*
X0033799D01*
X0034497Y0135878D01*
X0035123Y0136239D01*
X0035635Y0136751D01*
X0035996Y0137377D01*
X0036184Y0138075D01*
Y0138799D01*
X0035996Y0139497D01*
X0035635Y0140123D01*
X0035123Y0140635D01*
X0034497Y0140996D01*
X0033799Y0141183D01*
X0033075D01*
X0032467Y0141021D01*
X0032244Y0141181D01*
X0032083Y0141404D01*
X0032246Y0142012D01*
Y0142736D01*
X0032059Y0143434D01*
X0031698Y0144060D01*
X0031186Y0144572D01*
X0030560Y0144933D01*
X0029862Y0145121D01*
D02*
G37*
G36*
X0230480Y0139648D02*
X0229520D01*
X0228592Y0139399D01*
X0227760Y0138919D01*
X0227081Y0138240D01*
X0226601Y0137408D01*
X0226352Y0136480D01*
Y0135520D01*
X0226601Y0134592D01*
X0227081Y0133760D01*
X0227760Y0133081D01*
X0228592Y0132601D01*
X0229520Y0132352D01*
X0230480D01*
X0231408Y0132601D01*
X0232240Y0133081D01*
X0232919Y0133760D01*
X0233399Y0134592D01*
X0233648Y0135520D01*
Y0136480D01*
X0233399Y0137408D01*
X0232919Y0138240D01*
X0232240Y0138919D01*
X0231408Y0139399D01*
X0230480Y0139648D01*
D02*
G37*
G36*
X0220480D02*
X0219520D01*
X0218592Y0139399D01*
X0217760Y0138919D01*
X0217081Y0138240D01*
X0216601Y0137408D01*
X0216352Y0136480D01*
Y0135520D01*
X0216601Y0134592D01*
X0217081Y0133760D01*
X0217760Y0133081D01*
X0218592Y0132601D01*
X0219520Y0132352D01*
X0220480D01*
X0221408Y0132601D01*
X0222240Y0133081D01*
X0222919Y0133760D01*
X0223399Y0134592D01*
X0223648Y0135520D01*
Y0136480D01*
X0223399Y0137408D01*
X0222919Y0138240D01*
X0222240Y0138919D01*
X0221408Y0139399D01*
X0220480Y0139648D01*
D02*
G37*
G36*
X0150480D02*
X0149520D01*
X0148592Y0139399D01*
X0147760Y0138919D01*
X0147081Y0138240D01*
X0146601Y0137408D01*
X0146352Y0136480D01*
Y0135520D01*
X0146601Y0134592D01*
X0147081Y0133760D01*
X0147760Y0133081D01*
X0148592Y0132601D01*
X0149520Y0132352D01*
X0150480D01*
X0151408Y0132601D01*
X0152240Y0133081D01*
X0152919Y0133760D01*
X0153399Y0134592D01*
X0153648Y0135520D01*
Y0136480D01*
X0153399Y0137408D01*
X0152919Y0138240D01*
X0152240Y0138919D01*
X0151408Y0139399D01*
X0150480Y0139648D01*
D02*
G37*
G36*
X0140480D02*
X0139520D01*
X0138592Y0139399D01*
X0137760Y0138919D01*
X0137081Y0138240D01*
X0136601Y0137408D01*
X0136352Y0136480D01*
Y0135520D01*
X0136601Y0134592D01*
X0137081Y0133760D01*
X0137760Y0133081D01*
X0138592Y0132601D01*
X0139520Y0132352D01*
X0140480D01*
X0141408Y0132601D01*
X0142240Y0133081D01*
X0142919Y0133760D01*
X0143399Y0134592D01*
X0143648Y0135520D01*
Y0136480D01*
X0143399Y0137408D01*
X0142919Y0138240D01*
X0142240Y0138919D01*
X0141408Y0139399D01*
X0140480Y0139648D01*
D02*
G37*
G36*
X0114798Y0132307D02*
X0114202D01*
X0113650Y0132079D01*
X0113228Y0131657D01*
X0113000Y0131105D01*
Y0130509D01*
X0113228Y0129957D01*
X0113650Y0129535D01*
X0114202Y0129307D01*
X0114798D01*
X0115350Y0129535D01*
X0115772Y0129957D01*
X0116000Y0130509D01*
Y0131105D01*
X0115772Y0131657D01*
X0115350Y0132079D01*
X0114798Y0132307D01*
D02*
G37*
G36*
X0159289Y0128500D02*
X0158692D01*
X0158141Y0128272D01*
X0157719Y0127850D01*
X0157490Y0127298D01*
Y0126702D01*
X0157719Y0126150D01*
X0158141Y0125728D01*
X0158692Y0125500D01*
X0159289D01*
X0159840Y0125728D01*
X0160262Y0126150D01*
X0160490Y0126702D01*
Y0127298D01*
X0160262Y0127850D01*
X0159840Y0128272D01*
X0159289Y0128500D01*
D02*
G37*
G36*
X0118798D02*
X0118202D01*
X0117650Y0128272D01*
X0117228Y0127850D01*
X0117000Y0127298D01*
Y0126702D01*
X0117228Y0126150D01*
X0117650Y0125728D01*
X0118202Y0125500D01*
X0118798D01*
X0119350Y0125728D01*
X0119772Y0126150D01*
X0120000Y0126702D01*
Y0127298D01*
X0119772Y0127850D01*
X0119350Y0128272D01*
X0118798Y0128500D01*
D02*
G37*
G36*
X0097298Y0127480D02*
X0096702D01*
X0096150Y0127252D01*
X0095728Y0126830D01*
X0095500Y0126279D01*
Y0125682D01*
X0095728Y0125131D01*
X0096150Y0124709D01*
X0096702Y0124480D01*
X0097298D01*
X0097850Y0124709D01*
X0098272Y0125131D01*
X0098500Y0125682D01*
Y0126279D01*
X0098272Y0126830D01*
X0097850Y0127252D01*
X0097298Y0127480D01*
D02*
G37*
G36*
X0230480Y0129648D02*
X0229520D01*
X0228592Y0129399D01*
X0227760Y0128919D01*
X0227081Y0128240D01*
X0226601Y0127408D01*
X0226352Y0126480D01*
Y0125520D01*
X0226601Y0124592D01*
X0227081Y0123760D01*
X0227760Y0123081D01*
X0228592Y0122601D01*
X0229520Y0122352D01*
X0230480D01*
X0231408Y0122601D01*
X0232240Y0123081D01*
X0232919Y0123760D01*
X0233399Y0124592D01*
X0233648Y0125520D01*
Y0126480D01*
X0233399Y0127408D01*
X0232919Y0128240D01*
X0232240Y0128919D01*
X0231408Y0129399D01*
X0230480Y0129648D01*
D02*
G37*
G36*
X0220480D02*
X0219520D01*
X0218592Y0129399D01*
X0217760Y0128919D01*
X0217081Y0128240D01*
X0216601Y0127408D01*
X0216352Y0126480D01*
Y0125520D01*
X0216601Y0124592D01*
X0217081Y0123760D01*
X0217760Y0123081D01*
X0218592Y0122601D01*
X0219520Y0122352D01*
X0220480D01*
X0221408Y0122601D01*
X0222240Y0123081D01*
X0222919Y0123760D01*
X0223399Y0124592D01*
X0223648Y0125520D01*
Y0126480D01*
X0223399Y0127408D01*
X0222919Y0128240D01*
X0222240Y0128919D01*
X0221408Y0129399D01*
X0220480Y0129648D01*
D02*
G37*
G36*
X0150480D02*
X0149520D01*
X0148592Y0129399D01*
X0147760Y0128919D01*
X0147081Y0128240D01*
X0146601Y0127408D01*
X0146352Y0126480D01*
Y0125520D01*
X0146601Y0124592D01*
X0147081Y0123760D01*
X0147760Y0123081D01*
X0148592Y0122601D01*
X0149520Y0122352D01*
X0150480D01*
X0151408Y0122601D01*
X0152240Y0123081D01*
X0152919Y0123760D01*
X0153399Y0124592D01*
X0153648Y0125520D01*
Y0126480D01*
X0153399Y0127408D01*
X0152919Y0128240D01*
X0152240Y0128919D01*
X0151408Y0129399D01*
X0150480Y0129648D01*
D02*
G37*
G36*
X0140480D02*
X0139520D01*
X0138592Y0129399D01*
X0137760Y0128919D01*
X0137081Y0128240D01*
X0136601Y0127408D01*
X0136352Y0126480D01*
Y0125520D01*
X0136601Y0124592D01*
X0137081Y0123760D01*
X0137760Y0123081D01*
X0138592Y0122601D01*
X0139520Y0122352D01*
X0140480D01*
X0141408Y0122601D01*
X0142240Y0123081D01*
X0142919Y0123760D01*
X0143399Y0124592D01*
X0143648Y0125520D01*
Y0126480D01*
X0143399Y0127408D01*
X0142919Y0128240D01*
X0142240Y0128919D01*
X0141408Y0129399D01*
X0140480Y0129648D01*
D02*
G37*
G36*
X0230480Y0119648D02*
X0229520D01*
X0228592Y0119399D01*
X0227760Y0118919D01*
X0227081Y0118240D01*
X0226601Y0117408D01*
X0226352Y0116480D01*
Y0115520D01*
X0226601Y0114592D01*
X0227081Y0113760D01*
X0227760Y0113081D01*
X0228592Y0112601D01*
X0229520Y0112352D01*
X0230480D01*
X0231408Y0112601D01*
X0232240Y0113081D01*
X0232919Y0113760D01*
X0233399Y0114592D01*
X0233648Y0115520D01*
Y0116480D01*
X0233399Y0117408D01*
X0232919Y0118240D01*
X0232240Y0118919D01*
X0231408Y0119399D01*
X0230480Y0119648D01*
D02*
G37*
G36*
X0220480D02*
X0219520D01*
X0218592Y0119399D01*
X0217760Y0118919D01*
X0217081Y0118240D01*
X0216601Y0117408D01*
X0216352Y0116480D01*
Y0115520D01*
X0216601Y0114592D01*
X0217081Y0113760D01*
X0217760Y0113081D01*
X0218592Y0112601D01*
X0219520Y0112352D01*
X0220480D01*
X0221408Y0112601D01*
X0222240Y0113081D01*
X0222919Y0113760D01*
X0223399Y0114592D01*
X0223648Y0115520D01*
Y0116480D01*
X0223399Y0117408D01*
X0222919Y0118240D01*
X0222240Y0118919D01*
X0221408Y0119399D01*
X0220480Y0119648D01*
D02*
G37*
G36*
X0150480D02*
X0149520D01*
X0148592Y0119399D01*
X0147760Y0118919D01*
X0147081Y0118240D01*
X0146601Y0117408D01*
X0146352Y0116480D01*
Y0115520D01*
X0146601Y0114592D01*
X0147081Y0113760D01*
X0147760Y0113081D01*
X0148592Y0112601D01*
X0149520Y0112352D01*
X0150480D01*
X0151408Y0112601D01*
X0152240Y0113081D01*
X0152919Y0113760D01*
X0153399Y0114592D01*
X0153648Y0115520D01*
Y0116480D01*
X0153399Y0117408D01*
X0152919Y0118240D01*
X0152240Y0118919D01*
X0151408Y0119399D01*
X0150480Y0119648D01*
D02*
G37*
G36*
X0140480D02*
X0139520D01*
X0138592Y0119399D01*
X0137760Y0118919D01*
X0137081Y0118240D01*
X0136601Y0117408D01*
X0136352Y0116480D01*
Y0115520D01*
X0136601Y0114592D01*
X0137081Y0113760D01*
X0137760Y0113081D01*
X0138592Y0112601D01*
X0139520Y0112352D01*
X0140480D01*
X0141408Y0112601D01*
X0142240Y0113081D01*
X0142919Y0113760D01*
X0143399Y0114592D01*
X0143648Y0115520D01*
Y0116480D01*
X0143399Y0117408D01*
X0142919Y0118240D01*
X0142240Y0118919D01*
X0141408Y0119399D01*
X0140480Y0119648D01*
D02*
G37*
G36*
X0129298Y0109654D02*
X0128702D01*
X0128150Y0109425D01*
X0127728Y0109003D01*
X0127500Y0108452D01*
Y0107855D01*
X0127728Y0107304D01*
X0128150Y0106882D01*
X0128702Y0106654D01*
X0129298D01*
X0129850Y0106882D01*
X0130272Y0107304D01*
X0130500Y0107855D01*
Y0108452D01*
X0130272Y0109003D01*
X0129850Y0109425D01*
X0129298Y0109654D01*
D02*
G37*
G36*
X0050862Y0108747D02*
X0050138D01*
X0049440Y0108559D01*
X0048814Y0108198D01*
X0048302Y0107686D01*
X0047941Y0107060D01*
X0047754Y0106362D01*
Y0105638D01*
X0047941Y0104940D01*
X0048302Y0104314D01*
X0048814Y0103802D01*
X0049440Y0103441D01*
X0050138Y0103253D01*
X0050862D01*
X0051560Y0103441D01*
X0052186Y0103802D01*
X0052698Y0104314D01*
X0053059Y0104940D01*
X0053246Y0105638D01*
Y0106362D01*
X0053059Y0107060D01*
X0052698Y0107686D01*
X0052186Y0108198D01*
X0051560Y0108559D01*
X0050862Y0108747D01*
D02*
G37*
G36*
X0043246D02*
X0037754D01*
Y0103253D01*
X0043246D01*
Y0108747D01*
D02*
G37*
G36*
X0020862D02*
X0020138D01*
X0019440Y0108559D01*
X0018814Y0108198D01*
X0018302Y0107686D01*
X0017941Y0107060D01*
X0017754Y0106362D01*
Y0105638D01*
X0017941Y0104940D01*
X0018302Y0104314D01*
X0018814Y0103802D01*
X0019440Y0103441D01*
X0020138Y0103253D01*
X0020862D01*
X0021560Y0103441D01*
X0022186Y0103802D01*
X0022698Y0104314D01*
X0023059Y0104940D01*
X0023246Y0105638D01*
Y0106362D01*
X0023059Y0107060D01*
X0022698Y0107686D01*
X0022186Y0108198D01*
X0021560Y0108559D01*
X0020862Y0108747D01*
D02*
G37*
G36*
X0013246D02*
X0007754D01*
Y0103253D01*
X0013246D01*
Y0108747D01*
D02*
G37*
G36*
X0230480Y0109648D02*
X0229520D01*
X0228592Y0109399D01*
X0227760Y0108919D01*
X0227081Y0108240D01*
X0226601Y0107408D01*
X0226352Y0106480D01*
Y0105520D01*
X0226601Y0104592D01*
X0227081Y0103760D01*
X0227760Y0103081D01*
X0228592Y0102601D01*
X0229520Y0102352D01*
X0230480D01*
X0231408Y0102601D01*
X0232240Y0103081D01*
X0232919Y0103760D01*
X0233399Y0104592D01*
X0233648Y0105520D01*
Y0106480D01*
X0233399Y0107408D01*
X0232919Y0108240D01*
X0232240Y0108919D01*
X0231408Y0109399D01*
X0230480Y0109648D01*
D02*
G37*
G36*
X0220480D02*
X0219520D01*
X0218592Y0109399D01*
X0217760Y0108919D01*
X0217081Y0108240D01*
X0216601Y0107408D01*
X0216352Y0106480D01*
Y0105520D01*
X0216601Y0104592D01*
X0217081Y0103760D01*
X0217760Y0103081D01*
X0218592Y0102601D01*
X0219520Y0102352D01*
X0220480D01*
X0221408Y0102601D01*
X0222240Y0103081D01*
X0222919Y0103760D01*
X0223399Y0104592D01*
X0223648Y0105520D01*
Y0106480D01*
X0223399Y0107408D01*
X0222919Y0108240D01*
X0222240Y0108919D01*
X0221408Y0109399D01*
X0220480Y0109648D01*
D02*
G37*
G36*
X0150480D02*
X0149520D01*
X0148592Y0109399D01*
X0147760Y0108919D01*
X0147081Y0108240D01*
X0146601Y0107408D01*
X0146352Y0106480D01*
Y0105520D01*
X0146601Y0104592D01*
X0147081Y0103760D01*
X0147760Y0103081D01*
X0148592Y0102601D01*
X0149520Y0102352D01*
X0150480D01*
X0151408Y0102601D01*
X0152240Y0103081D01*
X0152919Y0103760D01*
X0153399Y0104592D01*
X0153648Y0105520D01*
Y0106480D01*
X0153399Y0107408D01*
X0152919Y0108240D01*
X0152240Y0108919D01*
X0151408Y0109399D01*
X0150480Y0109648D01*
D02*
G37*
G36*
X0140480D02*
X0139520D01*
X0138592Y0109399D01*
X0137760Y0108919D01*
X0137081Y0108240D01*
X0136601Y0107408D01*
X0136352Y0106480D01*
Y0105520D01*
X0136601Y0104592D01*
X0137081Y0103760D01*
X0137760Y0103081D01*
X0138592Y0102601D01*
X0139520Y0102352D01*
X0140480D01*
X0141408Y0102601D01*
X0142240Y0103081D01*
X0142919Y0103760D01*
X0143399Y0104592D01*
X0143648Y0105520D01*
Y0106480D01*
X0143399Y0107408D01*
X0142919Y0108240D01*
X0142240Y0108919D01*
X0141408Y0109399D01*
X0140480Y0109648D01*
D02*
G37*
G36*
X0192298Y0102000D02*
X0191702D01*
X0191150Y0101772D01*
X0190728Y0101350D01*
X0190500Y0100798D01*
Y0100202D01*
X0190728Y0099650D01*
X0191150Y0099228D01*
X0191702Y0099000D01*
X0192298D01*
X0192850Y0099228D01*
X0193272Y0099650D01*
X0193500Y0100202D01*
Y0100798D01*
X0193272Y0101350D01*
X0192850Y0101772D01*
X0192298Y0102000D01*
D02*
G37*
G36*
X0092141Y0101469D02*
X0091544D01*
X0090993Y0101240D01*
X0090571Y0100818D01*
X0090342Y0100267D01*
Y0099670D01*
X0090571Y0099119D01*
X0090993Y0098697D01*
X0091544Y0098469D01*
X0092141D01*
X0092692Y0098697D01*
X0093114Y0099119D01*
X0093343Y0099670D01*
Y0100267D01*
X0093114Y0100818D01*
X0092692Y0101240D01*
X0092141Y0101469D01*
D02*
G37*
G36*
X0124054Y0101000D02*
X0123458D01*
X0122906Y0100772D01*
X0122484Y0100350D01*
X0122256Y0099798D01*
Y0099202D01*
X0122484Y0098650D01*
X0122906Y0098228D01*
X0123458Y0098000D01*
X0124054D01*
X0124606Y0098228D01*
X0125028Y0098650D01*
X0125256Y0099202D01*
Y0099798D01*
X0125028Y0100350D01*
X0124606Y0100772D01*
X0124054Y0101000D01*
D02*
G37*
G36*
X0063554Y0095653D02*
X0062958D01*
X0062406Y0095425D01*
X0061984Y0095003D01*
X0061756Y0094452D01*
Y0093855D01*
X0061984Y0093304D01*
X0062406Y0092882D01*
X0062958Y0092654D01*
X0063554D01*
X0064106Y0092882D01*
X0064528Y0093304D01*
X0064756Y0093855D01*
Y0094452D01*
X0064528Y0095003D01*
X0064106Y0095425D01*
X0063554Y0095653D01*
D02*
G37*
G36*
X0230480Y0099648D02*
X0229520D01*
X0228592Y0099399D01*
X0227760Y0098919D01*
X0227081Y0098240D01*
X0226601Y0097408D01*
X0226352Y0096480D01*
Y0095520D01*
X0226601Y0094592D01*
X0227081Y0093760D01*
X0227760Y0093081D01*
X0228592Y0092601D01*
X0229520Y0092352D01*
X0230480D01*
X0231408Y0092601D01*
X0232240Y0093081D01*
X0232919Y0093760D01*
X0233399Y0094592D01*
X0233648Y0095520D01*
Y0096480D01*
X0233399Y0097408D01*
X0232919Y0098240D01*
X0232240Y0098919D01*
X0231408Y0099399D01*
X0230480Y0099648D01*
D02*
G37*
G36*
X0220480D02*
X0219520D01*
X0218592Y0099399D01*
X0217760Y0098919D01*
X0217081Y0098240D01*
X0216601Y0097408D01*
X0216352Y0096480D01*
Y0095520D01*
X0216601Y0094592D01*
X0217081Y0093760D01*
X0217760Y0093081D01*
X0218592Y0092601D01*
X0219520Y0092352D01*
X0220480D01*
X0221408Y0092601D01*
X0222240Y0093081D01*
X0222919Y0093760D01*
X0223399Y0094592D01*
X0223648Y0095520D01*
Y0096480D01*
X0223399Y0097408D01*
X0222919Y0098240D01*
X0222240Y0098919D01*
X0221408Y0099399D01*
X0220480Y0099648D01*
D02*
G37*
G36*
X0150480D02*
X0149520D01*
X0148592Y0099399D01*
X0147760Y0098919D01*
X0147081Y0098240D01*
X0146601Y0097408D01*
X0146352Y0096480D01*
Y0095520D01*
X0146601Y0094592D01*
X0147081Y0093760D01*
X0147760Y0093081D01*
X0148592Y0092601D01*
X0149520Y0092352D01*
X0150480D01*
X0151408Y0092601D01*
X0152240Y0093081D01*
X0152919Y0093760D01*
X0153399Y0094592D01*
X0153648Y0095520D01*
Y0096480D01*
X0153399Y0097408D01*
X0152919Y0098240D01*
X0152240Y0098919D01*
X0151408Y0099399D01*
X0150480Y0099648D01*
D02*
G37*
G36*
X0140480D02*
X0139520D01*
X0138592Y0099399D01*
X0137760Y0098919D01*
X0137081Y0098240D01*
X0136601Y0097408D01*
X0136352Y0096480D01*
Y0095520D01*
X0136601Y0094592D01*
X0137081Y0093760D01*
X0137760Y0093081D01*
X0138592Y0092601D01*
X0139520Y0092352D01*
X0140480D01*
X0141408Y0092601D01*
X0142240Y0093081D01*
X0142919Y0093760D01*
X0143399Y0094592D01*
X0143648Y0095520D01*
Y0096480D01*
X0143399Y0097408D01*
X0142919Y0098240D01*
X0142240Y0098919D01*
X0141408Y0099399D01*
X0140480Y0099648D01*
D02*
G37*
G36*
X0119298Y0091000D02*
X0118702D01*
X0118150Y0090772D01*
X0117728Y0090350D01*
X0117500Y0089798D01*
Y0089202D01*
X0117728Y0088650D01*
X0118150Y0088228D01*
X0118702Y0088000D01*
X0119298D01*
X0119850Y0088228D01*
X0120272Y0088650D01*
X0120500Y0089202D01*
Y0089798D01*
X0120272Y0090350D01*
X0119850Y0090772D01*
X0119298Y0091000D01*
D02*
G37*
G36*
X0230480Y0089648D02*
X0230200D01*
Y0086200D01*
X0233648D01*
Y0086480D01*
X0233399Y0087408D01*
X0232919Y0088240D01*
X0232240Y0088919D01*
X0231408Y0089399D01*
X0230480Y0089648D01*
D02*
G37*
G36*
X0150480D02*
X0150200D01*
Y0086200D01*
X0153648D01*
Y0086480D01*
X0153399Y0087408D01*
X0152919Y0088240D01*
X0152240Y0088919D01*
X0151408Y0089399D01*
X0150480Y0089648D01*
D02*
G37*
G36*
X0229800D02*
X0229520D01*
X0228592Y0089399D01*
X0227760Y0088919D01*
X0227081Y0088240D01*
X0226601Y0087408D01*
X0226352Y0086480D01*
Y0086200D01*
X0229800D01*
Y0089648D01*
D02*
G37*
G36*
X0149800D02*
X0149520D01*
X0148592Y0089399D01*
X0147760Y0088919D01*
X0147081Y0088240D01*
X0146601Y0087408D01*
X0146352Y0086480D01*
Y0086200D01*
X0149800D01*
Y0089648D01*
D02*
G37*
G36*
X0199042Y0087500D02*
X0198446D01*
X0197895Y0087272D01*
X0197473Y0086850D01*
X0197244Y0086298D01*
Y0085702D01*
X0197473Y0085150D01*
X0197895Y0084728D01*
X0198446Y0084500D01*
X0199042D01*
X0199594Y0084728D01*
X0200016Y0085150D01*
X0200244Y0085702D01*
Y0086298D01*
X0200016Y0086850D01*
X0199594Y0087272D01*
X0199042Y0087500D01*
D02*
G37*
G36*
X0084798D02*
X0084202D01*
X0083650Y0087272D01*
X0083228Y0086850D01*
X0083000Y0086298D01*
Y0085702D01*
X0083228Y0085150D01*
X0083650Y0084728D01*
X0084202Y0084500D01*
X0084798D01*
X0085350Y0084728D01*
X0085772Y0085150D01*
X0086000Y0085702D01*
Y0086298D01*
X0085772Y0086850D01*
X0085350Y0087272D01*
X0084798Y0087500D01*
D02*
G37*
G36*
X0047952Y0086500D02*
X0047355D01*
X0046804Y0086272D01*
X0046382Y0085850D01*
X0046154Y0085298D01*
Y0084702D01*
X0046382Y0084150D01*
X0046804Y0083728D01*
X0047355Y0083500D01*
X0047952D01*
X0048503Y0083728D01*
X0048925Y0084150D01*
X0049154Y0084702D01*
Y0085298D01*
X0048925Y0085850D01*
X0048503Y0086272D01*
X0047952Y0086500D01*
D02*
G37*
G36*
X0233648Y0085800D02*
X0230200D01*
Y0082352D01*
X0230480D01*
X0231408Y0082601D01*
X0232240Y0083081D01*
X0232919Y0083760D01*
X0233399Y0084592D01*
X0233648Y0085520D01*
Y0085800D01*
D02*
G37*
G36*
X0229800D02*
X0226352D01*
Y0085520D01*
X0226601Y0084592D01*
X0227081Y0083760D01*
X0227760Y0083081D01*
X0228592Y0082601D01*
X0229520Y0082352D01*
X0229800D01*
Y0085800D01*
D02*
G37*
G36*
X0220480Y0089648D02*
X0219520D01*
X0218592Y0089399D01*
X0217760Y0088919D01*
X0217081Y0088240D01*
X0216601Y0087408D01*
X0216352Y0086480D01*
Y0085520D01*
X0216601Y0084592D01*
X0217081Y0083760D01*
X0217760Y0083081D01*
X0218592Y0082601D01*
X0219520Y0082352D01*
X0220480D01*
X0221408Y0082601D01*
X0222240Y0083081D01*
X0222919Y0083760D01*
X0223399Y0084592D01*
X0223648Y0085520D01*
Y0086480D01*
X0223399Y0087408D01*
X0222919Y0088240D01*
X0222240Y0088919D01*
X0221408Y0089399D01*
X0220480Y0089648D01*
D02*
G37*
G36*
X0153648Y0085800D02*
X0150200D01*
Y0082352D01*
X0150480D01*
X0151408Y0082601D01*
X0152240Y0083081D01*
X0152919Y0083760D01*
X0153399Y0084592D01*
X0153648Y0085520D01*
Y0085800D01*
D02*
G37*
G36*
X0149800D02*
X0146352D01*
Y0085520D01*
X0146601Y0084592D01*
X0147081Y0083760D01*
X0147760Y0083081D01*
X0148592Y0082601D01*
X0149520Y0082352D01*
X0149800D01*
Y0085800D01*
D02*
G37*
G36*
X0140480Y0089648D02*
X0139520D01*
X0138592Y0089399D01*
X0137760Y0088919D01*
X0137081Y0088240D01*
X0136601Y0087408D01*
X0136352Y0086480D01*
Y0085520D01*
X0136601Y0084592D01*
X0137081Y0083760D01*
X0137760Y0083081D01*
X0138592Y0082601D01*
X0139520Y0082352D01*
X0140480D01*
X0141408Y0082601D01*
X0142240Y0083081D01*
X0142919Y0083760D01*
X0143399Y0084592D01*
X0143648Y0085520D01*
Y0086480D01*
X0143399Y0087408D01*
X0142919Y0088240D01*
X0142240Y0088919D01*
X0141408Y0089399D01*
X0140480Y0089648D01*
D02*
G37*
G36*
X0089798Y0076500D02*
X0089202D01*
X0088650Y0076272D01*
X0088228Y0075850D01*
X0088000Y0075298D01*
Y0074702D01*
X0088228Y0074150D01*
X0088650Y0073728D01*
X0089202Y0073500D01*
X0089798D01*
X0090350Y0073728D01*
X0090772Y0074150D01*
X0091000Y0074702D01*
Y0075298D01*
X0090772Y0075850D01*
X0090350Y0076272D01*
X0089798Y0076500D01*
D02*
G37*
G36*
X0230480Y0079648D02*
X0229520D01*
X0228592Y0079399D01*
X0227760Y0078919D01*
X0227081Y0078240D01*
X0226601Y0077408D01*
X0226352Y0076480D01*
Y0075520D01*
X0226601Y0074592D01*
X0227081Y0073760D01*
X0227760Y0073081D01*
X0228592Y0072601D01*
X0229520Y0072352D01*
X0230480D01*
X0231408Y0072601D01*
X0232240Y0073081D01*
X0232919Y0073760D01*
X0233399Y0074592D01*
X0233648Y0075520D01*
Y0076480D01*
X0233399Y0077408D01*
X0232919Y0078240D01*
X0232240Y0078919D01*
X0231408Y0079399D01*
X0230480Y0079648D01*
D02*
G37*
G36*
X0220480D02*
X0219520D01*
X0218592Y0079399D01*
X0217760Y0078919D01*
X0217081Y0078240D01*
X0216601Y0077408D01*
X0216352Y0076480D01*
Y0075520D01*
X0216601Y0074592D01*
X0217081Y0073760D01*
X0217760Y0073081D01*
X0218592Y0072601D01*
X0219520Y0072352D01*
X0220480D01*
X0221408Y0072601D01*
X0222240Y0073081D01*
X0222919Y0073760D01*
X0223399Y0074592D01*
X0223648Y0075520D01*
Y0076480D01*
X0223399Y0077408D01*
X0222919Y0078240D01*
X0222240Y0078919D01*
X0221408Y0079399D01*
X0220480Y0079648D01*
D02*
G37*
G36*
X0150480D02*
X0149520D01*
X0148592Y0079399D01*
X0147760Y0078919D01*
X0147081Y0078240D01*
X0146601Y0077408D01*
X0146352Y0076480D01*
Y0075520D01*
X0146601Y0074592D01*
X0147081Y0073760D01*
X0147760Y0073081D01*
X0148592Y0072601D01*
X0149520Y0072352D01*
X0150480D01*
X0151408Y0072601D01*
X0152240Y0073081D01*
X0152919Y0073760D01*
X0153399Y0074592D01*
X0153648Y0075520D01*
Y0076480D01*
X0153399Y0077408D01*
X0152919Y0078240D01*
X0152240Y0078919D01*
X0151408Y0079399D01*
X0150480Y0079648D01*
D02*
G37*
G36*
X0140480D02*
X0139520D01*
X0138592Y0079399D01*
X0137760Y0078919D01*
X0137081Y0078240D01*
X0136601Y0077408D01*
X0136352Y0076480D01*
Y0075520D01*
X0136601Y0074592D01*
X0137081Y0073760D01*
X0137760Y0073081D01*
X0138592Y0072601D01*
X0139520Y0072352D01*
X0140480D01*
X0141408Y0072601D01*
X0142240Y0073081D01*
X0142919Y0073760D01*
X0143399Y0074592D01*
X0143648Y0075520D01*
Y0076480D01*
X0143399Y0077408D01*
X0142919Y0078240D01*
X0142240Y0078919D01*
X0141408Y0079399D01*
X0140480Y0079648D01*
D02*
G37*
G36*
X0118901Y0071000D02*
X0118304D01*
X0117753Y0070772D01*
X0117331Y0070350D01*
X0117102Y0069798D01*
Y0069238D01*
X0117005Y0069154D01*
X0116653Y0068980D01*
X0116361Y0069272D01*
X0115810Y0069500D01*
X0115213D01*
X0114662Y0069272D01*
X0114240Y0068850D01*
X0114012Y0068298D01*
Y0067702D01*
X0114240Y0067150D01*
X0114662Y0066728D01*
X0115213Y0066500D01*
X0115810D01*
X0116361Y0066728D01*
X0116783Y0067150D01*
X0117012Y0067702D01*
Y0068262D01*
X0117109Y0068346D01*
X0117461Y0068520D01*
X0117753Y0068228D01*
X0118304Y0068000D01*
X0118901D01*
X0119452Y0068228D01*
X0119874Y0068650D01*
X0120102Y0069202D01*
Y0069798D01*
X0119874Y0070350D01*
X0119452Y0070772D01*
X0118901Y0071000D01*
D02*
G37*
G36*
X0060798Y0069000D02*
X0060202D01*
X0059650Y0068772D01*
X0059228Y0068350D01*
X0059000Y0067798D01*
Y0067202D01*
X0059228Y0066650D01*
X0059650Y0066228D01*
X0060202Y0066000D01*
X0060798D01*
X0061350Y0066228D01*
X0061772Y0066650D01*
X0062000Y0067202D01*
Y0067798D01*
X0061772Y0068350D01*
X0061350Y0068772D01*
X0060798Y0069000D01*
D02*
G37*
G36*
X0207298Y0065500D02*
X0206702D01*
X0206150Y0065272D01*
X0205728Y0064850D01*
X0205500Y0064298D01*
Y0063702D01*
X0205728Y0063150D01*
X0206150Y0062728D01*
X0206702Y0062500D01*
X0207298D01*
X0207850Y0062728D01*
X0208272Y0063150D01*
X0208500Y0063702D01*
Y0064298D01*
X0208272Y0064850D01*
X0207850Y0065272D01*
X0207298Y0065500D01*
D02*
G37*
G36*
X0230480Y0069648D02*
X0229520D01*
X0228592Y0069399D01*
X0227760Y0068919D01*
X0227081Y0068240D01*
X0226601Y0067408D01*
X0226352Y0066480D01*
Y0065520D01*
X0226601Y0064592D01*
X0227081Y0063760D01*
X0227760Y0063081D01*
X0228592Y0062601D01*
X0229520Y0062352D01*
X0230480D01*
X0231408Y0062601D01*
X0232240Y0063081D01*
X0232919Y0063760D01*
X0233399Y0064592D01*
X0233648Y0065520D01*
Y0066480D01*
X0233399Y0067408D01*
X0232919Y0068240D01*
X0232240Y0068919D01*
X0231408Y0069399D01*
X0230480Y0069648D01*
D02*
G37*
G36*
X0220480D02*
X0219520D01*
X0218592Y0069399D01*
X0217760Y0068919D01*
X0217081Y0068240D01*
X0216601Y0067408D01*
X0216352Y0066480D01*
Y0065520D01*
X0216601Y0064592D01*
X0217081Y0063760D01*
X0217760Y0063081D01*
X0218592Y0062601D01*
X0219520Y0062352D01*
X0220480D01*
X0221408Y0062601D01*
X0222240Y0063081D01*
X0222919Y0063760D01*
X0223399Y0064592D01*
X0223648Y0065520D01*
Y0066480D01*
X0223399Y0067408D01*
X0222919Y0068240D01*
X0222240Y0068919D01*
X0221408Y0069399D01*
X0220480Y0069648D01*
D02*
G37*
G36*
X0150480D02*
X0149520D01*
X0148592Y0069399D01*
X0147760Y0068919D01*
X0147081Y0068240D01*
X0146601Y0067408D01*
X0146352Y0066480D01*
Y0065520D01*
X0146601Y0064592D01*
X0147081Y0063760D01*
X0147760Y0063081D01*
X0148592Y0062601D01*
X0149520Y0062352D01*
X0150480D01*
X0151408Y0062601D01*
X0152240Y0063081D01*
X0152919Y0063760D01*
X0153399Y0064592D01*
X0153648Y0065520D01*
Y0066480D01*
X0153399Y0067408D01*
X0152919Y0068240D01*
X0152240Y0068919D01*
X0151408Y0069399D01*
X0150480Y0069648D01*
D02*
G37*
G36*
X0140480D02*
X0139520D01*
X0138592Y0069399D01*
X0137760Y0068919D01*
X0137081Y0068240D01*
X0136601Y0067408D01*
X0136352Y0066480D01*
Y0065520D01*
X0136601Y0064592D01*
X0137081Y0063760D01*
X0137760Y0063081D01*
X0138592Y0062601D01*
X0139520Y0062352D01*
X0140480D01*
X0141408Y0062601D01*
X0142240Y0063081D01*
X0142919Y0063760D01*
X0143399Y0064592D01*
X0143648Y0065520D01*
Y0066480D01*
X0143399Y0067408D01*
X0142919Y0068240D01*
X0142240Y0068919D01*
X0141408Y0069399D01*
X0140480Y0069648D01*
D02*
G37*
G36*
X0021441Y0066853D02*
X0020559D01*
X0019706Y0066624D01*
X0018941Y0066183D01*
X0018317Y0065559D01*
X0017876Y0064794D01*
X0017647Y0063941D01*
Y0063059D01*
X0017876Y0062206D01*
X0018317Y0061441D01*
X0018941Y0060817D01*
X0019706Y0060376D01*
X0020559Y0060147D01*
X0021441D01*
X0022294Y0060376D01*
X0023059Y0060817D01*
X0023683Y0061441D01*
X0024124Y0062206D01*
X0024353Y0063059D01*
Y0063941D01*
X0024124Y0064794D01*
X0023683Y0065559D01*
X0023059Y0066183D01*
X0022294Y0066624D01*
X0021441Y0066853D01*
D02*
G37*
G36*
X0011441D02*
X0010559D01*
X0009706Y0066624D01*
X0008941Y0066183D01*
X0008317Y0065559D01*
X0007876Y0064794D01*
X0007647Y0063941D01*
Y0063059D01*
X0007876Y0062206D01*
X0008317Y0061441D01*
X0008941Y0060817D01*
X0009706Y0060376D01*
X0010559Y0060147D01*
X0011441D01*
X0012294Y0060376D01*
X0013059Y0060817D01*
X0013683Y0061441D01*
X0014124Y0062206D01*
X0014353Y0063059D01*
Y0063941D01*
X0014124Y0064794D01*
X0013683Y0065559D01*
X0013059Y0066183D01*
X0012294Y0066624D01*
X0011441Y0066853D01*
D02*
G37*
G36*
X0106310Y0061000D02*
X0105713D01*
X0105162Y0060772D01*
X0104740Y0060350D01*
X0104512Y0059798D01*
Y0059202D01*
X0104740Y0058650D01*
X0105162Y0058228D01*
X0105713Y0058000D01*
X0106310D01*
X0106861Y0058228D01*
X0107283Y0058650D01*
X0107512Y0059202D01*
Y0059798D01*
X0107283Y0060350D01*
X0106861Y0060772D01*
X0106310Y0061000D01*
D02*
G37*
G36*
X0066298Y0055500D02*
X0065702D01*
X0065150Y0055272D01*
X0064728Y0054850D01*
X0064500Y0054298D01*
Y0053702D01*
X0064728Y0053150D01*
X0065150Y0052728D01*
X0065702Y0052500D01*
X0066298D01*
X0066850Y0052728D01*
X0067272Y0053150D01*
X0067500Y0053702D01*
Y0054298D01*
X0067272Y0054850D01*
X0066850Y0055272D01*
X0066298Y0055500D01*
D02*
G37*
G36*
X0230480Y0059648D02*
X0229520D01*
X0228592Y0059399D01*
X0227760Y0058919D01*
X0227081Y0058240D01*
X0226601Y0057408D01*
X0226352Y0056480D01*
Y0055520D01*
X0226601Y0054592D01*
X0227081Y0053760D01*
X0227760Y0053081D01*
X0228592Y0052601D01*
X0229520Y0052352D01*
X0230480D01*
X0231408Y0052601D01*
X0232240Y0053081D01*
X0232919Y0053760D01*
X0233399Y0054592D01*
X0233648Y0055520D01*
Y0056480D01*
X0233399Y0057408D01*
X0232919Y0058240D01*
X0232240Y0058919D01*
X0231408Y0059399D01*
X0230480Y0059648D01*
D02*
G37*
G36*
X0220480D02*
X0219520D01*
X0218592Y0059399D01*
X0217760Y0058919D01*
X0217081Y0058240D01*
X0216601Y0057408D01*
X0216352Y0056480D01*
Y0055520D01*
X0216601Y0054592D01*
X0217081Y0053760D01*
X0217760Y0053081D01*
X0218592Y0052601D01*
X0219520Y0052352D01*
X0220480D01*
X0221408Y0052601D01*
X0222240Y0053081D01*
X0222919Y0053760D01*
X0223399Y0054592D01*
X0223648Y0055520D01*
Y0056480D01*
X0223399Y0057408D01*
X0222919Y0058240D01*
X0222240Y0058919D01*
X0221408Y0059399D01*
X0220480Y0059648D01*
D02*
G37*
G36*
X0150480D02*
X0149520D01*
X0148592Y0059399D01*
X0147760Y0058919D01*
X0147081Y0058240D01*
X0146601Y0057408D01*
X0146352Y0056480D01*
Y0055520D01*
X0146601Y0054592D01*
X0147081Y0053760D01*
X0147760Y0053081D01*
X0148592Y0052601D01*
X0149520Y0052352D01*
X0150480D01*
X0151408Y0052601D01*
X0152240Y0053081D01*
X0152919Y0053760D01*
X0153399Y0054592D01*
X0153648Y0055520D01*
Y0056480D01*
X0153399Y0057408D01*
X0152919Y0058240D01*
X0152240Y0058919D01*
X0151408Y0059399D01*
X0150480Y0059648D01*
D02*
G37*
G36*
X0140480D02*
X0139520D01*
X0138592Y0059399D01*
X0137760Y0058919D01*
X0137081Y0058240D01*
X0136601Y0057408D01*
X0136352Y0056480D01*
Y0055520D01*
X0136601Y0054592D01*
X0137081Y0053760D01*
X0137760Y0053081D01*
X0138592Y0052601D01*
X0139520Y0052352D01*
X0140480D01*
X0141408Y0052601D01*
X0142240Y0053081D01*
X0142919Y0053760D01*
X0143399Y0054592D01*
X0143648Y0055520D01*
Y0056480D01*
X0143399Y0057408D01*
X0142919Y0058240D01*
X0142240Y0058919D01*
X0141408Y0059399D01*
X0140480Y0059648D01*
D02*
G37*
G36*
X0044798Y0049500D02*
X0044202D01*
X0043650Y0049272D01*
X0043228Y0048850D01*
X0043000Y0048298D01*
Y0047702D01*
X0043228Y0047150D01*
X0043650Y0046728D01*
X0044202Y0046500D01*
X0044798D01*
X0045350Y0046728D01*
X0045772Y0047150D01*
X0046000Y0047702D01*
Y0048298D01*
X0045772Y0048850D01*
X0045350Y0049272D01*
X0044798Y0049500D01*
D02*
G37*
G36*
X0160798Y0047500D02*
X0160202D01*
X0159650Y0047272D01*
X0159228Y0046850D01*
X0159000Y0046298D01*
Y0045702D01*
X0159228Y0045150D01*
X0159650Y0044728D01*
X0160202Y0044500D01*
X0160798D01*
X0161350Y0044728D01*
X0161772Y0045150D01*
X0162000Y0045702D01*
Y0046298D01*
X0161772Y0046850D01*
X0161350Y0047272D01*
X0160798Y0047500D01*
D02*
G37*
G36*
X0230480Y0049648D02*
X0229520D01*
X0228592Y0049399D01*
X0227760Y0048919D01*
X0227081Y0048240D01*
X0226601Y0047408D01*
X0226352Y0046480D01*
Y0045520D01*
X0226601Y0044592D01*
X0227081Y0043760D01*
X0227760Y0043081D01*
X0228592Y0042601D01*
X0229520Y0042352D01*
X0230480D01*
X0231408Y0042601D01*
X0232240Y0043081D01*
X0232919Y0043760D01*
X0233399Y0044592D01*
X0233648Y0045520D01*
Y0046480D01*
X0233399Y0047408D01*
X0232919Y0048240D01*
X0232240Y0048919D01*
X0231408Y0049399D01*
X0230480Y0049648D01*
D02*
G37*
G36*
X0220480D02*
X0219520D01*
X0218592Y0049399D01*
X0217760Y0048919D01*
X0217081Y0048240D01*
X0216601Y0047408D01*
X0216352Y0046480D01*
Y0045520D01*
X0216601Y0044592D01*
X0217081Y0043760D01*
X0217760Y0043081D01*
X0218592Y0042601D01*
X0219520Y0042352D01*
X0220480D01*
X0221408Y0042601D01*
X0222240Y0043081D01*
X0222919Y0043760D01*
X0223399Y0044592D01*
X0223648Y0045520D01*
Y0046480D01*
X0223399Y0047408D01*
X0222919Y0048240D01*
X0222240Y0048919D01*
X0221408Y0049399D01*
X0220480Y0049648D01*
D02*
G37*
G36*
X0150480D02*
X0149520D01*
X0148592Y0049399D01*
X0147760Y0048919D01*
X0147081Y0048240D01*
X0146601Y0047408D01*
X0146352Y0046480D01*
Y0045520D01*
X0146601Y0044592D01*
X0147081Y0043760D01*
X0147760Y0043081D01*
X0148592Y0042601D01*
X0149520Y0042352D01*
X0150480D01*
X0151408Y0042601D01*
X0152240Y0043081D01*
X0152919Y0043760D01*
X0153399Y0044592D01*
X0153648Y0045520D01*
Y0046480D01*
X0153399Y0047408D01*
X0152919Y0048240D01*
X0152240Y0048919D01*
X0151408Y0049399D01*
X0150480Y0049648D01*
D02*
G37*
G36*
X0140480D02*
X0139520D01*
X0138592Y0049399D01*
X0137760Y0048919D01*
X0137081Y0048240D01*
X0136601Y0047408D01*
X0136352Y0046480D01*
Y0045520D01*
X0136601Y0044592D01*
X0137081Y0043760D01*
X0137760Y0043081D01*
X0138592Y0042601D01*
X0139520Y0042352D01*
X0140480D01*
X0141408Y0042601D01*
X0142240Y0043081D01*
X0142919Y0043760D01*
X0143399Y0044592D01*
X0143648Y0045520D01*
Y0046480D01*
X0143399Y0047408D01*
X0142919Y0048240D01*
X0142240Y0048919D01*
X0141408Y0049399D01*
X0140480Y0049648D01*
D02*
G37*
G36*
X0021578Y0040366D02*
X0020981D01*
X0020430Y0040138D01*
X0020008Y0039716D01*
X0019780Y0039165D01*
Y0038568D01*
X0020008Y0038017D01*
X0020430Y0037595D01*
X0020981Y0037366D01*
X0021578D01*
X0022129Y0037595D01*
X0022551Y0038017D01*
X0022780Y0038568D01*
Y0039165D01*
X0022551Y0039716D01*
X0022129Y0040138D01*
X0021578Y0040366D01*
D02*
G37*
G36*
X0071798Y0036500D02*
X0071202D01*
X0070650Y0036272D01*
X0070228Y0035850D01*
X0070000Y0035298D01*
Y0034702D01*
X0070228Y0034150D01*
X0070650Y0033728D01*
X0071202Y0033500D01*
X0071798D01*
X0072350Y0033728D01*
X0072772Y0034150D01*
X0073000Y0034702D01*
Y0035298D01*
X0072772Y0035850D01*
X0072350Y0036272D01*
X0071798Y0036500D01*
D02*
G37*
G36*
X0230480Y0039648D02*
X0229520D01*
X0228592Y0039399D01*
X0227760Y0038919D01*
X0227081Y0038240D01*
X0226601Y0037408D01*
X0226352Y0036480D01*
Y0035520D01*
X0226601Y0034592D01*
X0227081Y0033760D01*
X0227760Y0033081D01*
X0228592Y0032601D01*
X0229520Y0032352D01*
X0230480D01*
X0231408Y0032601D01*
X0232240Y0033081D01*
X0232919Y0033760D01*
X0233399Y0034592D01*
X0233648Y0035520D01*
Y0036480D01*
X0233399Y0037408D01*
X0232919Y0038240D01*
X0232240Y0038919D01*
X0231408Y0039399D01*
X0230480Y0039648D01*
D02*
G37*
G36*
X0220480D02*
X0219520D01*
X0218592Y0039399D01*
X0217760Y0038919D01*
X0217081Y0038240D01*
X0216601Y0037408D01*
X0216352Y0036480D01*
Y0035520D01*
X0216601Y0034592D01*
X0217081Y0033760D01*
X0217760Y0033081D01*
X0218592Y0032601D01*
X0219520Y0032352D01*
X0220480D01*
X0221408Y0032601D01*
X0222240Y0033081D01*
X0222919Y0033760D01*
X0223399Y0034592D01*
X0223648Y0035520D01*
Y0036480D01*
X0223399Y0037408D01*
X0222919Y0038240D01*
X0222240Y0038919D01*
X0221408Y0039399D01*
X0220480Y0039648D01*
D02*
G37*
G36*
X0150480D02*
X0149520D01*
X0148592Y0039399D01*
X0147760Y0038919D01*
X0147081Y0038240D01*
X0146601Y0037408D01*
X0146352Y0036480D01*
Y0035520D01*
X0146601Y0034592D01*
X0147081Y0033760D01*
X0147760Y0033081D01*
X0148592Y0032601D01*
X0149520Y0032352D01*
X0150480D01*
X0151408Y0032601D01*
X0152240Y0033081D01*
X0152919Y0033760D01*
X0153399Y0034592D01*
X0153648Y0035520D01*
Y0036480D01*
X0153399Y0037408D01*
X0152919Y0038240D01*
X0152240Y0038919D01*
X0151408Y0039399D01*
X0150480Y0039648D01*
D02*
G37*
G36*
X0140480D02*
X0139520D01*
X0138592Y0039399D01*
X0137760Y0038919D01*
X0137081Y0038240D01*
X0136601Y0037408D01*
X0136352Y0036480D01*
Y0035520D01*
X0136601Y0034592D01*
X0137081Y0033760D01*
X0137760Y0033081D01*
X0138592Y0032601D01*
X0139520Y0032352D01*
X0140480D01*
X0141408Y0032601D01*
X0142240Y0033081D01*
X0142919Y0033760D01*
X0143399Y0034592D01*
X0143648Y0035520D01*
Y0036480D01*
X0143399Y0037408D01*
X0142919Y0038240D01*
X0142240Y0038919D01*
X0141408Y0039399D01*
X0140480Y0039648D01*
D02*
G37*
G36*
X0101145Y0031400D02*
X0100548D01*
X0099997Y0031172D01*
X0099575Y0030750D01*
X0099347Y0030198D01*
Y0029602D01*
X0099575Y0029050D01*
X0099997Y0028628D01*
X0100548Y0028400D01*
X0101145D01*
X0101696Y0028628D01*
X0102118Y0029050D01*
X0102347Y0029602D01*
Y0030198D01*
X0102118Y0030750D01*
X0101696Y0031172D01*
X0101145Y0031400D01*
D02*
G37*
G36*
X0100620Y0020102D02*
X0099380D01*
X0099302Y0020087D01*
X0099223D01*
X0098006Y0019845D01*
X0097933Y0019814D01*
X0097855Y0019799D01*
X0096709Y0019324D01*
X0096643Y0019280D01*
X0096570Y0019250D01*
X0095539Y0018560D01*
X0095483Y0018505D01*
X0095417Y0018461D01*
X0094539Y0017583D01*
X0094495Y0017517D01*
X0094440Y0017461D01*
X0093750Y0016430D01*
X0093720Y0016357D01*
X0093676Y0016291D01*
X0093201Y0015145D01*
X0093186Y0015067D01*
X0093155Y0014994D01*
X0092913Y0013777D01*
Y0013698D01*
X0092898Y0013620D01*
Y0012380D01*
X0092913Y0012302D01*
Y0012223D01*
X0093155Y0011006D01*
X0093186Y0010933D01*
X0093201Y0010855D01*
X0093676Y0009709D01*
X0093720Y0009643D01*
X0093750Y0009570D01*
X0094440Y0008539D01*
X0094495Y0008483D01*
X0094539Y0008417D01*
X0095417Y0007539D01*
X0095483Y0007495D01*
X0095539Y0007440D01*
X0096570Y0006750D01*
X0096643Y0006720D01*
X0096709Y0006676D01*
X0097855Y0006201D01*
X0097933Y0006186D01*
X0098006Y0006155D01*
X0099223Y0005913D01*
X0099302D01*
X0099380Y0005898D01*
X0100620D01*
X0100698Y0005913D01*
X0100777D01*
X0101994Y0006155D01*
X0102067Y0006186D01*
X0102145Y0006201D01*
X0103291Y0006676D01*
X0103357Y0006720D01*
X0103430Y0006750D01*
X0104462Y0007440D01*
X0104517Y0007495D01*
X0104583Y0007539D01*
X0105461Y0008417D01*
X0105505Y0008483D01*
X0105560Y0008539D01*
X0106250Y0009570D01*
X0106280Y0009643D01*
X0106324Y0009709D01*
X0106799Y0010855D01*
X0106814Y0010933D01*
X0106844Y0011006D01*
X0107087Y0012223D01*
Y0012302D01*
X0107102Y0012380D01*
Y0013620D01*
X0107087Y0013698D01*
Y0013777D01*
X0106844Y0014994D01*
X0106814Y0015067D01*
X0106799Y0015145D01*
X0106324Y0016291D01*
X0106280Y0016357D01*
X0106250Y0016430D01*
X0105560Y0017461D01*
X0105505Y0017517D01*
X0105461Y0017583D01*
X0104583Y0018461D01*
X0104517Y0018505D01*
X0104462Y0018560D01*
X0103430Y0019250D01*
X0103357Y0019280D01*
X0103291Y0019324D01*
X0102145Y0019799D01*
X0102067Y0019814D01*
X0101994Y0019845D01*
X0100777Y0020087D01*
X0100698D01*
X0100620Y0020102D01*
D02*
G37*
%LPD*%
D66*
X0209579Y0302087D02*
D03*
X0169421D02*
D03*
X0212335Y0320472D02*
D03*
X0166665D02*
D03*
D80*
X0230000Y0176000D02*
D03*
Y0086000D02*
D03*
X0150000Y0176000D02*
D03*
Y0086000D02*
D03*
D81*
X0084700Y0216300D02*
D03*
X0165000Y0190846D02*
D03*
X0063256Y0100847D02*
D03*
X0094500Y0104000D02*
D03*
X0053264Y0190075D02*
D03*
X0108500Y0183346D02*
D03*
X0108000Y0159346D02*
D03*
X0057028Y0165825D02*
D03*
X0082028Y0127075D02*
D03*
X0129000Y0126846D02*
D03*
X0032346Y0200000D02*
D03*
X0010500Y0122154D02*
D03*
X0114500Y0149500D02*
D03*
X0066264Y0140575D02*
D03*
X0164246Y0135653D02*
D03*
X0180235Y0151754D02*
D03*
X0188000Y0214500D02*
D03*
Y0205500D02*
D03*
Y0208500D02*
D03*
Y0211500D02*
D03*
X0162500Y0105000D02*
D03*
X0207000Y0041153D02*
D03*
X0037000Y0037500D02*
D03*
X0041000Y0042500D02*
D03*
X0066346Y0085000D02*
D03*
X0105910Y0075500D02*
D03*
X0084256Y0066000D02*
D03*
X0103669Y0092000D02*
D03*
X0099012Y0086500D02*
D03*
X0065500Y0026500D02*
D03*
X0088154Y0035500D02*
D03*
X0080756Y0046000D02*
D03*
X0074988Y0059500D02*
D03*
X0085913Y0051600D02*
D03*
X0044500Y0041307D02*
D03*
X0168846Y0047000D02*
D03*
X0125000Y0221153D02*
D03*
X0058000Y0217154D02*
D03*
X0115500Y0281500D02*
D03*
X0205516Y0269500D02*
D03*
X0218254Y0282000D02*
D03*
X0141846Y0272500D02*
D03*
X0172500Y0269500D02*
D03*
X0177254Y0278500D02*
D03*
X0147000Y0249654D02*
D03*
X0080500Y0256500D02*
D03*
X0071500D02*
D03*
X0074500D02*
D03*
X0117500Y0319500D02*
D03*
X0080500Y0253500D02*
D03*
X0077500Y0247500D02*
D03*
Y0250500D02*
D03*
X0080500D02*
D03*
X0077500Y0253500D02*
D03*
X0071500Y0259500D02*
D03*
X0074500Y0262500D02*
D03*
Y0259500D02*
D03*
X0046847Y0319000D02*
D03*
X0040154Y0269000D02*
D03*
X0029154Y0259500D02*
D03*
X0050000Y0269000D02*
D03*
X0061500Y0288846D02*
D03*
X0069500D02*
D03*
X0073500Y0288846D02*
D03*
X0059153Y0295000D02*
D03*
X0071593Y0262406D02*
D03*
X0074500Y0253500D02*
D03*
X0034154Y0242500D02*
D03*
X0071500Y0244500D02*
D03*
Y0247500D02*
D03*
X0074500Y0250500D02*
D03*
Y0247500D02*
D03*
Y0244500D02*
D03*
X0071500Y0250500D02*
D03*
Y0253500D02*
D03*
X0034154Y0251000D02*
D03*
X0077500Y0244500D02*
D03*
X0080500D02*
D03*
Y0247500D02*
D03*
X0083500Y0244500D02*
D03*
X0113346Y0237000D02*
D03*
X0120000Y0272000D02*
D03*
X0135256Y0255000D02*
D03*
X0089500Y0253500D02*
D03*
X0086500Y0250500D02*
D03*
X0083500Y0247500D02*
D03*
X0086500Y0244500D02*
D03*
X0089500D02*
D03*
X0077500Y0256500D02*
D03*
Y0262500D02*
D03*
Y0259500D02*
D03*
X0080500Y0262500D02*
D03*
Y0259500D02*
D03*
X0086500Y0262500D02*
D03*
X0083500D02*
D03*
X0089500D02*
D03*
X0079500Y0289000D02*
D03*
X0089500Y0256500D02*
D03*
X0106846Y0227500D02*
D03*
X0089500Y0259500D02*
D03*
X0086500Y0253500D02*
D03*
Y0256500D02*
D03*
X0083500D02*
D03*
Y0253500D02*
D03*
Y0259500D02*
D03*
X0086500D02*
D03*
X0083500Y0250500D02*
D03*
X0086500Y0247500D02*
D03*
X0089500Y0250500D02*
D03*
Y0247500D02*
D03*
M02*
