M48
;Layer_Color=9474304
;FILE_FORMAT=2:5
INCH
;TYPE=PLATED
T1F00S00C0.01000
T2F00S00C0.01500
T5F00S00C0.02559
T6F00S00C0.03937
T7F00S00C0.04331
;TYPE=NON_PLATED
T9F00S00C0.03189
%
T01
X0021280Y0038866
X0037000Y0037500
X0041000Y0042500
X0044500Y0041307
Y0048000
X0066000Y0054000
X0085913Y0051600
X0080756Y0046000
X0088154Y0035500
X0071500Y0035000
X0065500Y0026500
X0100847Y0029900
X0160500Y0046000
X0168846Y0047000
X0207000Y0041153
X0207000Y0064000
X0198744Y0086000
X0192000Y0100500
X0162500Y0105000
X0158990Y0127000
X0164246Y0135653
X0180235Y0151754
X0193100Y0145500
X0194000Y0173500
Y0177500
Y0181500
Y0185500
Y0189500
X0190000
X0186000
X0182000
X0178000
Y0185500
Y0181500
X0182000
X0186000
Y0185500
X0190000
Y0181500
Y0177500
Y0173500
X0186000
X0182000
X0178000
Y0177500
X0182000
X0186000
X0182000Y0185500
X0165000Y0190846
X0188000Y0205500
Y0208500
Y0211500
X0133000Y0182000
X0127500
Y0170000
X0133000
X0129000Y0126846
Y0108154
X0123756Y0099500
X0119000Y0089500
X0103669Y0092000
X0099012Y0086500
X0084500Y0086000
X0089500Y0075000
X0084256Y0066000
X0074988Y0059500
X0060500Y0067500
X0066346Y0085000
X0063256Y0094153
Y0100847
X0091843Y0099968
X0094500Y0104000
X0097000Y0125980
X0082028Y0127075
X0081079Y0139240
X0066264Y0140575
X0070079Y0164240
X0057028Y0165825
X0053264Y0190075
X0070579Y0188240
X0085921Y0170240
X0108500Y0176654
Y0183346
X0122000Y0182000
Y0170000
X0108000Y0159346
Y0152654
X0114500Y0149500
Y0130807
X0118500Y0127000
X0096921Y0145240
X0105910Y0075500
X0106012Y0059500
X0115512Y0068000
X0118602Y0069500
X0047654Y0085000
X0010500Y0122154
X0032346Y0200000
X0058000Y0217154
X0068500Y0218000
X0073500Y0212500
X0078500
X0083500
X0084700Y0216300
X0088500Y0212500
X0093500
X0098500
X0094153Y0221500
X0106846Y0227500
X0106653Y0237000
X0113346
X0119000Y0233846
X0116500Y0229500
Y0224500
Y0219500
X0074500Y0227500
Y0244500
X0071500
Y0247500
X0074500
X0077500
Y0250500
X0080500
Y0253500
Y0256500
X0077500
X0074500
X0071500
Y0259500
X0074500
Y0262500
X0071593Y0262406
X0077500Y0262500
Y0259500
X0080500
Y0262500
X0083500
X0086500
X0089500
Y0259500
Y0256500
Y0253500
X0086500
Y0250500
X0083500
Y0247500
X0080500
Y0244500
X0077500
X0083500
X0086500
X0089500
Y0247500
X0086500
X0089500Y0250500
X0086500Y0256500
X0083500
Y0253500
X0077500
X0074500
Y0250500
X0071500
Y0253500
X0083500Y0259500
X0086500
X0082500Y0276000
X0079500Y0289000
X0073500Y0288846
X0069500Y0288846
X0065500Y0288846
X0061500Y0288846
X0059153Y0295000
X0078500Y0295500
X0074244Y0307000
X0046847Y0319000
X0050000Y0269000
X0040154
X0041846Y0265500
X0029154Y0259500
X0034154Y0251000
X0034154Y0246750
X0034154Y0242500
X0052000Y0229847
X0105000Y0261500
X0107307Y0266000
X0101000Y0271000
X0098750Y0288500
X0091500Y0283154
X0109500Y0286000
X0113500Y0286500
X0115500Y0281500
X0120000Y0272000
X0115500Y0296500
X0117500Y0319500
X0121500Y0326000
X0141510Y0285000
X0141846Y0272500
X0152500Y0279661
X0177254Y0278500
X0181134
Y0286000
X0196882
Y0278500
X0205516Y0269500
X0218254Y0282000
X0197866Y0308488
X0182118
X0172500Y0269500
X0180400Y0257600
X0183400
Y0251600
X0180400
X0162200Y0254800
X0147000Y0249654
X0135256Y0255000
X0123000Y0261000
X0125000Y0221153
X0188000Y0214500
T02
X0174000Y0238500
T05
X0010500Y0106000
X0020500
X0040500
X0050500
X0029500Y0134500
X0033437Y0138437
X0029500Y0142374
X0019437Y0180937
X0015500Y0184874
Y0177000
T06
X0011000Y0063500
X0021000
T07
X0140000Y0036000
Y0046000
Y0056000
X0150000
Y0046000
Y0036000
X0220000
Y0046000
Y0056000
X0230000
Y0046000
Y0036000
Y0066000
Y0076000
Y0086000
Y0096000
Y0106000
Y0116000
Y0126000
Y0136000
Y0146000
Y0156000
Y0166000
Y0176000
Y0186000
Y0196000
Y0206000
X0220000
Y0196000
Y0186000
Y0176000
Y0166000
Y0156000
Y0146000
Y0136000
Y0126000
Y0116000
Y0106000
Y0096000
Y0086000
Y0076000
Y0066000
X0150000
Y0076000
Y0086000
Y0096000
Y0106000
Y0116000
Y0126000
Y0136000
Y0146000
Y0156000
Y0166000
Y0176000
Y0186000
Y0196000
Y0206000
X0140000
Y0196000
Y0186000
Y0176000
Y0166000
Y0156000
Y0146000
Y0136000
Y0126000
Y0116000
Y0106000
Y0096000
Y0086000
Y0076000
Y0066000
Y0216000
Y0226000
X0150000
Y0216000
X0220000
Y0226000
X0230000
Y0216000
T09
X0203673Y0300590
M30
